<?xml version="1.0" standalone="no"?>
<!DOCTYPE svg PUBLIC "-//W3C//DTD SVG 1.1//EN" "http://www.w3.org/Graphics/SVG/1.1/DTD/svg11.dtd" >
<svg>
<metadata>
Created by FontForge 20130207 at Fri Nov  6 01:06:57 2015
 By Daniel García
(c) 2006 Microsoft Corporation. All Rights Reserved.
</metadata>
<defs>
<font id="Nyala-Regular" horiz-adv-x="0" >
  <font-face 
    font-family="Nyala-Regular"
    font-weight="400"
    font-stretch="normal"
    units-per-em="2048"
    panose-1="2 0 5 4 7 3 0 2 0 3"
    ascent="1638"
    descent="-410"
    x-height="735"
    cap-height="1181"
    bbox="-784 -534 2620 1829"
    underline-thickness="50"
    underline-position="-150"
    unicode-range="U+0020-FB04"
  />
<missing-glyph horiz-adv-x="841" 
d="M352 246q0 25 17 42t41 17t42 -17t18 -42t-18 -41.5t-42 -16.5t-41 16.5t-17 41.5zM546 796q0 48 -38 86t-88 38q-51 0 -88 -36t-47 -120l-81 13q13 115 73.5 170.5t147.5 55.5q87 1 145 -55t59 -158q0 -50 -20 -94t-81 -105q-63 -55 -73 -87t-10 -115l-75 -4l-2 28
q0 111 30 151t73 85q44 45 60 72q15 27 15 75zM759 83v1015h-676v-1015h676zM841 1180v-1180h-841v1180h841z" />
    <glyph glyph-name="ff" unicode="ff" horiz-adv-x="1061" 
d="M655 859q0 144 38 245q-11 -4 -35 -4t-41 3v21q0 63 -24 95.5t-87 32.5q-111 0 -147 -77t-36 -207v-244q90 1 332 4v131zM145 849q0 259 123 373q123 115 285 115q120 0 162 -43t48 -74q2 2 28 33.5t102.5 62.5t130.5 31q102 0 165.5 -34.5t63.5 -101.5q0 -101 -119 -101
q-20 0 -42 3v21q0 65 -19.5 95.5t-75.5 30.5q-98 0 -131 -75t-33 -207v-249q33 1 41 1h170q8 0 15 -5.5t6 -17.5l-4 -62h-228v-618q-1 -23 -21 -27q-73 -13 -132 -13q-25 0 -25 25v633l-332 -1v-617q-1 -23 -21 -27q-73 -12 -132 -13q-25 0 -25 25v631l-115 -3l-3 67
q13 1 118 8v134z" />
    <glyph glyph-name="fi" unicode="fi" horiz-adv-x="948" 
d="M793 749q30 0 30 -36v-686q-1 -23 -21 -27q-73 -13 -132 -13q-25 0 -25 25v545q0 52 -17 70t-53 18l-252 -1v-617q-1 -23 -21 -27q-73 -12 -132 -13q-25 0 -25 25v631l-115 -3l-3 67q13 1 118 8v129q0 227 115 362.5t326 135.5q151 0 194 -51.5t43 -90.5
q0 -105 -123 -105q-23 0 -43 4v30q0 68 -28.5 97t-96.5 29q-121 0 -165 -79t-44 -213v-241q258 6 340 6q100 21 130 21z" />
    <glyph glyph-name="fl" unicode="fl" horiz-adv-x="958" 
d="M145 858q0 226 113.5 357t316.5 131q63 0 117 -18q90 18 109 18q32 0 32 -36v-1283q-1 -23 -21 -27q-73 -13 -132 -13q-25 0 -25 25v1121q0 126 -126 126q-171 0 -188.5 -111.5t-17.5 -170.5v-253q134 6 211 6q21 0 21 -21v-2l-4 -62l-228 -1v-617q-1 -23 -21 -27
q-73 -12 -132 -13q-25 0 -25 25v631l-115 -3l-3 67q13 1 118 8v143z" />
    <glyph glyph-name="ffi" unicode="ffi" horiz-adv-x="1458" 
d="M655 844q0 138 47 255q-20 -4 -38 -4t-37 3v21q0 62 -24.5 95t-90.5 33q-114 0 -151.5 -76t-37.5 -208v-241q104 2 332 4v118zM1303 749q30 0 30 -36v-686q-1 -23 -21 -27q-73 -13 -132 -13q-25 0 -25 25v545q0 52 -17 70t-53 18h-252v-618q-1 -23 -21 -27
q-73 -13 -132 -13q-25 0 -25 25v633l-332 -1v-617q-1 -23 -21 -27q-73 -12 -132 -13q-25 0 -25 25v631l-115 -3l-3 67q13 1 118 8v129q0 259 125 373q125 115 289 115q126 0 167.5 -44.5t46.5 -76.5q119 131 323 131q151 0 194 -51.5t43 -90.5q0 -105 -123 -105q-23 0 -43 4
v30q0 68 -28.5 97t-96.5 29q-121 0 -165 -79t-44 -213v-236l201 1h139q100 21 130 21z" />
    <glyph glyph-name="ffl" unicode="ffl" horiz-adv-x="1468" 
d="M655 858q0 134 44 245q-17 -3 -37 -3t-37 3v21q0 61 -24 94.5t-89 33.5q-114 0 -151.5 -76t-37.5 -208v-244q90 1 332 4v130zM145 849q0 260 125 374t288 114q124 0 165.5 -43.5t47.5 -75.5q116 128 314 128q63 0 117 -18q90 18 109 18q32 0 32 -36v-1283q-1 -23 -21 -27
q-73 -13 -132 -13q-25 0 -25 25v1121q0 126 -126 126q-171 0 -188.5 -111.5t-17.5 -170.5v-248q33 1 41 1h170q8 0 15 -5.5t6 -17.5l-4 -62h-228v-618q-1 -23 -21 -27q-73 -13 -132 -13q-25 0 -25 25v633l-332 -1v-617q-1 -23 -21 -27q-73 -12 -132 -13q-25 0 -25 25v631
l-115 -3l-3 67q13 1 118 8v134z" />
    <glyph glyph-name="f_b" unicode="fb" horiz-adv-x="1484" 
d="M1034 646q-56 0 -201 -44v-420q0 -88 71.5 -102.5t99.5 -14.5q243 0 243 250q0 126 -56.5 228.5t-156.5 102.5zM145 858q0 226 113.5 357t316.5 131q63 0 117 -18q90 18 109 18q32 0 32 -36v-633q257 77 328 77q121 0 192 -112t71 -229q0 -212 -135.5 -322.5
t-336.5 -110.5q-146 0 -214 28.5t-83 43.5v1081q0 126 -126 126q-171 0 -188.5 -111.5t-17.5 -170.5v-253q134 6 211 6q21 0 21 -21v-2l-4 -62l-228 -1v-617q-1 -23 -21 -27q-73 -12 -132 -13q-25 0 -25 25v631l-115 -3l-3 67q13 1 118 8v143z" />
    <glyph glyph-name="f_f_b" unicode="ffb" horiz-adv-x="1994" 
d="M655 858q0 134 44 245q-17 -3 -37 -3t-37 3v21q0 61 -24 94.5t-89 33.5q-114 0 -151.5 -76t-37.5 -208v-244q90 1 332 4v130zM1544 646q-56 0 -201 -44v-420q0 -88 71.5 -102.5t99.5 -14.5q243 0 243 250q0 126 -56.5 228.5t-156.5 102.5zM145 849q0 260 125 374t288 114
q124 0 165.5 -43.5t47.5 -75.5q116 128 314 128q63 0 117 -18q90 18 109 18q32 0 32 -36v-633q257 77 328 77q121 0 192 -112t71 -229q0 -212 -135.5 -322.5t-336.5 -110.5q-146 0 -214 28.5t-83 43.5v1081q0 126 -126 126q-171 0 -188.5 -111.5t-17.5 -170.5v-248
q33 1 41 1h170q8 0 15 -5.5t6 -17.5l-4 -62h-228v-618q-1 -23 -21 -27q-73 -13 -132 -13q-25 0 -25 25v633l-332 -1v-617q-1 -23 -21 -27q-73 -12 -132 -13q-25 0 -25 25v631l-115 -3l-3 67q13 1 118 8v134z" />
    <glyph glyph-name="f_h" unicode="fh" horiz-adv-x="1479" 
d="M1132 754q126 0 179 -65t53 -181l-5 -481q0 -23 -20 -27q-71 -13 -134 -13q-24 0 -24 25l5 398v15q0 166 -60.5 192.5t-119.5 26.5t-173 -49v-568q0 -23 -20 -27q-71 -13 -133 -13q-25 0 -25 25v1121q0 126 -126 126q-171 0 -188.5 -111.5t-17.5 -170.5v-253q134 6 211 6
q21 0 21 -21v-2l-4 -62l-228 -1v-617q-1 -23 -21 -27q-73 -12 -132 -13q-25 0 -25 25v631l-115 -3l-3 67q13 1 118 8v143q0 226 113.5 357t316.5 131q63 0 117 -18q90 18 109 18q32 0 32 -36v-639q224 83 299 83z" />
    <glyph glyph-name="f_f_h" unicode="ffh" horiz-adv-x="1989" 
d="M655 858q0 134 44 245q-17 -3 -37 -3t-37 3v21q0 61 -24 94.5t-89 33.5q-114 0 -151.5 -76t-37.5 -208v-244q90 1 332 4v130zM145 849q0 260 125 374t288 114q124 0 165.5 -43.5t47.5 -75.5q116 128 314 128q63 0 117 -18q90 18 109 18q32 0 32 -36v-639q225 83 299 83
q126 0 179 -65t53 -181l-5 -481q0 -23 -20 -27q-71 -12 -133 -13q-25 0 -25 25l5 398v15q0 166 -60.5 192.5t-119.5 26.5t-173 -49v-568q0 -23 -20 -27q-71 -12 -134 -13q-24 0 -24 25v1121q0 126 -126 126q-171 0 -188.5 -111.5t-17.5 -170.5v-248q33 1 41 1h170
q8 0 15 -5.5t6 -17.5l-4 -62h-228v-618q-1 -23 -21 -27q-73 -13 -132 -13q-25 0 -25 25v633l-332 -1v-617q-1 -23 -21 -27q-73 -12 -132 -13q-25 0 -25 25v631l-115 -3l-3 67q13 1 118 8v134z" />
    <glyph glyph-name="f_j" unicode="fj" horiz-adv-x="948" 
d="M793 749q30 0 30 -36v-565q0 -222 -59 -354q-42 -90 -125.5 -154.5t-204.5 -115.5l-30 55q105 65 164.5 135t68 192t8.5 216v435q0 52 -17 70t-53 18l-252 -1v-617q-1 -23 -21 -27q-73 -12 -132 -13q-25 0 -25 25v631l-115 -3l-3 67q13 1 118 8v129q0 227 115 362.5
t326 135.5q151 0 194 -51.5t43 -90.5q0 -105 -123 -105q-23 0 -43 4v30q0 68 -28.5 97t-96.5 29q-121 0 -165 -79t-44 -213v-241q258 6 340 6q100 21 130 21z" />
    <glyph glyph-name="f_f_j" unicode="ffj" horiz-adv-x="1458" 
d="M655 844q0 138 47 255q-20 -4 -38 -4t-37 3v21q0 62 -24.5 95t-90.5 33q-114 0 -151.5 -76t-37.5 -208v-241q104 2 332 4v118zM1303 749q30 0 30 -36v-565q0 -222 -59 -354q-42 -90 -125.5 -154.5t-204.5 -115.5l-30 55q105 65 164.5 135t68 192t8.5 216v435q0 52 -17 70
t-53 18h-252v-618q-1 -23 -21 -27q-73 -13 -132 -13q-25 0 -25 25v633l-332 -1v-617q-1 -23 -21 -27q-73 -12 -132 -13q-25 0 -25 25v631l-115 -3l-3 67q13 1 118 8v129q0 259 125 373q125 115 289 115q126 0 167.5 -44.5t46.5 -76.5q119 131 323 131q151 0 194 -51.5
t43 -90.5q0 -105 -123 -105q-23 0 -43 4v30q0 68 -28.5 97t-96.5 29q-121 0 -165 -79t-44 -213v-236l201 1h139q100 21 130 21z" />
    <glyph glyph-name="f_k" unicode="fk" horiz-adv-x="1381" 
d="M555 1346q83 0 137 -18q90 18 109 18q32 0 32 -36v-906l275 296q35 35 120 41.5t93 6.5q17 0 17 -16q0 -5 -8 -13l-334 -264l365 -428q5 -8 5 -13q0 -12 -16 -15q-31 -6 -97 -10.5t-78 2.5t-24 21l-318 373v-358q-1 -23 -21 -27q-73 -13 -132 -13q-25 0 -25 25v1121
q0 126 -126 126q-171 0 -188.5 -111.5t-17.5 -170.5v-253q134 6 211 6q21 0 21 -21v-2l-4 -62l-228 -1v-617q-1 -23 -21 -27q-73 -12 -132 -13q-25 0 -25 25v631l-115 -3l-3 67q13 1 118 8v143q0 226 83.5 322.5t163.5 131t163 34.5z" />
    <glyph glyph-name="f_f_k" unicode="ffk" horiz-adv-x="1891" 
d="M655 858q0 134 44 245q-17 -3 -37 -3t-37 3v21q0 61 -24 94.5t-89 33.5q-114 0 -151.5 -76t-37.5 -208v-244q90 1 332 4v130zM145 849q0 260 125 374t288 114q124 0 165.5 -43.5t47.5 -75.5q116 128 314 128q63 0 117 -18q90 18 109 18q32 0 32 -36v-906l275 296
q35 35 120 41.5t93 6.5q17 0 17 -16q0 -5 -8 -13l-334 -264l365 -428q5 -8 5 -13q0 -12 -16 -15q-31 -6 -97 -10.5t-78 2.5t-24 21l-318 373v-358q-1 -23 -21 -27q-73 -13 -132 -13q-25 0 -25 25v1121q0 126 -126 126q-171 0 -188.5 -111.5t-17.5 -170.5v-248q33 1 41 1h170
q8 0 15 -5.5t6 -17.5l-4 -62h-228v-618q-1 -23 -21 -27q-73 -13 -132 -13q-25 0 -25 25v633l-332 -1v-617q-1 -23 -21 -27q-73 -12 -132 -13q-25 0 -25 25v631l-115 -3l-3 67q13 1 118 8v134z" />
    <glyph glyph-name=".notdef" horiz-adv-x="841" 
d="M352 246q0 25 17 42t41 17t42 -17t18 -42t-18 -41.5t-42 -16.5t-41 16.5t-17 41.5zM546 796q0 48 -38 86t-88 38q-51 0 -88 -36t-47 -120l-81 13q13 115 73.5 170.5t147.5 55.5q87 1 145 -55t59 -158q0 -50 -20 -94t-81 -105q-63 -55 -73 -87t-10 -115l-75 -4l-2 28
q0 111 30 151t73 85q44 45 60 72q15 27 15 75zM759 83v1015h-676v-1015h676zM841 1180v-1180h-841v1180h841z" />
    <glyph glyph-name=".null" 
 />
    <glyph glyph-name="nonmarkingreturn" 
 />
    <glyph glyph-name="space" unicode=" " horiz-adv-x="600" 
 />
    <glyph glyph-name="space" unicode="&#xa0;" horiz-adv-x="600" 
 />
    <glyph glyph-name="exclam" unicode="!" horiz-adv-x="468" 
d="M257 186q96 0 96 -106t-117 -107q-46 0 -71 29t-25 77q0 107 117 107zM343 1181q24 0 24 -20v-5l-77 -813q-2 -17 -17 -19l-46 -3q-11 -1 -14.5 2.5t-4.5 14.5l-39 803v3q0 20 20 24q65 13 154 13z" />
    <glyph glyph-name="quotedbl" unicode="&#x22;" horiz-adv-x="621" 
d="M203 1248q38 0 38 -20q-1 -20 -3 -34l-33 -275q-11 -83 -70 -83q-11 0 -23 3l-30 357q-1 6 -1 11v19q0 22 59 22h63zM483 1248q38 0 38 -20q-1 -20 -3 -34l-33 -275q-11 -83 -70 -83q-11 0 -23 3l-30 357q-1 6 -1 11v19q0 22 59 22h63z" />
    <glyph glyph-name="numbersign" unicode="#" horiz-adv-x="806" 
d="M282 379h178l35 236l-176 -1zM574 616l-37 -237h193l-15 -72l-189 -1l-44 -281l-76 -6l43 286l-179 -1l-43 -279l-76 -6l42 285l-153 -1l-5 76h170l35 235l-164 -1l-5 76h180l38 250l83 15l-42 -265h176l38 250l83 15l-41 -265h180l-15 -72z" />
    <glyph glyph-name="dollar" unicode="$" horiz-adv-x="883" 
d="M402 599l-1 329q-102 -13 -126.5 -64.5t-24.5 -102.5q0 -96 152 -162zM477 394l-1 -346q113 20 138 78.5t25 131.5t-162 136zM602 792q0 60 -34.5 93.5t-88.5 42.5l-1 -353q149 -54 204 -98t80.5 -91t25.5 -115q0 -130 -86.5 -203t-225.5 -91v-115l-72 -15l-1 125h-8
q-187 0 -243.5 57.5t-56.5 96.5q0 60 33.5 83t67.5 23t55 -3v-29q0 -145 152 -155v372q-143 54 -196 100t-78 94t-25 143.5t83 163t214 80.5v122l79 9l-1 -128q179 -5 228 -55t49 -86q0 -55 -33.5 -77t-66.5 -22t-54 3v28z" />
    <glyph glyph-name="percent" unicode="%" horiz-adv-x="1454" 
d="M1256 272q0 249 -145 249q-128 0 -128 -216q0 -252 145 -252q128 0 128 219zM835 281q0 308 299 308q270 0 270 -293q0 -311 -299 -311q-199 0 -234.5 113.5t-35.5 182.5zM335 6l701 1008l79 -35l-703 -1009zM471 683q0 249 -145 249q-128 0 -128 -216q0 -252 145 -252
q128 0 128 219zM50 692q0 308 299 308q270 0 270 -293q0 -311 -299 -311q-199 0 -234.5 113.5t-35.5 182.5z" />
    <glyph glyph-name="ampersand" unicode="&#x26;" horiz-adv-x="1198" 
d="M335 560q-92 -84 -92 -209q0 -124 80 -202t208 -78t232 69q-310 277 -428 420zM1081 468q0 -145 -125 -277q38 -35 109.5 -98t71.5 -81.5t-78.5 -23.5t-97.5 -5t-40 18q-20 18 -45 39.5t-48 41.5q-157 -109 -384 -109q-268 0 -331 115t-63 186q0 118 56 184.5t186 156.5
q-101 138 -101 277t108 217t279 78t225.5 -59.5t54.5 -111.5q0 -106 -125 -106q-23 0 -47 3v32q0 72 -34.5 116t-92.5 44q-99 0 -145.5 -54t-46.5 -137q0 -84 45 -164t153.5 -191t324.5 -308q49 73 49 143q0 111 -118 220l1 15l155 84q104 -100 104 -245z" />
    <glyph glyph-name="quotesingle" unicode="'" horiz-adv-x="341" 
d="M203 1248q38 0 38 -20q-1 -20 -3 -34l-33 -275q-11 -83 -70 -83q-11 0 -23 3l-30 357q-1 6 -1 7v23q0 22 59 22h63z" />
    <glyph glyph-name="parenleft" unicode="(" horiz-adv-x="666" 
d="M160 432q0 288 103.5 537t297.5 379l45 -50q-158 -122 -242 -357.5t-84 -508.5q0 -428 122 -616t204 -250l-45 -50q-194 130 -297.5 379t-103.5 537z" />
    <glyph glyph-name="parenright" unicode=")" horiz-adv-x="666" 
d="M401.5 -105q-104.5 -248 -296.5 -379l-45 50q158 123 242 358t84 585t-122.5 538t-203.5 251l45 50q194 -132 297.5 -380t103.5 -536.5t-104.5 -536.5z" />
    <glyph glyph-name="asterisk" unicode="*" horiz-adv-x="772" 
d="M607 820q0 -14 -10 -21q-10 -8 -20 -13.5t-23 -11.5t-27 -13t-27 -13l-112 238l-36 -70t-43 -82.5t-36 -62.5t-25 -15q-28 0 -96 83l191 179q-198 30 -231 39q-32 10 -32 32q0 35 51 107l228 -125l-12 78q-20 127 -20 162t37 35t100 -18l-48 -257q36 18 115 58t108 49
t38 -21t15 -106l-259 -33q68 -68 98 -100t46.5 -50t22.5 -26t7 -22z" />
    <glyph glyph-name="plus" unicode="+" horiz-adv-x="805" 
d="M364 355l-319 -2l-5 76h323l-1 320l78 5l-2 -325h327l-15 -72l-312 -2l-2 -326l-71 10z" />
    <glyph glyph-name="comma" unicode="," horiz-adv-x="379" 
d="M142 -6q0 85 -37 148q-10 22 11 27q75 21 137 21q19 0 32 -31t13 -79q0 -98 -56 -183t-158 -126l-30 27q88 74 88 196z" />
    <glyph glyph-name="hyphen" unicode="-" horiz-adv-x="605" 
d="M46 441h513l-5 -92l-503 -4z" />
    <glyph glyph-name="hyphen" unicode="&#xad;" horiz-adv-x="605" 
d="M46 441h513l-5 -92l-503 -4z" />
    <glyph glyph-name="period" unicode="." horiz-adv-x="379" 
d="M80 82q0 110 121 110q48 0 73 -29.5t25 -80.5q0 -109 -120 -109q-48 0 -73.5 29t-25.5 80z" />
    <glyph glyph-name="slash" unicode="/" horiz-adv-x="532" 
d="M67 -181l363 1378l87 -17l-362 -1378z" />
    <glyph glyph-name="zero" unicode="0" horiz-adv-x="966" 
d="M701 459q0 457 -231 457q-167 0 -186 -159t-19 -236q0 -464 231 -464q205 0 205 402zM505 1001q187 0 284 -129.5t97 -369.5q0 -388 -161 -459t-260 -71q-190 0 -287.5 133t-97.5 373q0 523 425 523z" />
    <glyph glyph-name="one" unicode="1" horiz-adv-x="499" 
d="M317 986q32 0 32 -36v-923q-1 -23 -21 -27q-73 -13 -132 -13q-25 0 -25 25v790q0 64 -13 84.5t-46 20.5t-71 -4l-6 50q195 33 282 33z" />
    <glyph glyph-name="two" unicode="2" horiz-adv-x="904" 
d="M291 0q-57 0 -195 -2q-9 0 -11 11l-13 100q-1 5 -1 13t11 14q248 143 373 304.5t125 290.5t-69 157t-112 28q-94 0 -153.5 -59.5t-78.5 -174.5l-51 5q0 124 12 244q1 14 20 22q144 47 256 47q193 0 282.5 -64t89.5 -171q0 -216 -201.5 -376t-341.5 -243h356
q82 0 109 30.5t55 128.5l46 -4q0 -10 -3.5 -60.5t-5.5 -82.5t-3 -42l-9 -110q-2 -8 -10 -8q-134 2 -190 2h-287z" />
    <glyph glyph-name="three" unicode="3" horiz-adv-x="930" 
d="M232 67q0 -88 45 -139t119 -51q131 0 197 65t66 162q0 166 -87 224.5t-244 58.5h-25l-9 75h17q154 0 229.5 55t75.5 182q0 161 -80 189t-126 28q-93 0 -157 -57.5t-82 -169.5l-51 5q0 115 12 241q2 15 20 22q129 43 242 43q206 0 311.5 -60t105.5 -205t-88 -206.5
t-145 -80.5v-4q87 -15 184.5 -81.5t97.5 -216.5q0 -173 -93.5 -236.5t-168.5 -92t-167 -28.5q-169 0 -272.5 56t-103.5 152q0 50 38.5 78t74.5 28t66 -5q-2 -16 -2 -31z" />
    <glyph glyph-name="four" unicode="4" horiz-adv-x="1013" 
d="M145 240l426 9v579q-165 -198 -268 -350.5t-158 -237.5zM961 260q21 0 21 -21v-5q0 -6 -1 -13l-5 -76l-227 -1v-307q-1 -23 -21 -27q-73 -12 -132 -13q-25 0 -25 25v321l-520 -3l-11 97q188 289 306.5 440.5t242.5 292.5q18 21 136 21q24 0 24 -25l1 -712q201 6 211 6z
" />
    <glyph glyph-name="five" unicode="5" horiz-adv-x="951" 
d="M237 67q0 -91 50 -140.5t121 -49.5q128 0 196 86t68 218t-81.5 209t-217.5 77q-89 0 -218 -41l-4 3l20 543q2 24 54 13q160 -36 270 -36q168 0 273 72l28 -28q-57 -106 -158.5 -164t-231.5 -58q-74 0 -155 21l-9 -263q57 20 92 33t68.5 24t103.5 11q69 0 140.5 -31.5
t143 -111.5t71.5 -243t-121 -292.5t-337 -129.5q-140 0 -241.5 56t-101.5 152q0 76 53 90.5t75 14.5q21 0 51 -5q-2 -16 -2 -30z" />
    <glyph glyph-name="six" unicode="6" horiz-adv-x="1037" 
d="M291 545q0 -173 60 -329t201 -156q102 0 162 93.5t60 183.5q0 158 -80.5 235t-213.5 77q-77 0 -187 -32q-2 -18 -2 -36v-36zM694 1113q-74 0 -210.5 -66.5t-181.5 -360.5q104 42 171 67.5t133 25.5t135.5 -28.5t145 -105.5t75.5 -251t-127 -298t-320 -124
q-194 0 -307 150.5t-113 373.5q0 272 121 440.5t237.5 209.5t203.5 41t179 -24l-13 -60q-55 10 -129 10z" />
    <glyph glyph-name="seven" unicode="7" horiz-adv-x="924" 
d="M271 980h570l8 -11l-423 -1126q-9 -25 -58.5 -32.5t-81.5 -11.5t-55 -4t-23 15q0 8 6 19l488 1005h-437q-81 0 -109.5 -33t-54.5 -131l-46 4q0 147 17 300q2 8 10 8q134 -2 189 -2z" />
    <glyph glyph-name="eight" unicode="8" horiz-adv-x="1010" 
d="M717 903q0 90 -57.5 145.5t-170.5 55.5q-146 0 -179 -67t-33 -109q0 -77 72.5 -127.5t231.5 -123.5q136 101 136 226zM250 312q0 -113 75 -184.5t181 -71.5t173 56t67 149q0 137 -142 202.5t-205 95.5q-149 -98 -149 -247zM935 290q0 -74 -40.5 -135.5t-137 -122
t-269.5 -60.5t-295.5 80.5t-122.5 217.5t92.5 209.5t161.5 117.5q-100 54 -156.5 122.5t-56.5 155.5q0 153 125.5 233.5t282.5 80.5q158 0 265.5 -71t107.5 -184t-87 -184t-145 -111q125 -62 177.5 -117.5t75 -106.5t22.5 -125z" />
    <glyph glyph-name="nine" unicode="9" horiz-adv-x="1021" 
d="M527 362q86 0 213 40v25q0 171 -59 328t-201 157q-101 0 -159.5 -83t-58.5 -202t65.5 -192t199.5 -73zM404 232q-66 0 -130 25.5t-131.5 95.5t-67.5 241q0 172 122.5 289t317.5 117t308 -150.5t113 -373.5q0 -287 -156 -489t-430 -202q-88 0 -185 30l13 60
q54 -16 140 -16t237 70.5t181 407.5q-112 -45 -189 -75t-143 -30z" />
    <glyph glyph-name="colon" unicode=":" horiz-adv-x="379" 
d="M120 82q0 110 121 110q48 0 73 -30t25 -80q0 -109 -120 -109q-47 0 -73 29t-26 80zM120 592q0 110 121 110q48 0 73 -30t25 -80q0 -109 -120 -109q-47 0 -73 29t-26 80z" />
    <glyph glyph-name="semicolon" unicode=";" horiz-adv-x="379" 
d="M120 592q0 110 121 110q48 0 73 -30t25 -80q0 -109 -120 -109q-47 0 -73 29t-26 80zM182 -6q0 85 -37 148q-10 22 11 27q75 21 137 21q19 0 32 -31t13 -79q0 -98 -56 -183t-158 -126l-30 27q88 74 88 196z" />
    <glyph glyph-name="less" unicode="&#x3c;" horiz-adv-x="805" 
d="M724 704l33 -68l-595 -247l593 -242l-25 -72l-690 286l13 61z" />
    <glyph glyph-name="equal" unicode="=" horiz-adv-x="805" 
d="M45 493l-5 76h725l-15 -72zM45 203l-5 76h725l-15 -72z" />
    <glyph glyph-name="greater" unicode="&#x3e;" horiz-adv-x="805" 
d="M81 75l-33 68l595 247l-593 242l25 72l690 -286l-13 -61z" />
    <glyph glyph-name="question" unicode="?" horiz-adv-x="751" 
d="M316 186q96 0 96 -106t-117 -107q-46 0 -71 29t-25 77q0 107 117 107zM228 342q-32 36 -32 85q0 82 51 138t119 104q128 90 170 131t42 87q0 147 -231 147q-109 0 -193 -54q-34 56 -34 92q0 62 55.5 89.5t130.5 27.5q155 0 265 -74.5t110 -198.5q0 -123 -74 -182
t-131 -98.5t-92.5 -73.5t-35.5 -87q0 -54 56 -135q-49 -34 -97 -34q-47 0 -79 36z" />
    <glyph glyph-name="at" unicode="@" horiz-adv-x="1513" 
d="M603 219q0 -134 128 -134q49 0 129 39l3 214q-42 -3 -78.5 -5t-66.5 -7.5t-53 -15t-43 -33.5t-19 -58zM868 55q-156 -75 -256 -75q-32 0 -66 18.5t-67 60.5t-33 104q0 150 109.5 191.5t308.5 48.5l1 32q2 95 -20 129t-47.5 46.5t-88.5 12.5t-195 -46l-19 64
q196 81 281 81q84 0 127.5 -16t82.5 -65t37 -201l-4 -350q5 -1 7 -1h25q118 0 175.5 100.5t57.5 226.5q0 235 -137.5 369.5t-356.5 134.5q-265 0 -418 -165.5t-153 -431.5t166.5 -438t445.5 -172q126 0 312 62l25 -59q-210 -100 -389 -100q-327 0 -510.5 197.5t-183.5 502.5
q0 304 204.5 508.5t531.5 204.5q261 0 424 -157.5t163 -428.5q0 -201 -109 -331.5t-307 -130.5q-83 0 -93.5 7t-14.5 18z" />
    <glyph glyph-name="A" unicode="A" horiz-adv-x="1139" 
d="M328 504h375l-190 496zM15 -6q0 6 1 8l458 1098l-21 58q-2 8 -2 11q-1 15 17 18q82 14 142 14q21 0 30 -23l446 -1148q3 -8 3 -11q0 -17 -19 -20q-76 -12 -145 -12q-23 0 -29 15l-163 424l-437 -7l-154 -415q-6 -17 -67 -17q-60 1 -60 7z" />
    <glyph glyph-name="B" unicode="B" horiz-adv-x="1013" 
d="M712 874q0 121 -75.5 178t-209.5 57q-43 0 -62 -6t-19 -36v-427l38 -1q251 0 289.5 85.5t38.5 149.5zM488 71q147 0 207 68t60 150q0 153 -89.5 212t-264.5 59h-24q-24 0 -31 -1v-474q56 -14 142 -14zM454 1190q459 0 459 -279q0 -145 -88 -207.5t-145 -81.5v-4
q146 -26 214.5 -109t68.5 -187t-92 -220t-368 -116l-319 14q-24 0 -24 25v990q0 50 -22 66.5t-50 16.5t-51 -3l-6 55q251 40 423 40z" />
    <glyph glyph-name="C" unicode="C" horiz-adv-x="1181" 
d="M701 -29q-274 0 -446.5 174t-172.5 449q0 276 187.5 435.5t484.5 159.5q131 0 299 -36q18 -4 21 -22q4 -54 5 -81.5t4 -80.5t3 -81l-50 -5q-11 115 -104.5 170t-208.5 55q-216 0 -326.5 -131t-110.5 -361q0 -231 135 -386.5t387 -155.5q133 0 296 63l27 -62
q-136 -76 -267 -90t-163 -14z" />
    <glyph glyph-name="D" unicode="D" horiz-adv-x="1282" 
d="M909.5 240.5q97.5 103.5 97.5 342.5t-136.5 380.5t-379.5 141.5h-51q-45 0 -69.5 -7.5t-24.5 -40.5v-977q68 -16 173 -16t199 36.5t191.5 140zM496 -19l-312 19q-24 0 -24 25v987q0 51 -22 67.5t-50 16.5t-51 -3l-6 54q248 42 456 42q725 0 725 -576
q0 -295 -198.5 -463.5t-517.5 -168.5z" />
    <glyph glyph-name="E" unicode="E" horiz-adv-x="975" 
d="M763 623q0 -29 -7 -83l-410 14v-399q0 -48 9.5 -59t63.5 -11h129q80 0 130 3.5t85 23t61.5 62t59.5 120.5l50 -11q0 -40 -20.5 -131t-31.5 -123t-47 -32l-485 3h-166q-24 0 -24 25v961q0 51 -23 67.5t-51 16.5t-49 -3l-6 55q189 36 292 36h364q63 0 153 2q16 0 18 -14
t3 -37.5t2 -50.5t4 -83t3 -86l-50 -5q-33 136 -69.5 160.5t-78 28t-107.5 3.5h-176q-32 0 -37.5 -5.5t-5.5 -32.5v-405l389 19q28 0 28 -29z" />
    <glyph glyph-name="F" unicode="F" horiz-adv-x="885" 
d="M753 581q0 -29 -7 -83l-400 14v-485q0 -23 -20 -27q-73 -12 -140 -13q-26 0 -26 25v974q0 51 -23 67.5t-51 16.5t-49 -3l-6 55q189 36 292 36h356q63 0 153 2q16 0 18 -14t3.5 -37t3 -50t2.5 -55.5t1.5 -52.5t1 -41t0.5 -21l-50 -5q-33 136 -69.5 160.5t-78 28
t-107.5 3.5h-168q-32 0 -37.5 -5.5t-5.5 -32.5v-447l379 19q28 0 28 -29z" />
    <glyph glyph-name="G" unicode="G" horiz-adv-x="1257" 
d="M1086 540q32 0 32 -32v-472q0 -11 -11 -16q-160 -49 -332 -49q-326 0 -511 161t-185 450t192 448t498 159q145 0 307 -36q18 -3 21 -22q4 -54 5 -81.5t4 -80.5t3 -81l-50 -5q-15 117 -109 171t-213 54q-225 0 -339.5 -129t-114.5 -369t143 -394t410 -154q55 0 98 5v314
q0 57 -17 74t-62 17l-30 -1l-5 56q176 13 266 13z" />
    <glyph glyph-name="H" unicode="H" horiz-adv-x="1275" 
d="M314 1181q32 0 32 -32v-486h583v468q0 23 20 27q65 13 142 13q24 0 24 -25v-1119q-1 -23 -21 -27q-73 -13 -139 -13q-26 0 -26 25v570l-583 -7v-548q0 -23 -20 -27q-73 -12 -140 -13q-26 0 -26 25v990q0 91 -71 91q-30 0 -52 -3l-6 55q194 36 283 36z" />
    <glyph glyph-name="I" unicode="I" horiz-adv-x="506" 
d="M314 1181q32 0 32 -32v-1122q0 -23 -20 -27q-73 -12 -140 -13q-26 0 -26 25v990q0 91 -71 91q-30 0 -52 -3l-6 55q194 36 283 36z" />
    <glyph glyph-name="J" unicode="J" horiz-adv-x="465" 
d="M293 1181q32 0 32 -32v-978q0 -270 -75.5 -406t-305.5 -230l-29 62q154 83 186 184t35.5 182t3.5 181v858q0 91 -71 91q-30 0 -52 -3l-6 55q194 36 282 36z" />
    <glyph glyph-name="K" unicode="K" horiz-adv-x="1102" 
d="M314 1181q32 0 32 -32v-534l492 515q26 29 62 33.5t65 6t51 1.5t22 -18q0 -8 -6 -14l-496 -467l531 -642q5 -8 5 -13q0 -13 -19 -17q-64 -13 -171 -13q-28 0 -41 18l-495 609v-587q0 -23 -20 -27q-73 -12 -140 -13q-26 0 -26 25v990q0 91 -71 91q-30 0 -52 -3l-6 55
q194 36 283 36z" />
    <glyph glyph-name="L" unicode="L" horiz-adv-x="920" 
d="M314 1181q32 0 32 -32v-994q0 -48 9.5 -59t63.5 -11h99q80 0 130.5 4t85.5 25t62 64t60 121l50 -11q0 -31 -21.5 -129t-32.5 -130t-47 -32q-225 3 -455 3h-166q-24 0 -24 25v977q0 91 -71 91q-30 0 -52 -3l-6 55q194 36 283 36z" />
    <glyph glyph-name="M" unicode="M" horiz-adv-x="1535" 
d="M182 5q-4 -18 -68 -18t-64 9t1 12l195 1062l-32 88q-2 6 -2 10q0 16 18 19q84 14 139 14q23 0 33 -23l358 -943l367 840l-10 83q-1 1 -1 8q0 16 18 20q73 14 142 15q23 0 26 -23l136 -1146l1 -4v-7q0 -19 -18 -22q-72 -12 -120 -12t-49 15l-106 912l-373 -910
q-7 -17 -101 -17q-20 0 -25 15l-350 924z" />
    <glyph glyph-name="N" unicode="N" horiz-adv-x="1220" 
d="M1073 1177q16 0 16 -15l-24 -975v-183q0 -12 -17 -14q-88 -8 -96 -2t-13 14l-696 924l25 -920q0 -20 -122 -20q-16 0 -16 15l25 1042l-82 112q-4 4 -4 11q0 13 17 17q64 15 121 15q58 0 64 -6.5t14 -16.5l691 -917l-25 897q0 22 122 22z" />
    <glyph glyph-name="O" unicode="O" horiz-adv-x="1350" 
d="M662 1105q-191 0 -283 -138.5t-92 -358.5t102 -386.5t296 -166.5q195 0 287.5 142.5t92.5 362.5t-71.5 334.5t-149.5 162.5t-182 48zM1117.5 1032.5q152.5 -156.5 152.5 -444.5t-169.5 -452.5t-442.5 -164.5t-425.5 160t-152.5 449t168.5 449t442.5 160t426.5 -156.5z
" />
    <glyph glyph-name="P" unicode="P" horiz-adv-x="963" 
d="M454 1190q484 0 484 -322q0 -193 -148.5 -285.5t-377.5 -101.5l-9 57q167 13 248.5 79.5t81.5 205.5q0 138 -81.5 212t-214.5 74q-45 0 -68 -5.5t-23 -38.5v-1038q0 -23 -20 -27q-73 -12 -140 -13q-26 0 -26 25v1001q0 51 -22 67.5t-50 16.5t-51 -3l-6 55q241 41 423 41z
" />
    <glyph glyph-name="Q" unicode="Q" horiz-adv-x="1350" 
d="M420.5 1027.5q-135.5 -77.5 -135.5 -419.5q0 -220 102.5 -386.5t297.5 -166.5t287.5 143t92.5 363t-102.5 382t-302.5 162q-104 0 -239.5 -77.5zM654 -29q-261 0 -417.5 162t-156.5 449t168.5 447t442.5 160t426.5 -156.5t152.5 -433.5q0 -230 -113.5 -382t-308.5 -206
v-8q108 -12 171 -45.5t96 -126.5l14 -41q37 -111 61.5 -137.5t46.5 -32.5t54 -6l5 -52q-85 -18 -141 -18q-93 0 -135 50.5t-86 169.5l-24 64q-45 119 -129.5 131t-126.5 12z" />
    <glyph glyph-name="R" unicode="R" horiz-adv-x="1077" 
d="M814.5 14.5q-37.5 34.5 -62.5 124.5l-71 244q-29 99 -83 127.5t-189 32.5l-9 57q160 10 237.5 74t77.5 190t-80 184.5t-209 58.5q-40 0 -60 -6.5t-20 -36.5v-1037q0 -23 -20 -27q-73 -12 -140 -13q-26 0 -26 25v1003q0 50 -22 66.5t-50 16.5t-51 -3l-6 55q235 40 427 40
q458 0 458 -282q0 -222 -253 -313v-6q155 -31 199 -169l74 -229q29 -92 53 -116.5t78 -24.5l3 -52q-86 -18 -152 -18t-103.5 34.5z" />
    <glyph glyph-name="S" unicode="S" horiz-adv-x="924" 
d="M474 1098q-103 0 -170.5 -51.5t-67.5 -153.5q0 -119 111.5 -163t168.5 -66q159 -60 245 -129t86 -209q0 -246 -229.5 -317.5t-513.5 -6.5q-18 4 -21 24q-11 96 -11 258l50 5q13 -116 90 -174t194 -58q176 0 218.5 77t42.5 129q0 88 -63 129.5t-167 82.5q-105 42 -242 105
t-137 253t127.5 271.5t316.5 81.5q116 0 242 -31q18 -4 21 -24q12 -105 12 -239l-51 -5q-29 158 -116.5 184.5t-135.5 26.5z" />
    <glyph glyph-name="T" unicode="T" horiz-adv-x="1092" 
d="M715 1158q147 0 329 4q14 0 16 -14t3.5 -39t3 -53.5t2.5 -58.5t1.5 -55t1 -43t0.5 -22l-50 -5q-33 146 -69.5 172.5t-78 30t-107.5 3.5h-128v-1051q-1 -23 -21 -27q-73 -13 -139 -13q-26 0 -26 25v1066h-123q-65 0 -107.5 -3.5t-81.5 -30.5t-71 -172l-50 5q0 23 2 56.5
t5.5 102t9.5 111.5q1 15 18 15q182 -4 327 -4h333z" />
    <glyph glyph-name="U" unicode="U" horiz-adv-x="1225" 
d="M304 1181q32 0 32 -32v-784q-3 -209 102 -238.5t161 -29.5q118 0 280 80v954q0 23 20 27q65 13 142 13q24 0 24 -25v-1119q-1 -23 -21 -27q-73 -13 -133 -13q-24 0 -25 25l-7 82q-219 -121 -407 -121q-222 0 -272 112.5t-50 190.5v726q0 91 -70 91q-29 0 -53 -3l-6 55
q194 36 283 36z" />
    <glyph glyph-name="V" unicode="V" horiz-adv-x="1149" 
d="M-29 1145q176 36 266 36q17 0 32 -36l357 -931h4l322 915q13 42 135 42q24 0 24 -12q0 -4 -5 -17l-475 -1135q-8 -17 -15 -18t-18.5 -2t-24 -1.5t-24 -1t-16.5 -0.5q-14 0 -20 16l-394 1015q-30 79 -92 79q-25 0 -50 -4z" />
    <glyph glyph-name="W" unicode="W" horiz-adv-x="1668" 
d="M24 1094q-26 0 -49 -4l-6 55q176 36 229 36q52 0 60 -9.5t13 -26.5l295 -922h4l218 661l-81 253q-9 23 29 31q60 12 101 13q42 0 48 -5.5t10 -17.5l304 -944h4l268 915q7 22 27 28q46 14 88 14t42 -9t-4 -20l-410 -1134q-6 -16 -17 -18q-99 -11 -110 -5.5t-14 15.5
l-236 731l-253 -723q-6 -16 -17 -18q-53 -6 -81 -6t-34 3t-9 13l-326 1015q-27 79 -93 79z" />
    <glyph glyph-name="X" unicode="X" horiz-adv-x="988" 
d="M42 1094q-26 0 -49 -4l-6 55q176 36 224 36t55.5 -8.5t17.5 -25.5l236 -400l243 383q0 1 0.5 1t4.5 6t10.5 12t34.5 14t71 8q42 0 42 -11t-6 -18l-341 -495l365 -617q4 -4 4 -12q0 -16 -18 -19q-74 -12 -151 -12q-24 0 -34 16l-290 489l-289 -462q-15 -23 -46.5 -32
t-101.5 -9q-18 1 -18 11t6 18l389 575l-254 429q-44 72 -99 72z" />
    <glyph glyph-name="Y" unicode="Y" horiz-adv-x="986" 
d="M186 1181q46 0 55 -9t18 -26l284 -510l242 493q12 24 44 33t96 9q20 0 20 -12q0 -4 -2 -8t-4 -9l-359 -602v-513q0 -23 -20 -27q-73 -13 -140 -13q-26 0 -26 25v510l-277 494q-44 80 -89 80q-20 0 -53 -5l-6 55q171 35 217 35z" />
    <glyph glyph-name="Z" unicode="Z" horiz-adv-x="1029" 
d="M933 -2q-182 4 -333 4h-77l-475 -4q-8 0 -13 25t-5 31t4 10l694 1014h-361q-65 0 -107.5 -3.5t-81.5 -30.5t-71 -172l-50 5q0 23 2 56.5t3.5 63.5t5 79t5.5 68q2 18 17 18q182 -4 331 -4h75l457 4q6 0 9 -5q10 -28 10 -35q0 -8 -2 -18l-703 -1022h389q65 0 108 5t83 35
t72 176l50 -5q-1 -140 -11 -213t-13.5 -77.5t-11.5 -4.5z" />
    <glyph glyph-name="bracketleft" unicode="[" horiz-adv-x="643" 
d="M478 -474l-287 10v1782l297 10l-10 -93l-199 3v-1622l209 3z" />
    <glyph glyph-name="backslash" unicode="\" horiz-adv-x="532" 
d="M377 -198l-362 1378l87 17l363 -1378z" />
    <glyph glyph-name="bracketright" unicode="]" horiz-adv-x="643" 
d="M165 1328l287 -10v-1782l-297 -10l10 93l199 -3v1622l-209 -3z" />
    <glyph glyph-name="asciicircum" unicode="^" horiz-adv-x="805" 
d="M357 1180l79 9l295 -607l-81 -28l-252 525l-257 -527l-76 37z" />
    <glyph glyph-name="underscore" unicode="_" horiz-adv-x="600" 
d="M-70 -160h740v-80h-740v80z" />
    <glyph glyph-name="grave" unicode="`" horiz-adv-x="500" 
d="M49 1165q0 25 135 25q26 0 33 -27l80 -329l-7 -8h-54l-183 327q-4 7 -4 12z" />
    <glyph glyph-name="a" unicode="a" horiz-adv-x="811" 
d="M228 218q0 -84 51 -106t75 -22q78 0 164 41l3 224q-47 -3 -88 -5.5t-123 -14.5t-82 -117zM349 652q-70 0 -220 -48l-22 67q210 85 346 85t193 -68.5t55 -225.5l-5 -326q-1 -40 7 -76q9 -36 9 -43q0 -30 -147 -30q-19 0 -25 24l-13 48q-177 -79 -272 -79q-96 0 -149.5 63
t-53.5 129q0 221 203 235t267 16l1 34q2 98 -22 133.5t-53 48.5t-99 13z" />
    <glyph glyph-name="b" unicode="b" horiz-adv-x="969" 
d="M519 646q-56 0 -201 -44v-420q0 -88 71.5 -102.5t99.5 -14.5q243 0 243 250q0 126 -56.5 228.5t-156.5 102.5zM140 1154q0 92 -63 92q-29 0 -51 -3l-6 48q202 55 266 55q32 0 32 -36v-633q257 77 326 77q121 0 193 -111.5t72 -228.5q0 -213 -135.5 -323.5t-336.5 -110.5
q-146 0 -214 28.5t-83 43.5v1102z" />
    <glyph glyph-name="c" unicode="c" horiz-adv-x="786" 
d="M751 80q-225 -100 -387 -100q-54 0 -115 30t-125 107t-64 244t129 280t321 113q141 0 175.5 -52t34.5 -100t-35 -71t-72 -23t-59 3v19q0 68 -21.5 99.5t-85.5 31.5q-112 0 -161 -65.5t-49 -152.5t18 -145.5t54.5 -102.5t92.5 -69t138 -25t188 35z" />
    <glyph glyph-name="d" unicode="d" horiz-adv-x="956" 
d="M653 552q1 117 -189 117q-46 0 -135.5 -37.5t-89.5 -225.5q0 -117 54.5 -216.5t174.5 -99.5q70 0 185 49v413zM653 1154q0 92 -63 92q-29 0 -51 -3l-6 48q202 55 266 55q32 0 32 -36v-1168q0 -27 16 -123q0 -32 -149 -32q-19 0 -25 24l-15 56q-227 -87 -303 -87
q-133 0 -213 111t-80 226q0 210 134 323.5t338 113.5q60 0 119 -9v409z" />
    <glyph glyph-name="e" unicode="e" horiz-adv-x="801" 
d="M515.5 620q-33.5 39 -87.5 39q-96 0 -142.5 -60t-48.5 -152l307 22q5 23 5 68q0 44 -33.5 83zM766 85q-219 -105 -397 -105q-55 0 -117.5 30.5t-127 107t-64.5 242.5t125 280t303 114q111 0 174 -64.5t63 -168.5q0 -44 -17 -110l-470 -25q13 -201 123.5 -243t195.5 -42
t187 40z" />
    <glyph glyph-name="f" unicode="f" horiz-adv-x="551" 
d="M145 859q0 204 70.5 310.5t157.5 142t141 35.5q102 0 165.5 -34.5t63.5 -101.5q0 -101 -119 -101q-20 0 -42 3v21q0 65 -19.5 95.5t-75.5 30.5q-98 0 -131 -75t-33 -207v-254q134 6 176 6q43 0 50 -5.5t6 -17.5l-4 -62l-228 -1v-617q-1 -23 -21 -27q-73 -12 -132 -13
q-25 0 -25 25v631l-115 -3l-3 67q13 1 118 8v144z" />
    <glyph glyph-name="g" unicode="g" horiz-adv-x="894" 
d="M515.5 328.5q37.5 49.5 37.5 106.5q0 106 -41.5 171.5t-119.5 65.5t-115 -50t-37 -107q0 -58 9 -97t40.5 -89t109.5 -50q79 0 116.5 49.5zM170 -185q0 -81 84 -118.5t152 -37.5q122 0 197.5 34.5t75.5 109.5q0 93 -97.5 101t-186.5 8t-171 24q-54 -74 -54 -121zM728 501
q0 -145 -97.5 -224.5t-251.5 -79.5q-63 0 -103 13q-15 -19 -29.5 -38t-14.5 -39q0 -69 256 -69q338 0 338 -190q0 -101 -105 -198.5t-226 -120.5t-165 -23q-105 0 -201.5 56t-96.5 143q0 86 50.5 145.5t75.5 87.5q-43 21 -55.5 55.5t-12.5 48.5q0 56 120 168
q-69 35 -107.5 96.5t-38.5 131.5q0 134 98 212t232 78q135 0 219 -56q198 51 223 51q26 0 26 -29t-7 -83l-191 17q64 -73 64 -153z" />
    <glyph glyph-name="h" unicode="h" horiz-adv-x="964" 
d="M140 1154q0 92 -63 92q-29 0 -51 -3l-6 48q202 55 266 55q32 0 32 -36v-639q225 83 299 83q126 0 179 -65t53 -181l-5 -481q0 -23 -20 -27q-71 -13 -133 -13q-25 0 -25 25l5 398v15q0 166 -60.5 192.5t-119.5 26.5t-173 -49v-568q0 -23 -20 -27q-71 -13 -133 -13
q-25 0 -25 25v1142z" />
    <glyph glyph-name="i" unicode="i" horiz-adv-x="458" 
d="M248 1161q91 1 91 -101t-111 -102q-45 0 -69 27t-24 75q0 101 113 101zM301 749q32 0 32 -36v-686q-1 -23 -21 -27q-73 -12 -132 -13q-25 0 -25 25v545q0 53 -17 72.5t-48 19.5t-52 -4l-6 48q202 56 269 56z" />
    <glyph glyph-name="j" unicode="j" horiz-adv-x="458" 
d="M248 1161q91 1 91 -101t-111 -102q-45 0 -69 27t-24 75q0 101 113 101zM301 749q32 0 32 -36v-565q0 -222 -59 -354q-42 -90 -125.5 -154.5t-204.5 -115.5l-30 55q105 65 164.5 135t68 192t8.5 216v435q0 53 -17 72.5t-48 19.5t-52 -4l-6 48q202 56 269 56z" />
    <glyph glyph-name="k" unicode="k" horiz-adv-x="866" 
d="M140 1154q0 92 -63 92q-29 0 -51 -3l-6 48q202 55 266 55q32 0 32 -36v-906l275 296q35 35 120 41.5t93 6.5q17 0 17 -16q0 -5 -8 -13l-334 -264l365 -428q5 -8 5 -13q0 -27 -162 -27q-32 0 -53 25l-318 373v-358q0 -23 -20 -27q-73 -12 -133 -13q-25 0 -25 25v1142z" />
    <glyph glyph-name="l" unicode="l" horiz-adv-x="443" 
d="M140 1154q0 92 -63 92q-29 0 -51 -3l-6 48q202 55 266 55q32 0 32 -36v-1283q0 -23 -20 -27q-73 -12 -133 -13q-25 0 -25 25v1142z" />
    <glyph glyph-name="m" unicode="m" horiz-adv-x="1480" 
d="M671 425q0 219 -151 219q-79 0 -187 -49v-568q0 -23 -20 -27q-71 -12 -133 -13q-25 0 -25 25v545q0 53 -17 72.5t-48 19.5t-52 -4l-6 48q202 56 265 56q30 0 33 -36l3 -43q210 84 308 84q126 0 174 -94q208 94 379 94t171 -246l-5 -481q0 -23 -20 -27q-71 -13 -134 -13
q-24 0 -24 25l5 398v15q0 165 -61 191.5t-89 26.5q-93 0 -198 -51q10 -36 10 -94l-5 -471q0 -23 -20 -27q-71 -13 -133 -13q-25 0 -25 25l5 398v15z" />
    <glyph glyph-name="n" unicode="n" horiz-adv-x="979" 
d="M297 749q30 0 33 -36l3 -42q225 83 299 83q126 0 179 -65t53 -181l-5 -481q0 -23 -20 -27q-71 -13 -134 -13q-24 0 -24 25l5 398v15q0 166 -60.5 192.5t-119.5 26.5t-173 -49v-568q0 -23 -20 -27q-71 -12 -133 -13q-25 0 -25 25v545q0 53 -17 72.5t-48 19.5t-52 -4l-6 48
q202 56 265 56z" />
    <glyph glyph-name="o" unicode="o" horiz-adv-x="910" 
d="M620 142.5q40 74.5 40 155.5q0 158 -56 263t-165 105q-108 0 -148.5 -76t-40.5 -156t12 -140.5t56.5 -143t152.5 -82.5q109 0 149 74.5zM65 366q0 170 114.5 279t286.5 109t275.5 -106.5t103.5 -276.5t-114.5 -280.5t-292.5 -110.5q-165 0 -269 108t-104 278z" />
    <glyph glyph-name="p" unicode="p" horiz-adv-x="984" 
d="M524 646q-63 0 -191 -51v-418q0 -80 68 -96t103 -16q243 0 243 250q0 126 -56.5 228.5t-166.5 102.5zM477 -20q-76 0 -144 14v-417q0 -23 -20 -27q-71 -12 -133 -13q-25 0 -25 25v995q0 53 -17 72.5t-48 19.5t-52 -4l-6 48q202 56 265 56q30 0 33 -36l3 -43
q242 84 317 84q128 0 201 -111t73 -228t-38.5 -196t-102.5 -132.5t-147 -80t-159 -26.5z" />
    <glyph glyph-name="q" unicode="q" horiz-adv-x="954" 
d="M651 552q1 117 -187 117q-105 0 -166 -71t-61 -191t54.5 -218.5t174.5 -98.5q70 0 185 49v413zM797 749q32 0 32 -36v-1136q0 -23 -20 -27q-71 -12 -133 -13q-25 0 -25 25v504q-228 -86 -301 -86q-132 0 -211 111.5t-79 225.5q0 209 132 323t331 114q72 0 159 -24
q91 19 115 19z" />
    <glyph glyph-name="r" unicode="r" horiz-adv-x="706" 
d="M301 749q32 0 32 -36v-51q165 92 262 92q51 0 81 -33t30 -67q0 -59 -32 -92.5t-91 -33.5h-21q-12 0 -22 2v22q0 83 -66 83q-58 0 -141 -46v-562q-1 -23 -21 -27q-73 -12 -132 -13q-25 0 -25 25v545q0 53 -17 72.5t-48 19.5t-52 -4l-6 48q202 56 269 56z" />
    <glyph glyph-name="s" unicode="s" horiz-adv-x="706" 
d="M498.5 637q-30.5 37 -117.5 37t-111.5 -34t-24.5 -71.5t43 -64.5t111 -52q132 -49 194.5 -98.5t62.5 -124.5q0 -129 -107.5 -189t-218.5 -60t-166.5 24.5t-81.5 52.5t-26 69q0 93 117 93q22 0 38 -3v-17q0 -66 31.5 -101.5t113.5 -35.5t104.5 36.5t22.5 64.5t-15.5 49.5
t-41 38t-58.5 30t-71 27.5q-108 41 -167 87t-59 148t103.5 157t216.5 55t197 -26q8 -2 8 -8q8 -68 8 -206l-49 -4q-26 89 -56.5 126z" />
    <glyph glyph-name="t" unicode="t" horiz-adv-x="614" 
d="M138 869q0 37 20 45q109 39 136 39q22 0 22 -25v-204q134 6 211 6q21 0 21 -21v-2l-4 -62l-228 -1v-425q0 -128 130 -128q60 0 139 30l21 -61q-179 -80 -264 -80q-143 0 -173.5 82.5t-30.5 135.5v445l-115 -3l-3 67q13 1 118 8v154z" />
    <glyph glyph-name="u" unicode="u" horiz-adv-x="983" 
d="M511 91q59 0 169 48v418q0 53 -17 72.5t-49 19.5q-31 0 -51 -4l-6 48q202 56 269 56q32 0 32 -36v-571q0 -27 16 -123q0 -15 -16 -19q-64 -13 -104 -13t-45.5 6t-8.5 18l-15 56q-227 -87 -301 -87q-125 0 -178 65.5t-53 180.5l5 331q2 92 -65 92q-31 0 -52 -4l-6 48
q202 56 269 56q32 0 32 -36l-5 -389v-15q0 -165 60.5 -191.5t119.5 -26.5z" />
    <glyph glyph-name="v" unicode="v" horiz-adv-x="823" 
d="M-24 693q188 55 258 55q17 0 32 -36l193 -498h4l187 487q9 23 28 29q66 18 99 18t33 -10t-5 -19l-340 -712q-7 -16 -17 -18q-54 -10 -63.5 -4.5t-14.5 15.5l-249 570q-33 79 -89 79q-26 0 -50 -4z" />
    <glyph glyph-name="w" unicode="w" horiz-adv-x="1288" 
d="M-21 693q188 55 258 55q19 0 32 -36l178 -498h4l183 488q8 20 20 23q13 3 22.5 4t18.5 1.5t16 1t13 0.5q14 0 22 -20l185 -498h4l172 487q7 22 27 28q65 19 119 19q14 0 14 -8.5t-5 -20.5l-323 -712q-8 -17 -18 -19q-57 -8 -66 -3t-13 15l-191 504l-195 -497
q-6 -16 -14 -17.5t-16.5 -2.5t-17.5 -1.5t-17 -1t-13 -0.5q-14 0 -20 16l-232 571q-34 78 -92 78q-26 0 -49 -4z" />
    <glyph glyph-name="x" unicode="x" horiz-adv-x="788" 
d="M61 653q-25 0 -50 -4l-6 48q174 51 236 51q25 0 43 -25l157 -229l152 206q17 23 60.5 35.5t97.5 12.5q17 0 17 -14q0 -7 -7 -15l-262 -309l257 -375q5 -8 5 -15q0 -17 -24.5 -19.5t-35.5 -3.5l-45 -5q-78 -11 -91 8l-194 281l-179 -245q-17 -23 -62 -36t-100 -13
q-19 0 -19 14q0 7 7 15l296 346l-151 220q-49 71 -102 71z" />
    <glyph glyph-name="y" unicode="y" horiz-adv-x="817" 
d="M-24 693q188 55 258 55q17 0 32 -36l193 -498h4l187 487q9 23 28 29q66 18 99 18t33 -10t-20 -50t-59 -118.5t-143 -293.5t-159 -348q-54 -133 -112.5 -264.5t-216.5 -131.5q-51 0 -82.5 29.5t-31.5 70.5t24 66q42 -24 79 -24q70 0 121.5 44.5t101.5 153.5l58 128
l-249 570q-33 79 -89 79q-26 0 -50 -4z" />
    <glyph glyph-name="z" unicode="z" horiz-adv-x="818" 
d="M281 733h261q52 0 182 2q6 0 9 -5q10 -28 10 -35q0 -8 -2 -18l-459 -602h255q106 0 130 65t35 103l49 -4q0 -107 -14 -233q-2 -8 -10 -8q-134 2 -190 2h-275q-55 0 -189 -2q-8 0 -13 26t-5 30t3 9l451 595h-233q-103 0 -123.5 -59t-31.5 -96l-49 4q0 94 14 220q2 8 10 8
q132 -2 185 -2z" />
    <glyph glyph-name="braceleft" unicode="{" horiz-adv-x="643" 
d="M120 350v164h137q-10 311 -100 691q219 24 282 183h17q12 -33 12 -76q0 -91 -59 -157.5t-171 -78.5q85 -338 85 -649t-85 -649q110 -12 170 -78t60 -158q0 -43 -12 -76h-17q-80 161 -282 183q89 374 100 701h-137z" />
    <glyph glyph-name="bar" unicode="|" horiz-adv-x="188" 
d="M50 -485v1819l88 7v-1819z" />
    <glyph glyph-name="braceright" unicode="}" horiz-adv-x="623" 
d="M523 514v-164h-137q11 -337 100 -701q-205 -23 -282 -183h-17q-12 33 -12 76q0 92 60 158t170 78q-85 338 -85 649t85 649q-167 18 -198.5 105t-31.5 131t12 76h17q63 -159 282 -183q-68 -288 -82.5 -444.5t-17.5 -246.5h137z" />
    <glyph glyph-name="asciitilde" unicode="~" horiz-adv-x="805" 
d="M609 381q66 0 148 65l6 -2l-7 -74q-76 -69 -175 -69q-62 0 -147 36t-131 52.5t-107 16.5t-144 -70h-7l-5 77q82 71 161 71t163.5 -35.5t131.5 -51.5t113 -16z" />
    <glyph glyph-name="exclamdown" unicode="&#xa1;" horiz-adv-x="468" 
d="M211 541q-96 1 -96 107t117 106q46 0 71 -29t25 -77q0 -107 -117 -107zM101 -434v5l77 813q2 17 17 19l46 3q11 1 14.5 -2.5t4.5 -14.5l39 -803v-3q0 -21 -21 -25q-75 -12 -150 -12q-27 0 -27 20z" />
    <glyph glyph-name="cent" unicode="&#xa2;" horiz-adv-x="796" 
d="M247 498q0 -211 163 -269l-2 504q-118 -26 -139.5 -109t-21.5 -126zM684 790q63 -31 63 -103q0 -94 -122 -94h-16q-6 0 -16 2v18q0 59 -21 89t-88 36l-2 -527q30 -4 94 -4t170 35l20 -51q-140 -62 -285 -86v-173l-70 -15l-1 180h-2q-146 0 -237 96.5t-91 241.5
q0 146 91 244.5t237 129.5v181l77 9l-1 -180q24 2 80 2q57 0 120 -31z" />
    <glyph glyph-name="sterling" unicode="&#xa3;" horiz-adv-x="943" 
d="M617 0h-137l-406 -1l-12 66q128 42 143.5 110.5t15.5 106.5t-14 151l-115 -3l-3 67l108 7q-6 50 -6 120t26.5 143.5t105 154.5t267.5 81q137 0 177.5 -48.5t40.5 -82.5q0 -107 -119 -107h-14q-4 0 -14 2v31q0 127 -114 127q-153 0 -168 -83t-15 -129l14 -199q198 6 222 6
q25 0 32 -5.5t6 -17.5l-4 -62l-254 -1q-6 -175 -114 -288h362q83 0 110 27t54 122l46 -4q0 -11 -3.5 -59t-5.5 -79.5t-6 -79t-6 -61.5t-10 -14q-134 2 -190 2z" />
    <glyph glyph-name="currency" unicode="&#xa4;" horiz-adv-x="931" 
d="M282.5 268.5q71.5 -77.5 183.5 -77.5t183.5 77.5t71.5 188.5t-71.5 189t-183.5 78t-183.5 -78t-71.5 -189t71.5 -188.5zM106 453q0 124 71 218l-107 107l58 66l111 -111q97 78 224 78t224 -74l106 107l68 -59l-112 -111q75 -94 75 -218q0 -125 -83 -227l118 -116l-72 -46
l-107 106q-96 -68 -218 -68q-123 0 -219 73l-117 -118l-55 60l115 113q-80 96 -80 220z" />
    <glyph glyph-name="yen" unicode="&#xa5;" horiz-adv-x="958" 
d="M209 1001q48 0 56.5 -9.5t17.5 -24.5l249 -422l205 405q13 23 29 28q43 13 113 13q17 0 17 -13q0 -6 -5 -14l-301 -474h231l-15 -72l-238 -2v-112h253l-15 -72l-238 -2v-205q0 -23 -23 -26q-64 -12 -132 -12q-23 0 -23 24v218l-240 -1l-5 76h245v111l-240 -1l-5 76h217
l-214 354q-25 42 -46 59t-49 17t-41 -4l-6 51q155 34 203 34z" />
    <glyph glyph-name="brokenbar" unicode="&#xa6;" horiz-adv-x="528" 
d="M220 660v520l88 7v-520zM220 -30v520l88 7v-520z" />
    <glyph glyph-name="section" unicode="&#xa7;" horiz-adv-x="932" 
d="M194 553q0 -106 83.5 -153.5t168 -77t135.5 -55.5q69 51 69 142t-79.5 136t-165 75.5t-137.5 56.5q-74 -42 -74 -124zM637 232q99 -73 99 -209t-106.5 -208t-258.5 -72t-218.5 52.5t-66.5 120.5t46 80.5t68 12.5t42 -3v-30q0 -79 43.5 -120.5t101.5 -41.5q101 0 155.5 49
t54.5 130q0 109 -100.5 148.5t-150.5 57.5q-137 49 -211.5 108t-74.5 177q0 149 155 224q-112 77 -112 213t98.5 200.5t256.5 64.5t210.5 -52t52.5 -88q0 -55 -34.5 -78t-70.5 -23q-37 0 -50 4v28q0 67 -42.5 103t-90.5 36q-89 0 -141.5 -39t-52.5 -100q0 -62 22 -96
t62.5 -61.5t133.5 -61.5q92 -34 208.5 -84t116.5 -204q0 -155 -145 -238z" />
    <glyph glyph-name="dieresis" unicode="&#xa8;" horiz-adv-x="500" 
d="M315 1057q0 97 109 97q43 0 65.5 -26t22.5 -71q0 -99 -107 -99q-43 0 -66.5 27t-23.5 72zM-12 1057q0 97 109 97q43 0 65.5 -26t22.5 -71q0 -99 -107 -99q-43 0 -66.5 27t-23.5 72z" />
    <glyph glyph-name="copyright" unicode="&#xa9;" horiz-adv-x="1439" 
d="M1005 328q-113 -78 -295 -78q-52 0 -121.5 26t-146.5 98.5t-77 227.5t112 244.5t290 89.5q80 0 179 -26q14 -6 16 -18t3 -44l3 -58q3 -44 3 -81l-38 -4q-6 86 -57.5 128.5t-115.5 42.5q-120 0 -180.5 -69t-60.5 -191q0 -123 76.5 -205.5t221.5 -82.5q76 0 167 48z
M1254 590.5q0 239.5 -150 389.5t-386 150t-384 -152t-148 -388t148 -388t386 -152q237 0 386 150q148 151 148 390.5zM1339 588q1 -262 -175 -434t-444 -172t-444 172t-176 436t178 436t444 172q265 0 441 -174t176 -436z" />
    <glyph glyph-name="ordfeminine" unicode="&#xaa;" horiz-adv-x="645" 
d="M190 796q0 -98 105 -98q41 0 106 30l2 159q-34 -2 -98.5 -5t-94.5 -36q-20 -27 -20 -50zM334 1189q132 0 178 -50.5t44 -168.5l-4 -244q-1 -29 6 -56t7 -32q0 -23 -125 -23q-17 0 -21 18l-11 36q-147 -59 -199 -59q-86 0 -127.5 48t-41.5 96q0 84 54 124t132 51.5
t178 14.5l1 24q2 66 -22.5 101.5t-94.5 35.5t-187 -35l-17 51q174 68 250 68z" />
    <glyph glyph-name="guillemotleft" unicode="&#xab;" horiz-adv-x="712" 
d="M337 638q0 -91 -57 -163t-161 -83v-40q157 -20 204 -162q14 -42 14 -84t-11 -85h-16q-54 145 -160 179q-30 10 -60 13v318q76 10 114 38q73 54 106 154h16q11 -44 11 -85zM632 638q0 -91 -57 -163t-161 -83v-40q157 -20 204 -162q14 -42 14 -84t-11 -85h-16
q-54 145 -160 179q-30 10 -60 13v318q76 10 114 38q73 54 106 154h16q11 -44 11 -85z" />
    <glyph glyph-name="logicalnot" unicode="&#xac;" horiz-adv-x="805" 
d="M765 429l-3 -400l-71 10l-2 317l-644 -3l-5 76h725z" />
    <glyph glyph-name="registered" unicode="&#xae;" horiz-adv-x="850" 
d="M494 941q0 65 -78 65q-32 0 -32 -17v-296q0 -12 -11 -14q-40 -5 -57 -5t-17 11v276q0 39 -37 39h-10q-8 0 -9 -1l-3 25q104 18 192 18q154 0 154 -85q0 -72 -90 -98v-3q46 -14 57 -41.5t17 -48.5q13 -41 23.5 -52t35.5 -11l1 -25q-40 -7 -69 -7q-30 0 -46 14.5t-24 48.5
q-16 66 -31 87.5t-58 17.5l-3 26q54 2 74.5 18t20.5 58zM719 855q1 137 -79 217t-206 79q-126 0 -206 -79q-78 -80 -78 -218t78 -219.5t206 -81.5q204 0 244.5 114t40.5 188zM440 1200q154 0 252 -92t98 -252t-98 -256t-258 -96t-258 95q-96 95 -96 253t101 253
q104 95 259 95z" />
    <glyph glyph-name="macron" unicode="&#xaf;" horiz-adv-x="500" 
d="M-6 1037h513l-5 -82l-503 -4z" />
    <glyph glyph-name="macron" unicode="&#x2c9;" horiz-adv-x="500" 
d="M-6 1037h513l-5 -82l-503 -4z" />
    <glyph glyph-name="degree" unicode="&#xb0;" horiz-adv-x="570" 
d="M124 779q0 -32 11 -60.5t31 -50t47.5 -34t61.5 -12.5t61.5 12.5t47.5 34t31 50t11 60.5t-11 61t-31 50.5t-47.5 34.5t-61.5 13t-61.5 -13t-47.5 -34.5t-31 -50.5t-11 -61zM50 780q0 46 17.5 86t47.5 70t71 47.5t89 17.5t89 -17.5t71 -47.5t47.5 -70t17.5 -86t-17.5 -86
t-47.5 -70t-71 -47.5t-89 -17.5t-89 17.5t-71 47.5t-47.5 70t-17.5 86z" />
    <glyph glyph-name="plusminus" unicode="&#xb1;" horiz-adv-x="805" 
d="M45 23l-5 76h725l-15 -72zM364 425l-319 -2l-5 76h323l-1 250l78 5l-2 -255h327l-15 -72l-312 -2l-2 -256l-71 10z" />
    <glyph glyph-name="twosuperior" unicode="&#xb2;" horiz-adv-x="663" 
d="M46 502q336 154 336 330q0 40 -25.5 71.5t-83.5 31.5t-98 -44t-51 -129l-42 4q0 104 9 180q1 14 29 22q102 32 205 32t159.5 -36t56.5 -84q0 -190 -355 -359h209q66 0 87 22t44 102l37 -4q0 -41 -6.5 -128t-8.5 -97t-8 -10l-154 1h-329z" />
    <glyph glyph-name="threesuperior" unicode="&#xb3;" horiz-adv-x="634" 
d="M154 581q0 -124 136 -124q64 0 101.5 30.5t37.5 78.5q0 115 -209 115h-15l-7 53h11q191 0 191 105q0 49 -36 73.5t-79 24.5q-75 0 -113 -33.5t-50 -117.5l-41 4q0 95 8 163q3 20 80 33.5t132 13.5q255 0 255 -131q0 -109 -152 -139v-3q110 -10 147.5 -61.5t37.5 -95.5
q0 -85 -91 -132.5t-203 -47.5t-166.5 25.5t-77.5 52t-23 64.5t28 56.5t58 18.5t42 -4q-2 -10 -2 -22z" />
    <glyph glyph-name="acute" unicode="&#xb4;" horiz-adv-x="500" 
d="M441 1190q17 0 17 -14q0 -5 -4 -12l-190 -338h-54l-7 8l77 318q6 24 45 31t116 7z" />
    <glyph glyph-name="mu" unicode="&#xb5;" horiz-adv-x="947" 
d="M457 79q99 0 187 60v563q0 23 20 27q65 13 134 13q24 0 24 -25v-575q0 -52 8 -85t8 -40q0 -15 -16 -17q-82 -12 -114 -13q-30 0 -35.5 6t-8.5 18l-15 56q-114 -87 -252 -87q-76 0 -138 30l34 -453v-3q0 -20 -19 -24q-68 -13 -132 -13q-25 0 -25 25v1160q0 23 20 27
q65 13 134 13q24 0 24 -25v-433q0 -146 60 -175.5t102 -29.5z" />
    <glyph glyph-name="mu" unicode="&#x3bc;" horiz-adv-x="947" 
d="M457 79q99 0 187 60v563q0 23 20 27q65 13 134 13q24 0 24 -25v-575q0 -52 8 -85t8 -40q0 -15 -16 -17q-82 -12 -114 -13q-30 0 -35.5 6t-8.5 18l-15 56q-114 -87 -252 -87q-76 0 -138 30l34 -453v-3q0 -20 -19 -24q-68 -13 -132 -13q-25 0 -25 25v1160q0 23 20 27
q65 13 134 13q24 0 24 -25v-433q0 -146 60 -175.5t102 -29.5z" />
    <glyph glyph-name="paragraph" unicode="&#xb6;" horiz-adv-x="1031" 
d="M516 483q-316 0 -391 128.5t-75 228.5q0 186 147.5 263t333.5 77t360 -29l-6 -55q-35 7 -101 7v-1315l-88 -12v1331q-58 4 -92 2v-1345l-88 -12v731z" />
    <glyph glyph-name="periodcentered" unicode="&#xb7;" horiz-adv-x="419" 
d="M100 392q0 110 121 110q48 0 73 -30t25 -80q0 -109 -120 -109q-47 0 -73 29t-26 80z" />
    <glyph glyph-name="periodcentered" unicode="&#x2219;" horiz-adv-x="419" 
d="M100 392q0 110 121 110q48 0 73 -30t25 -80q0 -109 -120 -109q-47 0 -73 29t-26 80z" />
    <glyph glyph-name="cedilla" unicode="&#xb8;" horiz-adv-x="500" 
d="M381 -262q0 -38 -46 -99.5t-221 -61.5h-13l-8 61q77 12 117.5 29.5t40.5 60.5t-30 62.5t-68 19.5h-6q-8 0 -9 -1l-19 43l113 148h72l-65 -109q142 -16 142 -153z" />
    <glyph glyph-name="onesuperior" unicode="&#xb9;" horiz-adv-x="403" 
d="M278 986q25 0 25 -29v-527q0 -20 -31 -26t-90 -6q-19 0 -19 20v421q0 49 -11 66.5t-38 17.5t-57 -3l-5 40q163 26 226 26z" />
    <glyph glyph-name="ordmasculine" unicode="&#xba;" horiz-adv-x="728" 
d="M490.5 735.5q31.5 54.5 31.5 112.5q0 113 -42 191t-126 78t-116 -54t-32 -114t9 -103.5t42.5 -104t117.5 -60.5t115.5 54.5zM134.5 690q-82.5 81 -82.5 209q0 127 91 208.5t229 81.5t221 -79.5t83 -207.5t-91 -210.5t-230 -82.5q-138 0 -220.5 81z" />
    <glyph glyph-name="guillemotright" unicode="&#xbb;" horiz-adv-x="712" 
d="M80 106q0 91 57 163t161 83v40q-157 20 -204 162q-14 42 -14 84t11 85h16q55 -147 159 -179q30 -10 61 -13v-318q-75 -9 -114 -38q-73 -53 -106 -154h-16q-11 44 -11 85zM375 106q0 91 57 163t161 83v40q-157 20 -204 162q-14 42 -14 84t11 85h16q56 -147 160 -179
q30 -10 60 -13v-318q-75 -9 -114 -38q-73 -53 -106 -154h-16q-11 44 -11 85z" />
    <glyph glyph-name="onequarter" unicode="&#xbc;" horiz-adv-x="1140" 
d="M278 986q25 0 25 -29v-527q0 -20 -31 -26t-90 -6q-19 0 -19 20v421q0 49 -11 67t-38 17q-27 0 -57 -3l-5 40q163 26 226 26zM113 6l701 1008l79 -35l-703 -1009zM623 205l230 6v253q-139 -141 -230 -259zM1112 219q17 0 17 -16v-6q0 -4 -1 -11l-4 -58l-131 -1v-115
q0 -19 -19 -23q-14 -1 -29 -3t-34 -4t-38 -2q-20 0 -20 20v126l-302 -2l-8 73q117 150 324 371q17 17 107 17q19 0 19 -20l1 -350q64 4 118 4z" />
    <glyph glyph-name="onehalf" unicode="&#xbd;" horiz-adv-x="1273" 
d="M278 986q25 0 25 -29v-527q0 -20 -31 -26t-90 -6q-19 0 -19 20v421q0 49 -11 67t-38 17q-27 0 -57 -3l-5 40q163 26 226 26zM113 6l701 1008l79 -35l-703 -1009zM649 97q336 155 336 331q1 40 -25 70q-26 32 -84 32t-98 -44t-51 -129l-42 4q0 104 9 180q2 15 30 23
q102 32 204 31q104 -1 160 -37t56 -84q0 -190 -355 -358h209q66 0 87 22t44 102l37 -4q0 -41 -6 -128t-9 -97q-2 -10 -8 -10l-154 1h-329z" />
    <glyph glyph-name="threequarters" unicode="&#xbe;" horiz-adv-x="1371" 
d="M154 581q0 -124 136 -124q64 1 102 31t37 78q0 115 -209 115h-15l-7 53h11q191 0 191 105q0 49 -36 73t-79 25q-75 0 -113 -33t-50 -118l-41 4q0 95 8 163q3 20 80 33q77 14 132 14q255 0 255 -131q0 -109 -152 -139v-3q110 -9 164 -83q21 -28 21 -74q0 -85 -91 -132
q-91 -48 -203 -48t-166 26q-55 26 -78 52t-23 64t28 56t58 19q30 0 42 -4q-2 -10 -2 -22zM344 6l701 1008l79 -35l-703 -1009zM854 205l230 6v253q-139 -141 -230 -259zM1343 219q17 0 17 -16v-6q0 -4 -1 -11l-4 -58l-131 -1v-115q0 -19 -19 -23q-14 -1 -29 -3t-34 -4
t-39 -2q-19 0 -19 20v126l-302 -2l-8 73q117 150 324 371q17 17 107 17q19 0 19 -20l1 -350q64 4 118 4z" />
    <glyph glyph-name="questiondown" unicode="&#xbf;" horiz-adv-x="742" 
d="M435 541q-96 1 -96 107t117 106q46 0 71 -29t25 -77q0 -107 -117 -107zM523 385q32 -36 32 -85q0 -81 -51 -137.5t-119 -104.5q-128 -89 -170 -131t-42 -88q0 -146 231 -146q109 0 193 54q34 -55 34 -91q0 -62 -55.5 -90t-130.5 -28q-157 0 -266 75t-109 198t78.5 185.5
t131 98t88 69.5t35.5 88t-56 135q49 34 97 34q47 0 79 -36z" />
    <glyph glyph-name="Agrave" unicode="&#xc0;" horiz-adv-x="1170" 
d="M328 504h375l-190 496zM15 -6q0 6 1 8l458 1098l-21 58q-2 8 -2 11q-1 15 17 18q82 14 142 14q21 0 30 -23l446 -1148q3 -8 3 -11q0 -17 -19 -20q-76 -12 -145 -12q-23 0 -29 15l-163 424l-437 -7l-154 -415q-6 -17 -67 -17q-60 1 -60 7zM395 1514q0 25 121 25
q24 0 31 -27l72 -248l-7 -8h-54l-159 247q-4 7 -4 11z" />
    <glyph glyph-name="Aacute" unicode="&#xc1;" horiz-adv-x="1170" 
d="M328 504h375l-190 496zM15 -6q0 6 1 8l458 1098l-21 58q-2 8 -2 11q-1 15 17 18q82 14 142 14q21 0 30 -23l446 -1148q3 -8 3 -11q0 -17 -19 -20q-76 -12 -145 -12q-23 0 -29 15l-163 424l-437 -7l-154 -415q-6 -17 -67 -17q-60 1 -60 7zM628 1539q121 0 121 -25
q0 -4 -4 -11l-159 -247h-54l-7 8l72 248q7 27 31 27z" />
    <glyph glyph-name="Acircumflex" unicode="&#xc2;" horiz-adv-x="1170" 
d="M328 504h375l-190 496zM15 -6q0 6 1 8l458 1098l-21 58q-2 8 -2 11q-1 15 17 18q82 14 142 14q21 0 30 -23l446 -1148q3 -8 3 -11q0 -17 -19 -20q-76 -12 -145 -12q-23 0 -29 15l-163 424l-437 -7l-154 -415q-6 -17 -67 -17q-60 1 -60 7zM577 1539q51 0 58 -7t14 -19
l147 -249l-7 -8h-61l-154 164h-8l-154 -164h-57l-7 8l146 240q6 11 19 23t64 12z" />
    <glyph glyph-name="Atilde" unicode="&#xc3;" horiz-adv-x="1170" 
d="M328 504h375l-190 496zM15 -6q0 6 1 8l458 1098l-21 58q-2 8 -2 11q-1 15 17 18q82 14 142 14q21 0 30 -23l446 -1148q3 -8 3 -11q0 -17 -19 -20q-76 -12 -145 -12q-23 0 -29 15l-163 424l-437 -7l-154 -415q-6 -17 -67 -17q-60 1 -60 7zM672 1275q-33 1 -89 33
q-57 32 -81 45t-43 13q-45 0 -117 -95l-45 36q108 183 195 183q41 0 96 -33q54 -33 78 -45t43 -13q46 0 115 89l44 -26q-102 -187 -196 -187z" />
    <glyph glyph-name="Adieresis" unicode="&#xc4;" horiz-adv-x="1170" 
d="M328 504h375l-190 496zM15 -6q0 6 1 8l458 1098l-21 58q-2 8 -2 11q-1 15 17 18q82 14 142 14q21 0 30 -23l446 -1148q3 -8 3 -11q0 -17 -19 -20q-76 -12 -145 -12q-23 0 -29 15l-163 424l-437 -7l-154 -415q-6 -17 -67 -17q-60 1 -60 7zM637 1407q0 97 109 97
q44 0 66 -26t22 -71q0 -99 -107 -99q-43 0 -67 27t-23 72zM310 1407q0 97 109 97q43 0 65 -26t23 -71q0 -99 -107 -99q-42 0 -66 27t-24 72z" />
    <glyph glyph-name="Aring" unicode="&#xc5;" horiz-adv-x="1170" 
d="M328 504h375l-190 496zM15 -6q0 6 1 8l458 1098l-21 58q-2 8 -2 11q-1 15 17 18q82 14 142 14q21 0 30 -23l446 -1148q3 -8 3 -11q0 -17 -19 -20q-76 -12 -145 -12q-23 0 -29 15l-163 424l-437 -7l-154 -415q-6 -17 -67 -17q-60 1 -60 7zM667 1412q1 51 -23 84t-71 33
q-47 1 -71 -31t-25 -84t23 -86q24 -32 72 -32t72 32t23 84zM721 1295q-57 -46 -149 -46q-146 0 -192 96q-14 31 -14 67q0 72 60 117q60 46 147 46q88 0 146 -44q59 -44 59 -117t-57 -119z" />
    <glyph glyph-name="AE" unicode="&#xc6;" horiz-adv-x="1529" 
d="M496 581l238 4v364zM920 155q0 -48 9.5 -59t63.5 -11h109q80 0 130 3.5t85 23t61.5 62t59.5 120.5l50 -11q0 -40 -20.5 -131t-31.5 -123t-47 -32q-225 3 -465 3h-166q-24 0 -24 25v478q-188 -3 -293 -6l-317 -493q-7 -11 -31 -14t-71 -3t-47 5t3 10l736 1049
q-19 19 -45 19t-58 -3l-6 55q189 36 292 36h344q63 0 153 2q16 0 18 -14t3 -37.5t2 -50.5t4 -83t3 -86l-50 -5q-33 136 -69.5 160.5t-78 28t-107.5 3.5h-156q-32 0 -37.5 -5.5t-5.5 -32.5v-447q325 10 368 10v-1h1q28 0 28 -29t-7 -83q-233 16 -390 16v-349z" />
    <glyph glyph-name="Ccedilla" unicode="&#xc7;" horiz-adv-x="1181" 
d="M649 -109q142 -16 142 -153q0 -38 -46 -99.5t-221 -61.5h-13l-8 61q77 12 117.5 29.5t40.5 60.5t-30.5 62.5t-50.5 19.5h-14q-13 0 -18 -1l-19 43l92 124q-241 26 -390 194.5t-149 434.5q0 265 187.5 424.5t484.5 159.5q131 0 299 -36q18 -4 21 -22q4 -54 5 -81.5
t4 -80.5t3 -81l-50 -5q-11 115 -104.5 170t-208.5 55q-216 0 -326.5 -131t-110.5 -361q0 -231 135 -386.5t387 -155.5q133 0 296 63l27 -62q-136 -76 -267 -90t-163 -14h-4z" />
    <glyph glyph-name="Egrave" unicode="&#xc8;" horiz-adv-x="975" 
d="M763 623q0 -29 -7 -83l-410 14v-399q0 -48 10 -59t63 -11h129q80 -1 130 3t85 24t61 62t60 120l50 -11q0 -40 -20 -131t-32 -123q-11 -32 -47 -32l-485 3h-166q-24 0 -24 25v961q0 52 -23 68t-51 16t-49 -3l-6 55q189 36 292 36h364q63 0 153 2q16 0 18 -14t2 -38
q2 -23 3 -50t3 -55q4 -84 4 -114l-50 -5q-33 136 -79 167q-27 17 -69 21t-107 4h-176q-31 0 -37 -6t-6 -32v-405l389 19q28 0 28 -29zM333 1514q0 25 121 25q24 0 31 -27l72 -248l-7 -8h-54l-159 247q-4 7 -4 11z" />
    <glyph glyph-name="Eacute" unicode="&#xc9;" horiz-adv-x="975" 
d="M763 623q0 -29 -7 -83l-410 14v-399q0 -48 10 -59t63 -11h129q80 -1 130 3t85 24t61 62t60 120l50 -11q0 -40 -20 -131t-32 -123q-11 -32 -47 -32l-485 3h-166q-24 0 -24 25v961q0 52 -23 68t-51 16t-49 -3l-6 55q189 36 292 36h364q63 0 153 2q16 0 18 -14t2 -38
q2 -23 3 -50t3 -55q4 -84 4 -114l-50 -5q-33 136 -79 167q-27 17 -69 21t-107 4h-176q-31 0 -37 -6t-6 -32v-405l389 19q28 0 28 -29zM566 1539q121 0 121 -25q0 -4 -4 -11l-159 -247h-54l-7 8l72 248q7 27 31 27z" />
    <glyph glyph-name="Ecircumflex" unicode="&#xca;" horiz-adv-x="975" 
d="M763 623q0 -29 -7 -83l-410 14v-399q0 -48 10 -59t63 -11h129q80 -1 130 3t85 24t61 62t60 120l50 -11q0 -40 -20 -131t-32 -123q-11 -32 -47 -32l-485 3h-166q-24 0 -24 25v961q0 52 -23 68t-51 16t-49 -3l-6 55q189 36 292 36h364q63 0 153 2q16 0 18 -14t2 -38
q2 -23 3 -50t3 -55q4 -84 4 -114l-50 -5q-33 136 -79 167q-27 17 -69 21t-107 4h-176q-31 0 -37 -6t-6 -32v-405l389 19q28 0 28 -29zM515 1539q51 0 58 -7t14 -19l147 -249l-7 -8h-61l-154 164h-8l-154 -164h-57l-7 8l146 240q6 11 19 23t64 12z" />
    <glyph glyph-name="Edieresis" unicode="&#xcb;" horiz-adv-x="975" 
d="M763 623q0 -29 -7 -83l-410 14v-399q0 -48 10 -59t63 -11h129q80 -1 130 3t85 24t61 62t60 120l50 -11q0 -40 -20 -131t-32 -123q-11 -32 -47 -32l-485 3h-166q-24 0 -24 25v961q0 52 -23 68t-51 16t-49 -3l-6 55q189 36 292 36h364q63 0 153 2q16 0 18 -14t2 -38
q2 -23 3 -50t3 -55q4 -84 4 -114l-50 -5q-33 136 -79 167q-27 17 -69 21t-107 4h-176q-31 0 -37 -6t-6 -32v-405l389 19q28 0 28 -29zM575 1407q0 97 109 97q44 0 66 -26t22 -71q0 -99 -107 -99q-43 0 -67 27t-23 72zM248 1407q0 97 109 97q43 0 65 -26t23 -71
q0 -99 -107 -99q-42 0 -66 27t-24 72z" />
    <glyph glyph-name="Igrave" unicode="&#xcc;" horiz-adv-x="506" 
d="M314 1181q32 0 32 -32v-1122q0 -23 -20 -27q-73 -12 -140 -13q-26 0 -26 25v990q0 91 -71 91q-30 0 -52 -3l-6 55q194 36 283 36zM58 1514q0 25 121 25q24 0 31 -27l72 -248l-7 -8h-54l-159 247q-4 7 -4 11z" />
    <glyph glyph-name="Iacute" unicode="&#xcd;" horiz-adv-x="506" 
d="M314 1181q32 0 32 -32v-1122q0 -23 -20 -27q-73 -12 -140 -13q-26 0 -26 25v990q0 91 -71 91q-30 0 -52 -3l-6 55q194 36 283 36zM291 1539q121 0 121 -25q0 -4 -4 -11l-159 -247h-54l-7 8l72 248q7 27 31 27z" />
    <glyph glyph-name="Icircumflex" unicode="&#xce;" horiz-adv-x="506" 
d="M314 1181q32 0 32 -32v-1122q0 -23 -20 -27q-73 -12 -140 -13q-26 0 -26 25v990q0 91 -71 91q-30 0 -52 -3l-6 55q194 36 283 36zM240 1539q51 0 58 -7t14 -19l147 -249l-7 -8h-61l-154 164h-8l-154 -164h-57l-7 8l146 240q6 11 19 23t64 12z" />
    <glyph glyph-name="Idieresis" unicode="&#xcf;" horiz-adv-x="506" 
d="M314 1181q32 0 32 -32v-1122q0 -23 -20 -27q-73 -12 -140 -13q-26 0 -26 25v990q0 91 -71 91q-30 0 -52 -3l-6 55q194 36 283 36zM300 1407q0 97 109 97q43 0 65 -26t23 -71q0 -99 -107 -99q-42 0 -66 27t-24 72zM-27 1407q0 97 109 97q44 0 66 -26t22 -71
q0 -99 -107 -99q-43 0 -67 27t-23 72z" />
    <glyph glyph-name="Eth" unicode="&#xd0;" horiz-adv-x="1295" 
d="M909.5 240.5q97.5 103.5 97.5 342.5t-136.5 380.5t-379.5 141.5h-51q-45 0 -69.5 -7.5t-24.5 -40.5v-400h329l-5 -82l-324 -2v-493q68 -16 173 -16t199 36.5t191.5 140zM496 -19l-312 19q-24 0 -24 25v547l-113 -1l-5 86h118v355q0 51 -22 67.5t-50 16.5t-51 -3l-6 54
q248 42 456 42q725 0 725 -576q0 -295 -198.5 -463.5t-517.5 -168.5z" />
    <glyph glyph-name="Ntilde" unicode="&#xd1;" horiz-adv-x="1220" 
d="M1073 1177q16 0 16 -15l-24 -975v-183q0 -12 -17 -14q-88 -8 -96 -2t-13 14l-696 924l25 -920q0 -20 -122 -20q-16 0 -16 15l25 1042l-82 112q-4 4 -4 11q0 13 17 17q64 15 121 15q58 0 64 -6t14 -17l691 -917l-25 897q0 22 122 22zM720 1275q-33 1 -89 33q-57 32 -81 45
t-43 13q-45 0 -117 -95l-45 36q108 183 195 183q41 0 96 -33q54 -33 78 -45t43 -13q46 0 115 89l44 -26q-102 -187 -196 -187z" />
    <glyph glyph-name="Ograve" unicode="&#xd2;" horiz-adv-x="1350" 
d="M662 1105q-191 0 -283 -139t-92 -358q0 -220 94 -374q110 -179 304 -179q195 -1 293 151q86 133 87 354q0 220 -94 370q-49 78 -127 127q-78 48 -182 48zM1118 1032q152 -157 152 -444q0 -288 -169 -453q-169 -164 -443 -164q-273 0 -425 160q-153 160 -153 449t169 449
t442 160q275 0 427 -157zM498 1514q0 25 121 25q24 0 31 -27l72 -248l-7 -8h-54l-159 247q-4 7 -4 11z" />
    <glyph glyph-name="Oacute" unicode="&#xd3;" horiz-adv-x="1350" 
d="M662 1105q-191 0 -283 -139t-92 -358q0 -220 94 -374q110 -179 304 -179q195 -1 293 151q86 133 87 354q0 220 -94 370q-49 78 -127 127q-78 48 -182 48zM1118 1032q152 -157 152 -444q0 -288 -169 -453q-169 -164 -443 -164q-273 0 -425 160q-153 160 -153 449t169 449
t442 160q275 0 427 -157zM731 1539q121 0 121 -25q0 -4 -4 -11l-159 -247h-54l-7 8l72 248q7 27 31 27z" />
    <glyph glyph-name="Ocircumflex" unicode="&#xd4;" horiz-adv-x="1350" 
d="M662 1105q-191 0 -283 -139t-92 -358q0 -220 94 -374q110 -179 304 -179q195 -1 293 151q86 133 87 354q0 220 -94 370q-49 78 -127 127q-78 48 -182 48zM1118 1032q152 -157 152 -444q0 -288 -169 -453q-169 -164 -443 -164q-273 0 -425 160q-153 160 -153 449t169 449
t442 160q275 0 427 -157zM680 1539q51 0 58 -7t14 -19l147 -249l-7 -8h-61l-154 164h-8l-154 -164h-57l-7 8l146 240q6 11 19 23t64 12z" />
    <glyph glyph-name="Otilde" unicode="&#xd5;" horiz-adv-x="1350" 
d="M662 1105q-191 0 -283 -139t-92 -358q0 -220 94 -374q110 -179 304 -179q195 -1 293 151q86 133 87 354q0 220 -94 370q-49 78 -127 127q-78 48 -182 48zM1118 1032q152 -157 152 -444q0 -288 -169 -453q-169 -164 -443 -164q-273 0 -425 160q-153 160 -153 449t169 449
t442 160q275 0 427 -157zM775 1275q-33 1 -89 33t-80 45t-44 13q-45 0 -117 -95l-45 36q108 183 195 183q41 0 96 -33q54 -33 78 -45t43 -13q46 0 115 89l44 -26q-102 -187 -196 -187z" />
    <glyph glyph-name="Odieresis" unicode="&#xd6;" horiz-adv-x="1350" 
d="M662 1105q-191 0 -283 -139t-92 -358q0 -220 94 -374q110 -179 304 -179q195 -1 293 151q86 133 87 354q0 220 -94 370q-49 78 -127 127q-78 48 -182 48zM1118 1032q152 -157 152 -444q0 -288 -169 -453q-169 -164 -443 -164q-273 0 -425 160q-153 160 -153 449t169 449
t442 160q275 0 427 -157zM740 1407q0 97 109 97q43 0 65 -26t23 -71q0 -99 -107 -99q-42 0 -66 27t-24 72zM413 1407q0 97 109 97q44 0 66 -26t22 -71q0 -99 -107 -99q-43 0 -67 27t-23 72z" />
    <glyph glyph-name="multiply" unicode="&#xd7;" horiz-adv-x="805" 
d="M346 392l-286 285l50 57l289 -289l287 289l59 -51l-295 -290l293 -292l-62 -40l-283 280l-291 -285l-41 54z" />
    <glyph glyph-name="Oslash" unicode="&#xd8;" horiz-adv-x="1350" 
d="M948 965q-110 142 -293 142t-277 -139.5t-94 -344t75 -354.5zM1066 543q0 205 -74 351l-589 -696q112 -145 294 -145t275.5 142.5t93.5 347.5zM238 126q-158 162 -158 452t168.5 450.5t457.5 160.5q206 0 346 -101l84 99l70 -41l-93 -109q157 -159 157 -448
t-169.5 -453.5t-456.5 -164.5q-207 0 -346 102l-84 -99l-70 41z" />
    <glyph glyph-name="Ugrave" unicode="&#xd9;" horiz-adv-x="1225" 
d="M304 1181q32 0 32 -32v-784q-3 -209 159 -255q48 -14 104 -13q118 0 280 80v954q0 23 20 27q65 13 142 13q24 0 24 -25v-1119q-1 -23 -21 -27q-73 -13 -133 -13q-24 0 -25 25l-7 82q-219 -121 -407 -121q-222 -1 -296 167q-26 58 -26 136v726q0 91 -70 91q-29 0 -53 -3
l-6 55q194 36 283 36zM428 1514q0 25 121 25q24 0 31 -27l72 -248l-7 -8h-54l-159 247q-4 7 -4 11z" />
    <glyph glyph-name="Uacute" unicode="&#xda;" horiz-adv-x="1225" 
d="M304 1181q32 0 32 -32v-784q-3 -209 159 -255q48 -14 104 -13q118 0 280 80v954q0 23 20 27q65 13 142 13q24 0 24 -25v-1119q-1 -23 -21 -27q-73 -13 -133 -13q-24 0 -25 25l-7 82q-219 -121 -407 -121q-222 -1 -296 167q-26 58 -26 136v726q0 91 -70 91q-29 0 -53 -3
l-6 55q194 36 283 36zM661 1539q121 0 121 -25q0 -4 -4 -11l-159 -247h-54l-7 8l72 248q7 27 31 27z" />
    <glyph glyph-name="Ucircumflex" unicode="&#xdb;" horiz-adv-x="1225" 
d="M304 1181q32 0 32 -32v-784q-3 -209 159 -255q48 -14 104 -13q118 0 280 80v954q0 23 20 27q65 13 142 13q24 0 24 -25v-1119q-1 -23 -21 -27q-73 -13 -133 -13q-24 0 -25 25l-7 82q-219 -121 -407 -121q-222 -1 -296 167q-26 58 -26 136v726q0 91 -70 91q-29 0 -53 -3
l-6 55q194 36 283 36zM610 1539q51 0 58 -7t14 -19l147 -249l-7 -8h-61l-154 164h-8l-154 -164h-57l-7 8l146 240q6 11 19 23t64 12z" />
    <glyph glyph-name="Udieresis" unicode="&#xdc;" horiz-adv-x="1225" 
d="M304 1181q32 0 32 -32v-784q-3 -209 159 -255q48 -14 104 -13q118 0 280 80v954q0 23 20 27q65 13 142 13q24 0 24 -25v-1119q-1 -23 -21 -27q-73 -13 -133 -13q-24 0 -25 25l-7 82q-219 -121 -407 -121q-222 -1 -296 167q-26 58 -26 136v726q0 91 -70 91q-29 0 -53 -3
l-6 55q194 36 283 36zM670 1407q0 97 109 97q43 0 65 -26t23 -71q0 -99 -107 -99q-42 0 -66 27t-24 72zM343 1407q0 97 109 97q44 0 66 -26t22 -71q0 -99 -107 -99q-43 0 -67 27t-23 72z" />
    <glyph glyph-name="Yacute" unicode="&#xdd;" horiz-adv-x="986" 
d="M186 1181q46 0 55 -9t18 -26l284 -510l242 493q12 24 30 29q46 13 110 13q20 0 20 -12q0 -4 -2 -8t-4 -9l-359 -602v-513q0 -23 -20 -27q-73 -13 -140 -13q-26 0 -26 25v510l-277 494q-44 80 -89 80q-20 0 -53 -5l-6 55q171 35 217 35zM561 1539q121 0 121 -25
q0 -4 -4 -11l-159 -247h-54l-7 8l72 248q7 27 31 27z" />
    <glyph glyph-name="Thorn" unicode="&#xde;" horiz-adv-x="1003" 
d="M314 1181q32 0 32 -32v-194q50 4 105 4t114.5 -4t216 -38.5t156.5 -267.5q0 -259 -195.5 -323t-344.5 -68l-10 56q175 11 260 78.5t85 207.5t-80.5 210.5t-215.5 70.5q-45 0 -68 -5.5t-23 -38.5v-810q0 -23 -20 -27q-73 -12 -140 -13q-26 0 -26 25v990q0 91 -71 91
q-30 0 -52 -3l-6 55q194 36 283 36z" />
    <glyph glyph-name="germandbls" unicode="&#xdf;" horiz-adv-x="1061" 
d="M591 199q0 -137 119 -137q60 0 96.5 28t36.5 74q0 72 -41.5 104.5t-105.5 60.5q-122 53 -183 112.5t-61 154.5t50.5 144.5t136 113t85.5 204.5q0 90 -51.5 149t-126.5 59q-129 0 -176 -76t-47 -212v-951q-1 -23 -21 -27q-73 -12 -132 -13q-25 0 -25 25v631q-64 0 -115 -3
l-3 67q13 1 118 8v144q0 352 158 419.5t244 67.5t144.5 -18t103.5 -53.5t72 -87.5t27 -120t-20.5 -114t-51.5 -79t-67.5 -57.5t-88 -65t-51.5 -106.5q0 -84 74.5 -121.5t111.5 -53.5q107 -48 161 -93.5t54 -126.5q0 -137 -102 -203.5t-242 -66.5t-188 52.5t-48 93.5
q0 93 117 93q22 0 38 -3v-17z" />
    <glyph glyph-name="agrave" unicode="&#xe0;" horiz-adv-x="811" 
d="M228 218q0 -84 74 -116q28 -12 52 -12q78 0 164 41l3 224q-47 -3 -88 -5t-75 -8q-130 -19 -130 -124zM349 652q-70 0 -220 -48l-22 67q210 85 346 85t193 -69t55 -225l-5 -326q-1 -40 7 -76q9 -36 9 -43q0 -30 -147 -30q-19 0 -25 24l-13 48q-177 -79 -272 -79
q-96 0 -149 63q-54 63 -54 129q0 221 315 243q91 6 155 8l1 34q2 98 -22 134q-24 35 -53 48t-99 13zM204 1165q0 25 135 25q26 0 33 -27l80 -329l-7 -8h-54l-183 327q-4 7 -4 12z" />
    <glyph glyph-name="aacute" unicode="&#xe1;" horiz-adv-x="811" 
d="M228 218q0 -84 74 -116q28 -12 52 -12q78 0 164 41l3 224q-47 -3 -88 -5t-75 -8q-130 -19 -130 -124zM349 652q-70 0 -220 -48l-22 67q210 85 346 85t193 -69t55 -225l-5 -326q-1 -40 7 -76q9 -36 9 -43q0 -30 -147 -30q-19 0 -25 24l-13 48q-177 -79 -272 -79
q-96 0 -149 63q-54 63 -54 129q0 221 315 243q91 6 155 8l1 34q2 98 -22 134q-24 35 -53 48t-99 13zM596 1190q17 0 17 -14q0 -5 -4 -12l-190 -338h-54l-7 8l77 318q6 24 45 31t116 7z" />
    <glyph glyph-name="acircumflex" unicode="&#xe2;" horiz-adv-x="811" 
d="M228 218q0 -84 74 -116q28 -12 52 -12q78 0 164 41l3 224q-47 -3 -88 -5t-75 -8q-130 -19 -130 -124zM349 652q-70 0 -220 -48l-22 67q210 85 346 85t193 -69t55 -225l-5 -326q-1 -40 7 -76q9 -36 9 -43q0 -30 -147 -30q-19 0 -25 24l-13 48q-177 -79 -272 -79
q-96 0 -149 63q-54 63 -54 129q0 221 315 243q91 6 155 8l1 34q2 98 -22 134q-24 35 -53 48t-99 13zM384 1184q43 6 66 6q24 0 36 -27l173 -329l-7 -8h-61l-184 224h-8l-184 -224h-57l-7 8l170 317q5 11 13 19t50 14z" />
    <glyph glyph-name="atilde" unicode="&#xe3;" horiz-adv-x="811" 
d="M228 218q0 -84 74 -116q28 -12 52 -12q78 0 164 41l3 224q-47 -3 -88 -5t-75 -8q-130 -19 -130 -124zM349 652q-70 0 -220 -48l-22 67q210 85 346 85t193 -69t55 -225l-5 -326q-1 -40 7 -76q9 -36 9 -43q0 -30 -147 -30q-19 0 -25 24l-13 48q-177 -79 -272 -79
q-96 0 -149 63q-54 63 -54 129q0 221 315 243q91 6 155 8l1 34q2 98 -22 134q-24 35 -53 48t-99 13zM295 1007q-46 0 -118 -94l-48 36q111 183 201 183q41 0 98 -33t80 -45t41 -12q46 0 116 88l44 -26q-104 -187 -199 -187q-32 0 -88 32t-82 45t-45 13z" />
    <glyph glyph-name="adieresis" unicode="&#xe4;" horiz-adv-x="811" 
d="M228 218q0 -84 74 -116q28 -12 52 -12q78 0 164 41l3 224q-47 -3 -88 -5t-75 -8q-130 -19 -130 -124zM349 652q-70 0 -220 -48l-22 67q210 85 346 85t193 -69t55 -225l-5 -326q-1 -40 7 -76q9 -36 9 -43q0 -30 -147 -30q-19 0 -25 24l-13 48q-177 -79 -272 -79
q-96 0 -149 63q-54 63 -54 129q0 221 315 243q91 6 155 8l1 34q2 98 -22 134q-24 35 -53 48t-99 13zM470 1057q0 97 109 97q43 0 65 -26t23 -71q0 -99 -107 -99q-42 0 -66 27t-24 72zM143 1057q0 97 109 97q44 0 66 -26t22 -71q0 -99 -107 -99q-43 0 -67 27t-23 72z" />
    <glyph glyph-name="aring" unicode="&#xe5;" horiz-adv-x="811" 
d="M228 218q0 -84 74 -116q28 -12 52 -12q78 0 164 41l3 224q-47 -3 -88 -5t-75 -8q-130 -19 -130 -124zM349 652q-70 0 -220 -48l-22 67q210 85 346 85t193 -69t55 -225l-5 -326q-1 -40 7 -76q9 -36 9 -43q0 -30 -147 -30q-19 0 -25 24l-13 48q-177 -79 -272 -79
q-96 0 -149 63q-54 63 -54 129q0 221 315 243q91 6 155 8l1 34q2 98 -22 134q-24 35 -53 48t-99 13zM410 1184q-98 0 -98 -127q0 -55 25 -91t73 -36t73 35t25 91t-25 92t-73 36zM623 1058q1 -40 -15 -72t-44 -57q-28 -24 -67 -37t-87 -13q-95 0 -154 48t-59 128q0 79 62 129
t151 50q144 0 196 -104q16 -32 17 -72z" />
    <glyph glyph-name="ae" unicode="&#xe6;" horiz-adv-x="1249" 
d="M107 671q203 85 343 85q141 0 202 -106q121 104 286 104q110 0 172.5 -64t62.5 -169q0 -44 -17 -110l-465 -30q13 -196 122 -238t197 -42t182 40l22 -56q-138 -67 -239 -86t-129 -19q-153 0 -246 110q-231 -110 -337 -110t-158.5 63.5t-52.5 128.5q0 154 123.5 201
t337.5 57v27q0 100 -22 134.5t-50 47.5t-100 13t-212 -48zM878 659q-95 0 -140.5 -61t-47.5 -156l302 27q5 23 5 67t-32.5 83.5t-86.5 39.5zM228 230q0 -140 143 -140q70 0 189 61q-47 83 -47 214q-45 -5 -132 -14t-120 -48q-33 -38 -33 -73z" />
    <glyph glyph-name="ccedilla" unicode="&#xe7;" horiz-adv-x="786" 
d="M409 -109q142 -16 142 -153q0 -38 -46 -99.5t-221 -61.5h-13l-8 61q77 12 117.5 29.5t40.5 60.5t-30 62.5t-68 19.5h-6q-8 0 -9 -1l-19 43l98 130q-152 2 -239.5 107.5t-87.5 271.5t129 279.5t321 113.5q141 0 175.5 -52t34.5 -100t-35 -71t-72 -23t-59 3v19
q0 68 -21.5 99.5t-85.5 31.5q-112 0 -161 -65.5t-49 -152.5t18 -145.5t54.5 -102.5t92.5 -69t138 -25t188 35l23 -56q-147 -64 -284 -90z" />
    <glyph glyph-name="egrave" unicode="&#xe8;" horiz-adv-x="801" 
d="M515 620q-34 39 -87 39q-96 0 -142 -60t-49 -152l307 22q5 23 5 68q0 44 -34 83zM766 85q-219 -105 -397 -105q-55 0 -117 30t-106 82q-86 103 -86 268q0 166 125 280t303 114q111 0 174 -64t63 -169q0 -44 -17 -110l-470 -25q12 -201 178 -264q56 -21 141 -21t187 40z
M224 1165q0 25 135 25q26 0 33 -27l80 -329l-7 -8h-54l-183 327q-4 7 -4 12z" />
    <glyph glyph-name="eacute" unicode="&#xe9;" horiz-adv-x="801" 
d="M515 620q-34 39 -87 39q-96 0 -142 -60t-49 -152l307 22q5 23 5 68q0 44 -34 83zM766 85q-219 -105 -397 -105q-55 0 -117 30t-106 82q-86 103 -86 268q0 166 125 280t303 114q111 0 174 -64t63 -169q0 -44 -17 -110l-470 -25q12 -201 178 -264q56 -21 141 -21t187 40z
M633 1176q0 -5 -4 -12l-190 -338h-54l-7 8l77 318q6 24 45 31t116 7q17 0 17 -14z" />
    <glyph glyph-name="ecircumflex" unicode="&#xea;" horiz-adv-x="801" 
d="M515 620q-34 39 -87 39q-96 0 -142 -60t-49 -152l307 22q5 23 5 68q0 44 -34 83zM766 85q-219 -105 -397 -105q-55 0 -117 30t-106 82q-86 103 -86 268q0 166 125 280t303 114q111 0 174 -64t63 -169q0 -44 -17 -110l-470 -25q12 -201 178 -264q56 -21 141 -21t187 40z
M404 1184q43 6 66 6q24 0 36 -27l173 -329l-7 -8h-61l-184 224h-8l-184 -224h-57l-7 8l170 317q5 11 13 19t50 14z" />
    <glyph glyph-name="edieresis" unicode="&#xeb;" horiz-adv-x="801" 
d="M515 620q-34 39 -87 39q-96 0 -142 -60t-49 -152l307 22q5 23 5 68q0 44 -34 83zM766 85q-219 -105 -397 -105q-55 0 -117 30t-106 82q-86 103 -86 268q0 166 125 280t303 114q111 0 174 -64t63 -169q0 -44 -17 -110l-470 -25q12 -201 178 -264q56 -21 141 -21t187 40z
M490 1057q0 97 109 97q43 0 65 -26t23 -71q0 -99 -107 -99q-42 0 -66 27t-24 72zM163 1057q0 97 109 97q44 0 66 -26t22 -71q0 -99 -107 -99q-43 0 -67 27t-23 72z" />
    <glyph glyph-name="igrave" unicode="&#xec;" horiz-adv-x="458" 
d="M301 749q32 0 32 -36v-686q-1 -23 -21 -27q-73 -12 -132 -13q-25 0 -25 25v545q0 53 -17 73t-48 19q-31 0 -52 -4l-6 48q202 56 269 56zM21 1165q0 25 135 25q26 0 33 -27l80 -329l-7 -8h-54l-183 327q-4 7 -4 12z" />
    <glyph glyph-name="iacute" unicode="&#xed;" horiz-adv-x="458" 
d="M301 749q32 0 32 -36v-686q-1 -23 -21 -27q-73 -12 -132 -13q-25 0 -25 25v545q0 53 -17 73t-48 19q-31 0 -52 -4l-6 48q202 56 269 56zM413 1190q17 0 17 -14q0 -5 -4 -12l-190 -338h-54l-7 8l77 318q6 24 45 31t116 7z" />
    <glyph glyph-name="icircumflex" unicode="&#xee;" horiz-adv-x="458" 
d="M301 749q32 0 32 -36v-686q-1 -23 -21 -27q-73 -12 -132 -13q-25 0 -25 25v545q0 53 -17 73t-48 19q-31 0 -52 -4l-6 48q202 56 269 56zM201 1184q43 6 66 6q24 0 36 -27l173 -329l-7 -8h-61l-184 224h-8l-184 -224h-57l-7 8l170 317q4 11 12 19t51 14z" />
    <glyph glyph-name="idieresis" unicode="&#xef;" horiz-adv-x="458" 
d="M301 749q32 0 32 -36v-686q-1 -23 -21 -27q-73 -12 -132 -13q-25 0 -25 25v545q0 53 -17 73t-48 19q-31 0 -52 -4l-6 48q202 56 269 56zM287 1057q0 97 109 97q44 0 66 -26t22 -71q0 -99 -107 -99q-43 0 -67 27t-23 72zM-40 1057q0 97 109 97q43 0 65 -26t23 -71
q0 -99 -107 -99q-42 0 -66 27t-24 72z" />
    <glyph glyph-name="eth" unicode="&#xf0;" horiz-adv-x="938" 
d="M521 68q156 0 156 318q0 118 -17 226q-104 54 -177 54q-125 0 -179.5 -72.5t-54.5 -196.5t58 -226.5t214 -102.5zM858 476q0 -341 -156 -418.5t-256 -77.5q-180 0 -280.5 112.5t-100.5 275.5t117.5 274.5t292.5 111.5q79 0 160 -17q-53 205 -139 314l-179 -151l-56 54
l181 156q-95 97 -274 164l20 70q128 -26 222.5 -77.5t125.5 -75.5l180 155l48 -70l-165 -139q259 -239 259 -661z" />
    <glyph glyph-name="ntilde" unicode="&#xf1;" horiz-adv-x="979" 
d="M297 749q30 0 33 -36l3 -42q225 83 299 83q126 0 179 -65t53 -181l-5 -481q0 -23 -20 -27q-71 -13 -134 -13q-24 0 -24 25l5 398v15q0 166 -89 205q-32 14 -91 14t-173 -49v-568q0 -23 -20 -27q-71 -12 -133 -13q-25 0 -25 25v545q0 53 -17 73t-48 19q-31 0 -52 -4l-6 48
q202 56 265 56zM375 1007q-46 0 -118 -94l-48 36q111 183 201 183q41 0 98 -33t80 -45t41 -12q46 0 116 88l44 -26q-104 -187 -199 -187q-32 0 -88 32t-82 45t-45 13z" />
    <glyph glyph-name="ograve" unicode="&#xf2;" horiz-adv-x="910" 
d="M625 152q35 65 35 146q0 158 -50 252q-62 117 -171 116q-108 0 -153 -84q-36 -68 -36 -148t12 -141q12 -60 39 -110q62 -115 170 -115q109 0 154 84zM65 366q0 170 114 279t287 109q172 0 276 -106q103 -106 103 -277q0 -170 -115 -281q-115 -110 -292 -110
q-165 0 -269 108t-104 278zM254 1165q0 25 135 25q26 0 33 -27l80 -329l-7 -8h-54l-183 327q-4 7 -4 12z" />
    <glyph glyph-name="oacute" unicode="&#xf3;" horiz-adv-x="910" 
d="M625 152q35 65 35 146q0 158 -50 252q-62 117 -171 116q-108 0 -153 -84q-36 -68 -36 -148t12 -141q12 -60 39 -110q62 -115 170 -115q109 0 154 84zM65 366q0 170 114 279t287 109q172 0 276 -106q103 -106 103 -277q0 -170 -115 -281q-115 -110 -292 -110
q-165 0 -269 108t-104 278zM646 1190q17 0 17 -14q0 -5 -4 -12l-190 -338h-54l-7 8l77 318q6 24 45 31t116 7z" />
    <glyph glyph-name="ocircumflex" unicode="&#xf4;" horiz-adv-x="910" 
d="M625 152q35 65 35 146q0 158 -50 252q-62 117 -171 116q-108 0 -153 -84q-36 -68 -36 -148t12 -141q12 -60 39 -110q62 -115 170 -115q109 0 154 84zM65 366q0 170 114 279t287 109q172 0 276 -106q103 -106 103 -277q0 -170 -115 -281q-115 -110 -292 -110
q-165 0 -269 108t-104 278zM434 1184q43 6 66 6q24 0 36 -27l173 -329l-7 -8h-61l-184 224h-8l-184 -224h-57l-7 8l170 317q5 11 13 19t50 14z" />
    <glyph glyph-name="otilde" unicode="&#xf5;" horiz-adv-x="910" 
d="M625 152q35 65 35 146q0 158 -50 252q-62 117 -171 116q-108 0 -153 -84q-36 -68 -36 -148t12 -141q12 -60 39 -110q62 -115 170 -115q109 0 154 84zM65 366q0 170 114 279t287 109q172 0 276 -106q103 -106 103 -277q0 -170 -115 -281q-115 -110 -292 -110
q-165 0 -269 108t-104 278zM555 917q-32 0 -88 32q-55 32 -81 45t-46 13q-46 0 -118 -94l-48 36q111 183 201 183q41 0 98 -33t80 -45t41 -12q46 0 116 88l44 -26q-104 -187 -199 -187z" />
    <glyph glyph-name="odieresis" unicode="&#xf6;" horiz-adv-x="910" 
d="M625 152q35 65 35 146q0 158 -50 252q-62 117 -171 116q-108 0 -153 -84q-36 -68 -36 -148t12 -141q12 -60 39 -110q62 -115 170 -115q109 0 154 84zM65 366q0 170 114 279t287 109q172 0 276 -106q103 -106 103 -277q0 -170 -115 -281q-115 -110 -292 -110
q-165 0 -269 108t-104 278zM520 1057q0 97 109 97q43 0 65 -26t23 -71q0 -99 -107 -99q-42 0 -66 27t-24 72zM193 1057q0 97 109 97q44 0 66 -26t22 -71q0 -99 -107 -99q-43 0 -67 27t-23 72z" />
    <glyph glyph-name="divide" unicode="&#xf7;" horiz-adv-x="805" 
d="M45 353l-5 76h725l-15 -72zM410 708q73 0 73 -81t-89 -81q-35 0 -54 22t-19 59q0 81 89 81zM410 238q73 0 73 -81t-89 -81q-35 0 -54 22t-19 59q0 81 89 81z" />
    <glyph glyph-name="oslash" unicode="&#xf8;" horiz-adv-x="910" 
d="M598 577q-58 91 -163 91t-146.5 -76t-41.5 -182t31 -188zM622.5 142q40.5 76 40.5 180t-32 189l-320 -354q61 -91 166 -91t145.5 76zM491 754q107 0 205 -69l64 71l55 -41l-68 -75q98 -104 98 -272t-114.5 -278t-296.5 -110q-122 0 -219 69l-65 -71l-55 41l69 76
q-99 105 -99 273t114 277t312 109z" />
    <glyph glyph-name="ugrave" unicode="&#xf9;" horiz-adv-x="983" 
d="M511 91q59 0 169 48v418q0 53 -17 73t-49 19q-31 0 -51 -4l-6 48q202 56 269 56q32 0 32 -36v-571q0 -27 16 -123q0 -15 -16 -19q-64 -13 -104 -13t-46 6t-8 18l-15 56q-227 -87 -301 -87q-125 0 -178 65t-53 181l5 331q2 92 -65 92q-31 0 -52 -4l-6 48q202 56 269 56
q32 0 32 -36l-5 -389v-15q0 -165 89 -204q32 -14 91 -14zM299 1165q0 25 135 25q26 0 33 -27l80 -329l-7 -8h-54l-183 327q-4 7 -4 12z" />
    <glyph glyph-name="uacute" unicode="&#xfa;" horiz-adv-x="983" 
d="M511 91q59 0 169 48v418q0 53 -17 73t-49 19q-31 0 -51 -4l-6 48q202 56 269 56q32 0 32 -36v-571q0 -27 16 -123q0 -15 -16 -19q-64 -13 -104 -13t-46 6t-8 18l-15 56q-227 -87 -301 -87q-125 0 -178 65t-53 181l5 331q2 92 -65 92q-31 0 -52 -4l-6 48q202 56 269 56
q32 0 32 -36l-5 -389v-15q0 -165 89 -204q32 -14 91 -14zM691 1190q17 0 17 -14q0 -5 -4 -12l-190 -338h-54l-7 8l77 318q6 24 45 31t116 7z" />
    <glyph glyph-name="ucircumflex" unicode="&#xfb;" horiz-adv-x="983" 
d="M511 91q59 0 169 48v418q0 53 -17 73t-49 19q-31 0 -51 -4l-6 48q202 56 269 56q32 0 32 -36v-571q0 -27 16 -123q0 -15 -16 -19q-64 -13 -104 -13t-46 6t-8 18l-15 56q-227 -87 -301 -87q-125 0 -178 65t-53 181l5 331q2 92 -65 92q-31 0 -52 -4l-6 48q202 56 269 56
q32 0 32 -36l-5 -389v-15q0 -165 89 -204q32 -14 91 -14zM479 1184q43 6 66 6q24 0 36 -27l173 -329l-7 -8h-61l-184 224h-8l-184 -224h-57l-7 8l170 317q4 11 12 19t51 14z" />
    <glyph glyph-name="udieresis" unicode="&#xfc;" horiz-adv-x="983" 
d="M511 91q59 0 169 48v418q0 53 -17 73t-49 19q-31 0 -51 -4l-6 48q202 56 269 56q32 0 32 -36v-571q0 -27 16 -123q0 -15 -16 -19q-64 -13 -104 -13t-46 6t-8 18l-15 56q-227 -87 -301 -87q-125 0 -178 65t-53 181l5 331q2 92 -65 92q-31 0 -52 -4l-6 48q202 56 269 56
q32 0 32 -36l-5 -389v-15q0 -165 89 -204q32 -14 91 -14zM565 1057q0 97 109 97q44 0 66 -26t22 -71q0 -99 -107 -99q-43 0 -67 27t-23 72zM238 1057q0 97 109 97q43 0 65 -26t23 -71q0 -99 -107 -99q-42 0 -66 27t-24 72z" />
    <glyph glyph-name="yacute" unicode="&#xfd;" horiz-adv-x="817" 
d="M-24 693q188 55 258 55q17 0 32 -36l193 -498h4l187 487q9 23 28 29q66 18 99 18t33 -10t-20 -50t-60 -118q-38 -78 -77 -160q-169 -350 -224 -482q-54 -133 -78 -187q-93 -209 -251 -209q-51 0 -82 29q-32 29 -32 71q0 41 24 66q42 -24 79 -24q70 0 122 45
q51 45 101 153l58 128l-249 570q-33 79 -89 79q-26 0 -50 -4zM641 1190q17 0 17 -14q0 -5 -4 -12l-190 -338h-54l-7 8l77 318q6 24 45 31t116 7z" />
    <glyph glyph-name="thorn" unicode="&#xfe;" horiz-adv-x="984" 
d="M519 646q-56 0 -201 -44v-425q0 -80 68 -96t103 -16q243 0 243 250q0 126 -56.5 228.5t-156.5 102.5zM140 1154q0 92 -63 92q-29 0 -51 -3l-6 48q202 55 266 55q32 0 32 -36v-633q257 77 328 77q121 0 192 -112t71 -228t-38.5 -195t-102.5 -132.5t-147 -80t-159 -26.5
t-144 14v-417q0 -23 -20 -27q-71 -12 -133 -13q-25 0 -25 25v1592z" />
    <glyph glyph-name="ydieresis" unicode="&#xff;" horiz-adv-x="817" 
d="M-24 693q188 55 258 55q17 0 32 -36l193 -498h4l187 487q9 23 28 29q66 18 99 18t33 -10t-20 -50t-60 -118q-38 -78 -77 -160q-169 -350 -224 -482q-54 -133 -78 -187q-93 -209 -251 -209q-51 0 -82 29q-32 29 -32 71q0 41 24 66q42 -24 79 -24q70 0 122 45
q51 45 101 153l58 128l-249 570q-33 79 -89 79q-26 0 -50 -4zM515 1057q0 97 109 97q44 0 66 -26t22 -71q0 -99 -107 -99q-43 0 -67 27t-23 72zM188 1057q0 97 109 97q43 0 65 -26t23 -71q0 -99 -107 -99q-42 0 -66 27t-24 72z" />
    <glyph glyph-name="Amacron" unicode="&#x100;" horiz-adv-x="1170" 
d="M328 504h375l-190 496zM15 -6q0 6 1 8l458 1098l-21 58q-2 8 -2 11q-1 15 17 18q82 14 142 14q21 0 30 -23l446 -1148q3 -8 3 -11q0 -17 -19 -20q-76 -12 -145 -12q-23 0 -29 15l-163 424l-437 -7l-154 -415q-6 -17 -67 -17q-60 1 -60 7zM316 1412h513l-5 -82l-503 -4z
" />
    <glyph glyph-name="amacron" unicode="&#x101;" horiz-adv-x="811" 
d="M228 218q0 -84 74 -116q28 -12 52 -12q78 0 164 41l3 224q-47 -3 -88 -5t-75 -8q-130 -19 -130 -124zM349 652q-70 0 -220 -48l-22 67q210 85 346 85t193 -69t55 -225l-5 -326q-1 -40 7 -76q9 -36 9 -43q0 -30 -147 -30q-19 0 -25 24l-13 48q-177 -79 -272 -79
q-96 0 -149 63q-54 63 -54 129q0 221 315 243q91 6 155 8l1 34q2 98 -22 134q-24 35 -53 48t-99 13zM154 1037h513l-5 -82l-503 -4z" />
    <glyph glyph-name="Abreve" unicode="&#x102;" horiz-adv-x="1170" 
d="M328 504h375l-190 496zM15 -6q0 6 1 8l458 1098l-21 58q-2 8 -2 11q-1 15 17 18q82 14 142 14q21 0 30 -23l446 -1148q3 -8 3 -11q0 -17 -19 -20q-76 -12 -145 -12q-23 0 -29 15l-163 424l-437 -7l-154 -415q-6 -17 -67 -17q-60 1 -60 7zM396 1341q-75 64 -83 185l100 17
q30 -156 185 -156q104 -1 153 81q17 28 22 68l56 -8q-7 -125 -81 -188q-73 -63 -175 -63t-177 64z" />
    <glyph glyph-name="abreve" unicode="&#x103;" horiz-adv-x="811" 
d="M228 218q0 -84 74 -116q28 -12 52 -12q78 0 164 41l3 224q-47 -3 -88 -5t-75 -8q-130 -19 -130 -124zM349 652q-70 0 -220 -48l-22 67q210 85 346 85t193 -69t55 -225l-5 -326q-1 -40 7 -76q9 -36 9 -43q0 -30 -147 -30q-19 0 -25 24l-13 48q-177 -79 -272 -79
q-96 0 -149 63q-54 63 -54 129q0 221 315 243q91 6 155 8l1 34q2 98 -22 134q-24 35 -53 48t-99 13zM432 1009q106 1 158 87q18 30 23 71l57 -9q-8 -132 -83 -198t-180 -66q-167 0 -239 144q-24 50 -29 117l103 19q34 -165 190 -165z" />
    <glyph glyph-name="Aogonek" unicode="&#x104;" horiz-adv-x="1170" 
d="M343 504h375l-190 496zM30 -6q0 7 1 8l458 1098l-21 58q-2 8 -2 11q0 15 18 18q82 14 141 14q21 0 30 -23l446 -1148q3 -8 3 -11q0 -17 -16 -19q-33 -5 -42 -6l-91 -8q-60 -5 -127.5 -60.5t-67.5 -137.5t44.5 -124t119.5 -42q26 0 70 11l17 -56q-112 -41 -174 -41
q-113 0 -176 47t-63 135q0 134 94.5 206.5t174.5 113.5h1q23 14 5 61l-125 327l-437 -7l-154 -415q-6 -17 -111 -17q-16 0 -16 7z" />
    <glyph glyph-name="aogonek" unicode="&#x105;" horiz-adv-x="811" 
d="M228 218q0 -84 51 -106t75 -22q78 0 164 41l3 224q-47 -3 -88 -5.5t-123 -14.5t-82 -117zM349 652q-70 0 -220 -48l-22 67q210 85 346 85t193 -68.5t55 -225.5l-5 -320q0 -52 9 -90t4.5 -43t-29.5 -16q-84 -37 -140.5 -87t-56.5 -125t44.5 -117t119.5 -42q26 0 70 11
l17 -56q-112 -41 -174 -41q-113 0 -176 47t-63 130t60.5 155t166.5 123l-21 68q-177 -79 -272 -79q-96 0 -149.5 63t-53.5 129q0 221 203 235t267 16l1 34q2 98 -22 133.5t-53 48.5t-99 13z" />
    <glyph glyph-name="Cacute" unicode="&#x106;" horiz-adv-x="1181" 
d="M701 -29q-274 0 -446 174q-173 174 -173 449q0 276 187 436q187 159 485 159q131 0 299 -36q18 -4 21 -22q4 -54 5 -81q1 -28 3 -54q4 -80 4 -108l-50 -5q-11 115 -104 170t-209 55q-216 0 -327 -131q-110 -131 -110 -361q0 -231 135 -387t387 -155q133 0 296 63l27 -62
q-137 -77 -347 -99q-52 -6 -83 -5zM781 1539q121 0 121 -25q0 -4 -4 -11l-159 -247h-54l-7 8l72 248q7 27 31 27z" />
    <glyph glyph-name="cacute" unicode="&#x107;" horiz-adv-x="786" 
d="M751 80q-225 -100 -387 -100q-54 0 -114 30q-62 30 -104 80q-86 103 -86 271q0 167 129 280t321 113q142 0 192 -76q18 -28 18 -76t-35 -70q-35 -24 -72 -24t-59 3v19q0 68 -15 90q-28 41 -92 41q-112 0 -161 -66t-49 -152q0 -87 18 -145q19 -58 55 -103q36 -44 92 -69
t138 -25t188 35zM630 1194q17 0 17 -14q0 -5 -4 -12l-190 -338h-54l-7 8l77 318q6 24 45 31t116 7z" />
    <glyph glyph-name="Ccircumflex" unicode="&#x108;" horiz-adv-x="1181" 
d="M701 -29q-274 0 -446 174q-173 174 -173 449q0 276 187 436q187 159 485 159q131 0 299 -36q18 -4 21 -22q4 -54 5 -81q1 -28 3 -54q4 -80 4 -108l-50 -5q-11 115 -104 170t-209 55q-216 0 -327 -131q-110 -131 -110 -361q0 -231 135 -387t387 -155q133 0 296 63l27 -62
q-137 -77 -347 -99q-52 -6 -83 -5zM730 1539q51 0 58 -7t14 -19l147 -249l-7 -8h-61l-154 164h-8l-154 -164h-57l-7 8l146 240q6 11 19 23t64 12z" />
    <glyph glyph-name="ccircumflex" unicode="&#x109;" horiz-adv-x="786" 
d="M751 80q-225 -100 -387 -100q-54 0 -114 30q-62 30 -104 80q-86 103 -86 271q0 167 129 280t321 113q142 0 192 -76q18 -28 18 -76t-35 -70q-35 -24 -72 -24t-59 3v19q0 68 -15 90q-28 41 -92 41q-112 0 -161 -66t-49 -152q0 -87 18 -145q19 -58 55 -103q36 -44 92 -69
t138 -25t188 35zM418 1188q43 6 66 6q24 0 36 -27l173 -329l-7 -8h-61l-184 224h-8l-184 -224h-57l-7 8l170 317q5 11 13 19t50 14z" />
    <glyph glyph-name="Cdotaccent" unicode="&#x10a;" horiz-adv-x="1181" 
d="M701 -29q-274 0 -446 174q-173 174 -173 449q0 276 187 436q187 159 485 159q131 0 299 -36q18 -4 21 -22q4 -54 5 -81q1 -28 3 -54q4 -80 4 -108l-50 -5q-11 115 -104 170t-209 55q-216 0 -327 -131q-110 -131 -110 -361q0 -231 135 -387t387 -155q133 0 296 63l27 -62
q-137 -77 -347 -99q-52 -6 -83 -5zM736 1511q91 1 91 -101t-111 -102q-45 0 -69 27t-24 75q0 101 113 101z" />
    <glyph glyph-name="cdotaccent" unicode="&#x10b;" horiz-adv-x="786" 
d="M751 80q-225 -100 -387 -100q-54 0 -114 30q-62 30 -104 80q-86 103 -86 271q0 167 129 280t321 113q142 0 192 -76q18 -28 18 -76t-35 -70q-35 -24 -72 -24t-59 3v19q0 68 -15 90q-28 41 -92 41q-112 0 -161 -66t-49 -152q0 -87 18 -145q19 -58 55 -103q36 -44 92 -69
t138 -25t188 35zM450 1165q91 1 91 -101t-111 -102q-45 0 -69 27t-24 75q0 101 113 101z" />
    <glyph glyph-name="Ccaron" unicode="&#x10c;" horiz-adv-x="1181" 
d="M701 -29q-274 0 -446 174q-173 174 -173 449q0 276 187 436q187 159 485 159q131 0 299 -36q18 -4 21 -22q4 -54 5 -81q1 -28 3 -54q4 -80 4 -108l-50 -5q-11 115 -104 170t-209 55q-216 0 -327 -131q-110 -131 -110 -361q0 -231 135 -387t387 -155q133 0 296 63l27 -62
q-137 -77 -347 -99q-52 -6 -83 -5zM720 1256q-51 0 -58 7t-14 19l-147 249l7 8h61l154 -164h8l154 164h57l7 -8l-146 -240q-6 -11 -19 -23t-64 -12z" />
    <glyph glyph-name="ccaron" unicode="&#x10d;" horiz-adv-x="786" 
d="M751 80q-225 -100 -387 -100q-54 0 -114 30q-62 30 -104 80q-86 103 -86 271q0 167 129 280t321 113q142 0 192 -76q18 -28 18 -76t-35 -70q-35 -24 -72 -24t-59 3v19q0 68 -15 90q-28 41 -92 41q-112 0 -161 -66t-49 -152q0 -87 18 -145q19 -58 55 -103q36 -44 92 -69
t138 -25t188 35zM392 832q-20 0 -35 27l-172 327l7 8h61l184 -222h8l184 222h57l7 -8l-171 -319q-6 -11 -17 -23t-113 -12z" />
    <glyph glyph-name="Dcaron" unicode="&#x10e;" horiz-adv-x="1282" 
d="M876 205q131 139 131 378t-137 380q-137 142 -379 142h-51q-46 1 -70 -7t-24 -41v-977q68 -16 173 -16t199 36t158 105zM496 -19l-312 19q-24 0 -24 25v987q0 52 -22 68t-50 16t-51 -3l-6 54q248 42 456 42q725 0 725 -576q0 -295 -199 -464q-198 -168 -517 -168z
M545 1256q-51 0 -58 7t-14 19l-147 249l7 8h61l154 -164h8l154 164h57l7 -8l-146 -240q-6 -11 -19 -23t-64 -12z" />
    <glyph glyph-name="dcaron" unicode="&#x10f;" horiz-adv-x="1169" 
d="M653 552q1 117 -189 117q-46 1 -94 -19q-132 -55 -131 -244q0 -116 49 -206q60 -110 180 -110q70 0 185 49v413zM653 1154q0 92 -63 92q-29 0 -51 -3l-6 48q202 55 266 55q32 0 32 -36v-1168q0 -27 16 -123q0 -32 -149 -32q-19 0 -25 24l-15 56q-227 -87 -303 -87
q-133 0 -213 111t-80 226q0 210 134 324q134 113 338 113q60 0 119 -9v409zM1129 1068q0 -106 -53 -181q-53 -74 -145 -85l-6 18q63 56 63 158t-30 171q37 8 147 29q24 -56 24 -110z" />
    <glyph glyph-name="Dcroat" unicode="&#x110;" horiz-adv-x="1295" 
d="M876 205q131 139 131 378t-137 380q-137 142 -379 142h-51q-46 1 -70 -7t-24 -41v-400h329l-5 -82l-324 -2v-493q68 -16 173 -16t199 36t158 105zM496 -19l-312 19q-24 0 -24 25v547l-113 -1l-5 86h118v355q0 52 -22 68t-50 16t-51 -3l-6 54q248 42 456 42
q725 0 725 -576q0 -295 -199 -464q-198 -168 -517 -168z" />
    <glyph glyph-name="dcroat" unicode="&#x111;" horiz-adv-x="956" 
d="M653 552q1 117 -189 117q-46 0 -135.5 -37.5t-89.5 -225.5q0 -117 54.5 -216.5t174.5 -99.5q70 0 185 49v413zM653 1154q0 92 -63 92q-29 0 -51 -3l-6 48q202 55 266 55q32 0 32 -36v-289h90l-5 -71l-85 -1v-807q0 -52 15 -117q5 -22 -19 -26q-52 -12 -96 -12t-49.5 6
t-8.5 18l-15 56q-227 -87 -305 -87q-135 0 -213 112t-78 227q0 209 134 322t338 113q60 0 119 -9v202l-331 -3l-5 77h336v133z" />
    <glyph glyph-name="Emacron" unicode="&#x112;" horiz-adv-x="975" 
d="M763 623q0 -29 -7 -83l-410 14v-399q0 -48 10 -59t63 -11h129q80 -1 130 3t85 24t61 62t60 120l50 -11q0 -40 -20 -131t-32 -123q-11 -32 -47 -32l-485 3h-166q-24 0 -24 25v961q0 52 -23 68t-51 16t-49 -3l-6 55q189 36 292 36h364q63 0 153 2q16 0 18 -14t2 -38
q2 -23 3 -50t3 -55q4 -84 4 -114l-50 -5q-33 136 -79 167q-27 17 -69 21t-107 4h-176q-31 0 -37 -6t-6 -32v-405l389 19q28 0 28 -29zM254 1412h513l-5 -82l-503 -4z" />
    <glyph glyph-name="emacron" unicode="&#x113;" horiz-adv-x="801" 
d="M515 620q-34 39 -87 39q-96 0 -142 -60t-49 -152l307 22q5 23 5 68q0 44 -34 83zM766 85q-219 -105 -397 -105q-55 0 -117 30t-106 82q-86 103 -86 268q0 166 125 280t303 114q111 0 174 -64t63 -169q0 -44 -17 -110l-470 -25q12 -201 178 -264q56 -21 141 -21t187 40z
M169 1037h513l-5 -82l-503 -4z" />
    <glyph glyph-name="Ebreve" unicode="&#x114;" horiz-adv-x="975" 
d="M763 623q0 -29 -7 -83l-410 14v-399q0 -48 10 -59t63 -11h129q80 -1 130 3t85 24t61 62t60 120l50 -11q0 -40 -20 -131t-32 -123q-11 -32 -47 -32l-485 3h-166q-24 0 -24 25v961q0 52 -23 68t-51 16t-49 -3l-6 55q189 36 292 36h364q63 0 153 2q16 0 18 -14t2 -38
q2 -23 3 -50t3 -55q4 -84 4 -114l-50 -5q-33 136 -79 167q-27 17 -69 21t-107 4h-176q-31 0 -37 -6t-6 -32v-405l389 19q28 0 28 -29zM334 1341q-75 64 -83 185l100 17q30 -156 185 -156q104 -1 153 81q17 28 22 68l56 -8q-7 -125 -81 -188q-73 -63 -175 -63t-177 64z" />
    <glyph glyph-name="ebreve" unicode="&#x115;" horiz-adv-x="801" 
d="M515 620q-34 39 -87 39q-96 0 -142 -60t-49 -152l307 22q5 23 5 68q0 44 -34 83zM766 85q-219 -105 -397 -105q-55 0 -117 30t-106 82q-86 103 -86 268q0 166 125 280t303 114q111 0 174 -64t63 -169q0 -44 -17 -110l-470 -25q12 -201 178 -264q56 -21 141 -21t187 40z
M427 894q-167 0 -239 144q-24 50 -29 117l103 19q34 -165 190 -165q106 1 158 87q18 30 23 71l57 -9q-8 -132 -83 -198t-180 -66z" />
    <glyph glyph-name="Edotaccent" unicode="&#x116;" horiz-adv-x="975" 
d="M763 623q0 -29 -7 -83l-410 14v-399q0 -48 10 -59t63 -11h129q80 -1 130 3t85 24t61 62t60 120l50 -11q0 -40 -20 -131t-32 -123q-11 -32 -47 -32l-485 3h-166q-24 0 -24 25v961q0 52 -23 68t-51 16t-49 -3l-6 55q189 36 292 36h364q63 0 153 2q16 0 18 -14t2 -38
q2 -23 3 -50t3 -55q4 -84 4 -114l-50 -5q-33 136 -79 167q-27 17 -69 21t-107 4h-176q-31 0 -37 -6t-6 -32v-405l389 19q28 0 28 -29zM521 1511q91 1 91 -101t-111 -102q-45 0 -69 27t-24 75q0 101 113 101z" />
    <glyph glyph-name="edotaccent" unicode="&#x117;" horiz-adv-x="801" 
d="M515 620q-34 39 -87 39q-96 0 -142 -60t-49 -152l307 22q5 23 5 68q0 44 -34 83zM766 85q-219 -105 -397 -105q-55 0 -117 30t-106 82q-86 103 -86 268q0 166 125 280t303 114q111 0 174 -64t63 -169q0 -44 -17 -110l-470 -25q12 -201 178 -264q56 -21 141 -21t187 40z
M441 1161q91 1 91 -101t-111 -102q-45 0 -69 27t-24 75q0 101 113 101z" />
    <glyph glyph-name="Eogonek" unicode="&#x118;" horiz-adv-x="975" 
d="M763 623q0 -29 -7 -83l-410 14v-399q0 -48 9.5 -59t63.5 -11h129q80 0 130 3.5t85 23t61.5 62t59.5 120.5l50 -11q0 -40 -20.5 -131t-28.5 -115t-30 -37q-107 -52 -159 -98t-52 -121t44.5 -117t119.5 -42q26 0 70 11l15 -56q-112 -41 -173 -41q-112 0 -175 47t-63 135
q0 118 88 184t140 92v6h-526q-24 0 -24 25v961q0 51 -23 67.5t-51 16.5t-49 -3l-6 55q189 36 292 36h364q63 0 153 2q16 0 18 -14t3 -37.5t2 -50.5t4 -83t3 -86l-50 -5q-33 136 -69.5 160.5t-78 28t-107.5 3.5h-176q-32 0 -37.5 -5.5t-5.5 -32.5v-405l389 19q28 0 28 -29z
" />
    <glyph glyph-name="eogonek" unicode="&#x119;" horiz-adv-x="801" 
d="M515.5 620q-33.5 39 -87.5 39q-96 0 -142.5 -60t-48.5 -152l307 22q5 23 5 68q0 44 -33.5 83zM557 101q85 0 187 40l22 -56q-125 -67 -190.5 -135.5t-65.5 -173.5t63 -129.5t95 -24.5t76 11l17 -56q-108 -41 -172 -41q-116 0 -178.5 47t-62.5 168.5t183 243.5v6
q-85 -21 -151 -21t-128.5 30.5t-127 107t-64.5 242.5t125 280t303 114q111 0 174 -64.5t63 -168.5q0 -44 -17 -110l-470 -25q13 -201 123.5 -243t195.5 -42z" />
    <glyph glyph-name="Ecaron" unicode="&#x11a;" horiz-adv-x="975" 
d="M763 623q0 -29 -7 -83l-410 14v-399q0 -48 10 -59t63 -11h129q80 -1 130 3t85 24t61 62t60 120l50 -11q0 -40 -20 -131t-32 -123q-11 -32 -47 -32l-485 3h-166q-24 0 -24 25v961q0 52 -23 68t-51 16t-49 -3l-6 55q189 36 292 36h364q63 0 153 2q16 0 18 -14t2 -38
q2 -23 3 -50t3 -55q4 -84 4 -114l-50 -5q-33 136 -79 167q-27 17 -69 21t-107 4h-176q-31 0 -37 -6t-6 -32v-405l389 19q28 0 28 -29zM505 1256q-51 0 -58 7t-14 19l-147 249l7 8h61l154 -164h8l154 164h57l7 -8l-146 -240q-6 -11 -19 -23t-64 -12z" />
    <glyph glyph-name="ecaron" unicode="&#x11b;" horiz-adv-x="801" 
d="M515 620q-34 39 -87 39q-96 0 -142 -60t-49 -152l307 22q5 23 5 68q0 44 -34 83zM766 85q-219 -105 -397 -105q-55 0 -117 30t-106 82q-86 103 -86 268q0 166 125 280t303 114q111 0 174 -64t63 -169q0 -44 -17 -110l-470 -25q12 -201 178 -264q56 -21 141 -21t187 40z
M378 828q-20 0 -35 27l-172 327l7 8h61l184 -222h8l184 222h57l7 -8l-171 -319q-6 -11 -17 -23t-113 -12z" />
    <glyph glyph-name="Gcircumflex" unicode="&#x11c;" horiz-adv-x="1257" 
d="M1086 540q32 0 32 -32v-472q0 -11 -11 -16q-160 -49 -332 -49q-326 0 -511 161t-185 450t192 448t498 159q145 0 307 -36q18 -3 21 -22q4 -54 5 -81q0 -28 2 -54q4 -80 5 -108l-50 -5q-15 117 -109 171t-213 54q-225 0 -339 -129q-115 -129 -115 -369t143 -394t410 -154
q55 0 98 5v314q0 57 -17 74t-62 17l-30 -1l-5 56q176 13 266 13zM725 1539q51 0 58 -7t14 -19l147 -249l-7 -8h-61l-154 164h-8l-154 -164h-57l-7 8l146 240q6 11 19 23t64 12z" />
    <glyph glyph-name="gcircumflex" unicode="&#x11d;" horiz-adv-x="894" 
d="M515 328q38 49 38 107q0 106 -42 172q-42 65 -119 65q-78 0 -115 -50t-37 -107q0 -58 9 -97t29 -70q43 -69 121 -69t116 49zM170 -185q0 -81 94 -123q74 -33 142 -33q122 1 188 31q85 39 85 113q0 93 -152 105q-43 4 -132 4t-171 24q-54 -74 -54 -121zM728 501
q0 -145 -98 -224q-98 -80 -251 -80q-63 0 -103 13q-16 -19 -30 -38t-14 -39q0 -69 256 -69q338 0 338 -190q0 -101 -105 -198q-105 -98 -295 -134q-52 -10 -96 -10q-105 0 -202 56q-96 56 -96 143q0 86 78 178q23 27 48 55q-42 21 -62 75q-6 15 -6 29q0 56 120 168
q-70 35 -108 97q-38 61 -38 131q0 134 98 212t232 78q135 0 219 -56q198 51 223 51q26 0 26 -29t-7 -83l-191 17q64 -73 64 -153zM379 1184q43 6 66 6q24 0 36 -27l173 -329l-7 -8h-61l-184 224h-8l-184 -224h-57l-7 8l170 317q4 11 12 19t51 14z" />
    <glyph glyph-name="Gbreve" unicode="&#x11e;" horiz-adv-x="1257" 
d="M1086 540q32 0 32 -32v-472q0 -11 -11 -16q-160 -49 -332 -49q-326 0 -511 161t-185 450t192 448t498 159q145 0 307 -36q18 -3 21 -22q4 -54 5 -81q0 -28 2 -54q4 -80 5 -108l-50 -5q-15 117 -109 171t-213 54q-225 0 -339 -129q-115 -129 -115 -369t143 -394t410 -154
q55 0 98 5v314q0 57 -17 74t-62 17l-30 -1l-5 56q176 13 266 13zM544 1341q-75 64 -83 185l100 17q30 -156 185 -156q104 -1 153 81q17 28 22 68l56 -8q-7 -125 -81 -188q-73 -63 -175 -63t-177 64z" />
    <glyph glyph-name="gbreve" unicode="&#x11f;" horiz-adv-x="894" 
d="M515 328q38 49 38 107q0 106 -42 172q-42 65 -119 65q-78 0 -115 -50t-37 -107q0 -58 9 -97t29 -70q43 -69 121 -69t116 49zM170 -185q0 -81 94 -123q74 -33 142 -33q122 1 188 31q85 39 85 113q0 93 -152 105q-43 4 -132 4t-171 24q-54 -74 -54 -121zM728 501
q0 -145 -98 -224q-98 -80 -251 -80q-63 0 -103 13q-16 -19 -30 -38t-14 -39q0 -69 256 -69q338 0 338 -190q0 -101 -105 -198q-105 -98 -295 -134q-52 -10 -96 -10q-105 0 -202 56q-96 56 -96 143q0 86 78 178q23 27 48 55q-42 21 -62 75q-6 15 -6 29q0 56 120 168
q-70 35 -108 97q-38 61 -38 131q0 134 98 212t232 78q135 0 219 -56q198 51 223 51q26 0 26 -29t-7 -83l-191 17q64 -73 64 -153zM402 894q-168 0 -240 144q-24 50 -28 117l103 19q34 -165 190 -165q105 1 157 87q18 30 24 71l57 -9q-8 -132 -83 -198t-180 -66z" />
    <glyph glyph-name="Gdotaccent" unicode="&#x120;" horiz-adv-x="1257" 
d="M1086 540q32 0 32 -32v-472q0 -11 -11 -16q-160 -49 -332 -49q-326 0 -511 161t-185 450t192 448t498 159q145 0 307 -36q18 -3 21 -22q4 -54 5 -81q0 -28 2 -54q4 -80 5 -108l-50 -5q-15 117 -109 171t-213 54q-225 0 -339 -129q-115 -129 -115 -369t143 -394t410 -154
q55 0 98 5v314q0 57 -17 74t-62 17l-30 -1l-5 56q176 13 266 13zM731 1511q91 1 91 -101t-111 -102q-45 0 -69 27t-24 75q0 101 113 101z" />
    <glyph glyph-name="gdotaccent" unicode="&#x121;" horiz-adv-x="894" 
d="M515 328q38 49 38 107q0 106 -42 172q-42 65 -119 65q-78 0 -115 -50t-37 -107q0 -58 9 -97t29 -70q43 -69 121 -69t116 49zM170 -185q0 -81 94 -123q74 -33 142 -33q122 1 188 31q85 39 85 113q0 93 -152 105q-43 4 -132 4t-171 24q-54 -74 -54 -121zM728 501
q0 -145 -98 -224q-98 -80 -251 -80q-63 0 -103 13q-16 -19 -30 -38t-14 -39q0 -69 256 -69q338 0 338 -190q0 -101 -105 -198q-105 -98 -295 -134q-52 -10 -96 -10q-105 0 -202 56q-96 56 -96 143q0 86 78 178q23 27 48 55q-42 21 -62 75q-6 15 -6 29q0 56 120 168
q-70 35 -108 97q-38 61 -38 131q0 134 98 212t232 78q135 0 219 -56q198 51 223 51q26 0 26 -29t-7 -83l-191 17q64 -73 64 -153zM421 1161q91 1 91 -101t-111 -102q-45 0 -69 27t-24 75q0 101 113 101z" />
    <glyph glyph-name="Gcommaaccent" unicode="&#x122;" horiz-adv-x="1257" 
d="M1086 540q32 0 32 -32v-472q0 -11 -11 -16q-160 -49 -332 -49q-326 0 -511 161t-185 450t192 448t498 159q145 0 307 -36q18 -3 21 -22q4 -54 5 -81q0 -28 2 -54q4 -80 5 -108l-50 -5q-15 117 -109 171t-213 54q-225 0 -339 -129q-115 -129 -115 -369t143 -394t410 -154
q55 0 98 5v314q0 57 -17 74t-62 17l-30 -1l-5 56q176 13 266 13zM691 -217q0 65 -16 111q39 5 64 8l41 4q16 2 37 3q14 -43 14 -87q0 -99 -57 -174t-155 -79l-5 17q77 55 77 197z" />
    <glyph glyph-name="gcommaaccent" unicode="&#x123;" horiz-adv-x="894" 
d="M515 328q38 49 38 107q0 106 -42 172q-42 65 -119 65q-78 0 -115 -50t-37 -107q0 -58 9 -97t29 -70q43 -69 121 -69t116 49zM170 -185q0 -81 94 -123q74 -33 142 -33q122 1 188 31q85 39 85 113q0 93 -152 105q-43 4 -132 4t-171 24q-54 -74 -54 -121zM728 501
q0 -145 -98 -224q-98 -80 -251 -80q-63 0 -103 13q-16 -19 -30 -38t-14 -39q0 -69 256 -69q338 0 338 -190q0 -101 -105 -198q-105 -98 -295 -134q-52 -10 -96 -10q-105 0 -202 56q-96 56 -96 143q0 86 78 178q23 27 48 55q-42 21 -62 75q-6 15 -6 29q0 56 120 168
q-70 35 -108 97q-38 61 -38 131q0 134 98 212t232 78q135 0 219 -56q198 51 223 51q26 0 26 -29t-7 -83l-191 17q64 -73 64 -153zM299 924q0 99 57 174t155 79l5 -17q-77 -55 -77 -197q0 -65 16 -111q-99 -13 -142 -15q-14 43 -14 87z" />
    <glyph glyph-name="Hcircumflex" unicode="&#x124;" horiz-adv-x="1275" 
d="M314 1181q32 0 32 -32v-486h583v468q0 23 20 27q65 13 142 13q24 0 24 -25v-1119q-1 -23 -21 -27q-73 -13 -139 -13q-26 0 -26 25v570l-583 -7v-548q0 -23 -20 -27q-73 -12 -140 -13q-26 0 -26 25v990q0 91 -71 91q-30 0 -52 -3l-6 55q194 36 283 36zM642 1539
q51 0 58 -7t14 -19l147 -249l-7 -8h-61l-154 164h-8l-154 -164h-57l-7 8l146 240q6 11 19 23t64 12z" />
    <glyph glyph-name="hcircumflex" unicode="&#x125;" horiz-adv-x="964" 
d="M140 1154q0 92 -63 92q-29 0 -51 -3l-6 48q202 55 266 55q32 0 32 -36v-639q225 83 299 83q126 0 179 -65t53 -181l-5 -481q0 -23 -20 -27q-71 -13 -133 -13q-25 0 -25 25l5 398v15q0 166 -89 205q-32 14 -91 14t-173 -49v-568q0 -23 -20 -27q-71 -13 -133 -13
q-25 0 -25 25v1142zM210 1706q51 0 58 -7t14 -19l147 -249l-7 -8h-61l-154 164h-8l-154 -164h-57l-7 8l146 240q6 11 19 23t64 12z" />
    <glyph glyph-name="Hbar" unicode="&#x126;" horiz-adv-x="1275" 
d="M929 663v188l-583 -3v-185h583zM314 1181q32 0 32 -32v-218h583v200q0 23 20 27q65 13 142 13q24 0 24 -25v-215h86l-5 -78l-81 -1v-825q-1 -23 -21 -27q-73 -13 -139 -13q-26 0 -26 25v570l-583 -7v-548q0 -23 -20 -27q-73 -12 -140 -13q-26 0 -26 25v835h-81l-5 84h86
v71q0 91 -71 91q-30 0 -52 -3l-6 55q194 36 283 36z" />
    <glyph glyph-name="hbar" unicode="&#x127;" horiz-adv-x="964" 
d="M140 1154q0 92 -63 92q-29 0 -51 -3l-6 48q202 55 266 55q32 0 32 -36v-289h336l-5 -71l-331 -4v-275q225 83 299 83q126 0 179 -65t53 -181l-5 -481q0 -23 -20 -27q-71 -13 -133 -13q-25 0 -25 25l5 398v15q0 166 -60.5 192.5t-119.5 26.5t-173 -49v-568q0 -23 -20 -27
q-71 -13 -133 -13q-25 0 -25 25v933l-115 -1l-5 77h120v133z" />
    <glyph glyph-name="Itilde" unicode="&#x128;" horiz-adv-x="506" 
d="M314 1181q32 0 32 -32v-1122q0 -23 -20 -27q-73 -12 -140 -13q-26 0 -26 25v990q0 91 -71 91q-30 0 -52 -3l-6 55q194 36 283 36zM335 1275q-33 1 -89 33t-80 45t-44 13q-45 0 -117 -95l-45 36q108 183 195 183q41 0 96 -33q54 -33 78 -45t43 -13q46 0 115 89l44 -26
q-102 -187 -196 -187z" />
    <glyph glyph-name="itilde" unicode="&#x129;" horiz-adv-x="458" 
d="M301 749q32 0 32 -36v-686q-1 -23 -21 -27q-73 -12 -132 -13q-25 0 -25 25v545q0 53 -17 73t-48 19q-31 0 -52 -4l-6 48q202 56 269 56zM322 917q-32 0 -88 32t-82 45t-45 13q-46 0 -118 -94l-48 36q111 183 201 183q41 0 98 -33t80 -45t41 -12q46 0 116 88l44 -26
q-104 -187 -199 -187z" />
    <glyph glyph-name="Imacron" unicode="&#x12a;" horiz-adv-x="506" 
d="M314 1181q32 0 32 -32v-1122q0 -23 -20 -27q-73 -12 -140 -13q-26 0 -26 25v990q0 91 -71 91q-30 0 -52 -3l-6 55q194 36 283 36zM-21 1412h513l-5 -82l-503 -4z" />
    <glyph glyph-name="imacron" unicode="&#x12b;" horiz-adv-x="458" 
d="M301 749q32 0 32 -36v-686q-1 -23 -21 -27q-73 -12 -132 -13q-25 0 -25 25v545q0 53 -17 73t-48 19q-31 0 -52 -4l-6 48q202 56 269 56zM-34 1037h513l-5 -82l-503 -4z" />
    <glyph glyph-name="Ibreve" unicode="&#x12c;" horiz-adv-x="506" 
d="M314 1181q32 0 32 -32v-1122q0 -23 -20 -27q-73 -12 -140 -13q-26 0 -26 25v990q0 91 -71 91q-30 0 -52 -3l-6 55q194 36 283 36zM59 1341q-75 64 -83 185l100 17q30 -156 185 -156q104 -1 153 81q17 28 22 68l56 -8q-7 -125 -81 -188q-73 -63 -175 -63t-177 64z" />
    <glyph glyph-name="ibreve" unicode="&#x12d;" horiz-adv-x="458" 
d="M301 749q32 0 32 -36v-686q-1 -23 -21 -27q-73 -12 -132 -13q-25 0 -25 25v545q0 53 -17 73t-48 19q-31 0 -52 -4l-6 48q202 56 269 56zM224 894q-168 0 -240 144q-24 50 -28 117l103 19q34 -165 190 -165q105 1 157 87q18 30 24 71l57 -9q-8 -132 -83 -198t-180 -66z
" />
    <glyph glyph-name="Iogonek" unicode="&#x12e;" horiz-adv-x="506" 
d="M314 1181q32 0 32 -32v-1122q0 -21 -17 -27q-89 -51 -107.5 -117.5t-18.5 -98.5q0 -70 42 -116t123 -46q26 0 70 11l17 -56q-112 -41 -177 -41q-117 0 -176 49.5t-59 130.5q0 115 62 179t100 88v6q-1 -1 -13 -1h-8q-24 0 -24 25v989q0 91 -70 91q-29 0 -53 -3l-6 55
q194 36 283 36z" />
    <glyph glyph-name="iogonek" unicode="&#x12f;" horiz-adv-x="458" 
d="M247 1161q91 1 91 -101t-111 -102q-92 0 -92 102t112 101zM301 749q32 0 32 -36v-686q0 -15 -19 -29q-63 -45 -99.5 -94.5t-36.5 -123.5t44.5 -116t119.5 -42q26 0 70 11l17 -56q-112 -41 -174 -41q-113 0 -176 47t-63 134q0 148 172 266v4h-9q-24 0 -24 25v545
q0 53 -17 72.5t-48 19.5t-52 -4l-6 48q202 56 269 56z" />
    <glyph glyph-name="Idotaccent" unicode="&#x130;" horiz-adv-x="506" 
d="M314 1181q32 0 32 -32v-1122q0 -23 -20 -27q-73 -12 -140 -13q-26 0 -26 25v990q0 91 -71 91q-30 0 -52 -3l-6 55q194 36 283 36zM246 1511q91 1 91 -101t-111 -102q-45 0 -69 27t-24 75q0 101 113 101z" />
    <glyph glyph-name="dotlessi" unicode="&#x131;" horiz-adv-x="458" 
d="M301 749q32 0 32 -36v-686q-1 -23 -21 -27q-73 -12 -132 -13q-25 0 -25 25v545q0 53 -17 72.5t-48 19.5t-52 -4l-6 48q202 56 269 56z" />
    <glyph glyph-name="IJ" unicode="&#x132;" horiz-adv-x="971" 
d="M314 1181q32 0 32 -32v-1122q0 -23 -20 -27q-73 -12 -140 -13q-26 0 -26 25v990q0 91 -71 91q-30 0 -52 -3l-6 55q194 36 283 36zM799 1181q32 0 32 -32v-978q0 -270 -75 -406t-306 -230l-29 62q154 83 197 219q20 66 24 147t4 181v858q0 91 -71 91q-30 0 -52 -3l-6 55
q194 36 282 36z" />
    <glyph glyph-name="ij" unicode="&#x133;" horiz-adv-x="916" 
d="M248 1161q91 1 91 -101t-111 -102q-45 0 -69 27t-24 75q0 101 113 101zM301 749q32 0 32 -36v-686q-1 -23 -21 -27q-73 -12 -132 -13q-25 0 -25 25v545q0 53 -17 73t-48 19q-31 0 -52 -4l-6 48q202 56 269 56zM706 1161q91 1 91 -101t-111 -102q-45 0 -69 27t-24 75
q0 101 113 101zM759 749q32 0 32 -36v-565q0 -222 -59 -354q-42 -90 -126 -154t-204 -116l-30 55q105 65 139 105q85 100 97 278q4 66 5 160v435q0 53 -17 73t-48 19q-31 0 -52 -4l-6 48q202 56 269 56z" />
    <glyph glyph-name="Jcircumflex" unicode="&#x134;" horiz-adv-x="465" 
d="M293 1181q32 0 32 -32v-978q0 -270 -75 -406t-306 -230l-29 62q154 83 197 219q20 66 24 147t4 181v858q0 91 -71 91q-30 0 -52 -3l-6 55q194 36 282 36zM220 1539q51 0 58 -7t14 -19l147 -249l-7 -8h-61l-154 164h-8l-154 -164h-57l-7 8l146 240q6 11 19 23t64 12z" />
    <glyph glyph-name="jcircumflex" unicode="&#x135;" horiz-adv-x="458" 
d="M199 1184q43 6 66 6q24 0 36 -27l173 -329l-7 -8h-61l-184 224h-8l-184 -224h-57l-7 8l170 317q5 11 12.5 19t50.5 14zM301 749q32 0 32 -36v-565q0 -222 -59 -354q-42 -90 -125.5 -154.5t-204.5 -115.5l-30 55q105 65 164.5 135t68 192t8.5 216v435q0 53 -17 72.5
t-48 19.5t-52 -4l-6 48q202 56 269 56z" />
    <glyph glyph-name="Kcommaaccent" unicode="&#x136;" horiz-adv-x="1102" 
d="M314 1181q32 0 32 -32v-534l492 515q26 29 62 33q36 5 65 7t51 1q22 0 22 -18q0 -8 -6 -14l-496 -467l531 -642q5 -8 5 -13q0 -13 -19 -17q-64 -13 -171 -13q-28 0 -41 18l-495 609v-587q0 -23 -20 -27q-73 -12 -140 -13q-26 0 -26 25v990q0 91 -71 91q-30 0 -52 -3
l-6 55q194 36 283 36zM496 -217q0 65 -16 111q39 5 64 8l41 4q16 2 37 3q14 -43 14 -87q0 -99 -57 -174t-155 -79l-5 17q77 55 77 197z" />
    <glyph glyph-name="kcommaaccent" unicode="&#x137;" horiz-adv-x="866" 
d="M140 1154q0 92 -63 92q-29 0 -51 -3l-6 48q202 55 266 55q32 0 32 -36v-906l275 296q35 34 185 46q20 2 28 2q17 0 17 -16q0 -5 -8 -13l-334 -264l365 -428q5 -8 5 -13q0 -27 -162 -27q-32 0 -53 25l-318 373v-358q0 -23 -20 -27q-73 -12 -133 -13q-25 0 -25 25v1142z
M391 -217q0 65 -16 111q39 5 64 8l41 4q16 2 37 3q14 -43 14 -87q0 -99 -57 -174t-155 -79l-5 17q77 55 77 197z" />
    <glyph glyph-name="kgreenlandic" unicode="&#x138;" horiz-adv-x="881" 
d="M155 557q-1 92 -65 92q-28 0 -52 -3l-6 48q202 55 269 55q32 0 32 -36v-309l275 296q35 35 120 41.5t93 6.5q17 0 17 -16q0 -5 -8 -13l-334 -264l365 -428q5 -8 5 -13q0 -27 -162 -27q-32 0 -53 25l-318 373v-358q-1 -23 -21 -27q-73 -12 -132 -13q-25 0 -25 25v545z" />
    <glyph glyph-name="Lacute" unicode="&#x139;" horiz-adv-x="920" 
d="M314 1181q32 0 32 -32v-994q0 -48 10 -59t63 -11h99q80 0 130 4t86 25q35 21 62 64t60 121l50 -11q0 -31 -22 -129t-32 -130q-11 -32 -47 -32q-225 3 -455 3h-166q-24 0 -24 25v977q0 91 -71 91q-30 0 -52 -3l-6 55q194 36 283 36zM291 1539q121 0 121 -25q0 -4 -4 -11
l-159 -247h-54l-7 8l72 248q7 27 31 27z" />
    <glyph glyph-name="lacute" unicode="&#x13a;" horiz-adv-x="443" 
d="M140 1154q0 92 -63 92q-29 0 -51 -3l-6 48q202 55 266 55q32 0 32 -36v-1283q0 -23 -20 -27q-73 -12 -133 -13q-25 0 -25 25v1142zM261 1706q121 0 121 -25q0 -4 -4 -11l-159 -247h-54l-7 8l72 248q7 27 31 27z" />
    <glyph glyph-name="Lcommaaccent" unicode="&#x13b;" horiz-adv-x="920" 
d="M314 1181q32 0 32 -32v-994q0 -48 10 -59t63 -11h99q80 0 130 4t86 25q35 21 62 64t60 121l50 -11q0 -31 -22 -129t-32 -130q-11 -32 -47 -32q-225 3 -455 3h-166q-24 0 -24 25v977q0 91 -71 91q-30 0 -52 -3l-6 55q194 36 283 36zM451 -217q0 65 -16 111q39 5 64 8l41 4
q16 2 37 3q14 -43 14 -87q0 -99 -57 -174t-155 -79l-5 17q77 55 77 197z" />
    <glyph glyph-name="lcommaaccent" unicode="&#x13c;" horiz-adv-x="443" 
d="M140 1154q0 92 -63 92q-29 0 -51 -3l-6 48q202 55 266 55q32 0 32 -36v-1283q0 -23 -20 -27q-73 -12 -133 -13q-25 0 -25 25v1142zM171 -217q0 65 -16 111q39 5 64 8l41 4q16 2 37 3q14 -43 14 -87q0 -99 -57 -174t-155 -79l-5 17q77 55 77 197z" />
    <glyph glyph-name="Lcaron" unicode="&#x13d;" horiz-adv-x="920" 
d="M314 1181q32 0 32 -32v-994q0 -48 10 -59t63 -11h99q80 0 130 4t86 25q35 21 62 64t60 121l50 -11q0 -31 -22 -129t-32 -130q-11 -32 -47 -32q-225 3 -455 3h-166q-24 0 -24 25v977q0 91 -71 91q-30 0 -52 -3l-6 55q194 36 283 36zM703 1068q0 -106 -53 -181
q-53 -74 -145 -85l-6 18q63 56 63 158t-30 171q37 8 147 29q24 -56 24 -110z" />
    <glyph glyph-name="lcaron" unicode="&#x13e;" horiz-adv-x="656" 
d="M140 1154q0 92 -63 92q-29 0 -51 -3l-6 48q202 55 266 55q32 0 32 -36v-1283q0 -23 -20 -27q-73 -12 -133 -13q-25 0 -25 25v1142zM616 1068q0 -106 -53 -181q-53 -74 -145 -85l-6 18q63 56 63 158t-30 171q37 8 147 29q24 -56 24 -110z" />
    <glyph glyph-name="Ldot" unicode="&#x13f;" horiz-adv-x="940" 
d="M314 1181q32 0 32 -32v-994q0 -48 10 -59t63 -11h99q80 0 130 4t86 25q35 21 62 64t60 121l50 -11q0 -31 -22 -129t-32 -130q-11 -32 -47 -32q-225 3 -455 3h-166q-24 0 -24 25v977q0 91 -71 91q-30 0 -52 -3l-6 55q194 36 283 36zM734 728q91 0 91 -102t-111 -101
q-45 0 -69 27t-24 75q0 101 113 101z" />
    <glyph glyph-name="ldot" unicode="&#x140;" horiz-adv-x="622" 
d="M140 1154q0 92 -63 92q-29 0 -51 -3l-6 48q202 55 266 55q32 0 32 -36v-1283q0 -23 -20 -27q-73 -12 -133 -13q-25 0 -25 25v1142zM551 748q91 0 91 -102t-111 -101q-45 0 -69 27t-24 75q0 101 113 101z" />
    <glyph glyph-name="Lslash" unicode="&#x141;" horiz-adv-x="926" 
d="M346 155q0 -48 9.5 -59t63.5 -11h99q80 0 130.5 4t85.5 25t62 64t60 121l50 -11q0 -31 -21.5 -129t-32.5 -130t-47 -32q-225 3 -455 3h-166q-24 0 -24 25v485q-31 -10 -66 -22.5t-59 -20.5l-5 77q64 24 130 46v412q0 91 -71 91q-30 0 -52 -3l-6 55q194 36 283 36
q32 0 32 -32v-498q243 75 347 103l3 -85q-84 -21 -350 -100v-414z" />
    <glyph glyph-name="lslash" unicode="&#x142;" horiz-adv-x="478" 
d="M150 1154q0 92 -63 92q-29 0 -51 -3l-6 48q202 55 266 55q32 0 32 -36v-580q24 8 49 16t43 14q29 9 36.5 -14t7.5 -58q-52 -16 -136 -42v-619q0 -23 -20 -27q-73 -13 -133 -13q-25 0 -25 25v575l-58 -22t-55 -22l-15 72q68 31 128 53v486z" />
    <glyph glyph-name="Nacute" unicode="&#x143;" horiz-adv-x="1220" 
d="M1073 1177q16 0 16 -15l-24 -975v-183q0 -12 -17 -14q-88 -8 -96 -2t-13 14l-696 924l25 -920q0 -20 -122 -20q-16 0 -16 15l25 1042l-82 112q-4 4 -4 11q0 13 17 17q64 15 121 15q58 0 64 -6t14 -17l691 -917l-25 897q0 22 122 22zM676 1539q121 0 121 -25q0 -4 -4 -11
l-159 -247h-54l-7 8l72 248q7 27 31 27z" />
    <glyph glyph-name="nacute" unicode="&#x144;" horiz-adv-x="979" 
d="M297 749q30 0 33 -36l3 -42q225 83 299 83q126 0 179 -65t53 -181l-5 -481q0 -23 -20 -27q-71 -13 -134 -13q-24 0 -24 25l5 398v15q0 166 -89 205q-32 14 -91 14t-173 -49v-568q0 -23 -20 -27q-71 -12 -133 -13q-25 0 -25 25v545q0 53 -17 73t-48 19q-31 0 -52 -4l-6 48
q202 56 265 56zM681 1190q17 0 17 -14q0 -5 -4 -12l-190 -338h-54l-7 8l77 318q6 24 45 31t116 7z" />
    <glyph glyph-name="Ncommaaccent" unicode="&#x145;" horiz-adv-x="1220" 
d="M1073 1177q16 0 16 -15l-24 -975v-183q0 -12 -17 -14q-88 -8 -96 -2t-13 14l-696 924l25 -920q0 -20 -122 -20q-16 0 -16 15l25 1042l-82 112q-4 4 -4 11q0 13 17 17q64 15 121 15q58 0 64 -6t14 -17l691 -917l-25 897q0 22 122 22zM561 -217q0 65 -16 111q39 5 64 8
l41 4q16 2 37 3q14 -43 14 -87q0 -99 -57 -174t-155 -79l-5 17q77 55 77 197z" />
    <glyph glyph-name="ncommaaccent" unicode="&#x146;" horiz-adv-x="979" 
d="M297 749q30 0 33 -36l3 -42q225 83 299 83q126 0 179 -65t53 -181l-5 -481q0 -23 -20 -27q-71 -13 -134 -13q-24 0 -24 25l5 398v15q0 166 -89 205q-32 14 -91 14t-173 -49v-568q0 -23 -20 -27q-71 -12 -133 -13q-25 0 -25 25v545q0 53 -17 73t-48 19q-31 0 -52 -4l-6 48
q202 56 265 56zM441 -217q0 65 -16 111q39 5 64 8l41 4q16 2 37 3q14 -43 14 -87q0 -99 -57 -174t-155 -79l-5 17q77 55 77 197z" />
    <glyph glyph-name="Ncaron" unicode="&#x147;" horiz-adv-x="1220" 
d="M1073 1177q16 0 16 -15l-24 -975v-183q0 -12 -17 -14q-88 -8 -96 -2t-13 14l-696 924l25 -920q0 -20 -122 -20q-16 0 -16 15l25 1042l-82 112q-4 4 -4 11q0 13 17 17q64 15 121 15q58 0 64 -6t14 -17l691 -917l-25 897q0 22 122 22zM615 1256q-51 0 -58 7t-14 19
l-147 249l7 8h61l154 -164h8l154 164h57l7 -8l-146 -240q-6 -11 -19 -23t-64 -12z" />
    <glyph glyph-name="ncaron" unicode="&#x148;" horiz-adv-x="979" 
d="M297 749q30 0 33 -36l3 -42q225 83 299 83q126 0 179 -65t53 -181l-5 -481q0 -23 -20 -27q-71 -13 -134 -13q-24 0 -24 25l5 398v15q0 166 -89 205q-32 14 -91 14t-173 -49v-568q0 -23 -20 -27q-71 -12 -133 -13q-25 0 -25 25v545q0 53 -17 73t-48 19q-31 0 -52 -4l-6 48
q202 56 265 56zM443 828q-20 0 -35 27l-172 327l7 8h61l184 -222h8l184 222h57l7 -8l-171 -319q-6 -11 -17 -23t-113 -12z" />
    <glyph glyph-name="napostrophe" unicode="&#x149;" horiz-adv-x="1099" 
d="M112 1059q0 81 -39 148q-10 22 11 27q75 21 129 21q22 0 36 -31q13 -31 13 -79q0 -97 -54 -183q-54 -85 -156 -126l-30 27q90 74 90 196zM417 749q30 0 33 -36l3 -42q225 83 299 83q126 0 179 -65t53 -181l-5 -481q0 -23 -20 -27q-71 -13 -134 -13q-24 0 -24 25l5 398v15
q0 166 -89 205q-32 14 -91 14t-173 -49v-568q0 -23 -20 -27q-71 -13 -133 -13q-25 0 -25 25v545q0 53 -17 73t-48 19q-31 0 -52 -4l-6 48q202 56 265 56z" />
    <glyph glyph-name="Eng" unicode="&#x14a;" horiz-adv-x="1224" 
d="M314 1181q32 0 32 -32v-51q231 91 355 91q226 0 336 -161t110 -399t-91.5 -403.5t-184 -209t-145.5 -43.5q-92 0 -151.5 32t-59.5 96q0 91 115 91q17 0 40 -3v-19q0 -111 84 -111q123 0 158 204.5t35 297.5q0 216 -79.5 364.5t-256.5 148.5q-129 0 -265 -58v-989
q0 -23 -20 -27q-73 -12 -140 -13q-26 0 -26 25v990q0 91 -71 91q-30 0 -52 -3l-6 55q194 36 283 36z" />
    <glyph glyph-name="eng" unicode="&#x14b;" horiz-adv-x="979" 
d="M297 749q30 0 33 -36l3 -42q225 83 299 83q127 0 179.5 -65.5t52.5 -183.5v-7l-5 -481q-3 -207 -95 -346t-298 -139q-128 0 -165.5 47.5t-37.5 85.5q0 101 119 101q19 0 42 -3v-21q0 -64 19.5 -93.5t75.5 -29.5q98 0 130 74.5t32 204.5l5 512v6q0 174 -60.5 201
t-119.5 27t-173 -49v-568q0 -23 -20 -27q-71 -12 -133 -13q-25 0 -25 25v545q0 53 -17 72.5t-48 19.5t-52 -4l-6 48q202 56 265 56z" />
    <glyph glyph-name="Omacron" unicode="&#x14c;" horiz-adv-x="1350" 
d="M662 1105q-191 0 -283 -139t-92 -358q0 -220 94 -374q110 -179 304 -179q195 -1 293 151q86 133 87 354q0 220 -94 370q-49 78 -127 127q-78 48 -182 48zM1118 1032q152 -157 152 -444q0 -288 -169 -453q-169 -164 -443 -164q-273 0 -425 160q-153 160 -153 449t169 449
t442 160q275 0 427 -157zM419 1412h513l-5 -82l-503 -4z" />
    <glyph glyph-name="omacron" unicode="&#x14d;" horiz-adv-x="910" 
d="M625 152q35 65 35 146q0 158 -50 252q-62 117 -171 116q-108 0 -153 -84q-36 -68 -36 -148t12 -141q12 -60 39 -110q62 -115 170 -115q109 0 154 84zM65 366q0 170 114 279t287 109q172 0 276 -106q103 -106 103 -277q0 -170 -115 -281q-115 -110 -292 -110
q-165 0 -269 108t-104 278zM199 1037h513l-5 -82l-503 -4z" />
    <glyph glyph-name="Obreve" unicode="&#x14e;" horiz-adv-x="1350" 
d="M662 1105q-191 0 -283 -139t-92 -358q0 -220 94 -374q110 -179 304 -179q195 -1 293 151q86 133 87 354q0 220 -94 370q-49 78 -127 127q-78 48 -182 48zM1118 1032q152 -157 152 -444q0 -288 -169 -453q-169 -164 -443 -164q-273 0 -425 160q-153 160 -153 449t169 449
t442 160q275 0 427 -157zM499 1341q-75 64 -83 185l100 17q30 -156 185 -156q104 -1 153 81q17 28 22 68l56 -8q-7 -125 -81 -188q-73 -63 -175 -63t-177 64z" />
    <glyph glyph-name="obreve" unicode="&#x14f;" horiz-adv-x="910" 
d="M625 152q35 65 35 146q0 158 -50 252q-62 117 -171 116q-108 0 -153 -84q-36 -68 -36 -148t12 -141q12 -60 39 -110q62 -115 170 -115q109 0 154 84zM65 366q0 170 114 279t287 109q172 0 276 -106q103 -106 103 -277q0 -170 -115 -281q-115 -110 -292 -110
q-165 0 -269 108t-104 278zM482 1009q106 1 158 87q18 30 23 71l57 -9q-8 -132 -83 -198t-180 -66q-167 0 -239 144q-24 50 -29 117l103 19q34 -165 190 -165z" />
    <glyph glyph-name="Ohungarumlaut" unicode="&#x150;" horiz-adv-x="1350" 
d="M662 1105q-191 0 -283 -139t-92 -358q0 -220 94 -374q110 -179 304 -179q195 -1 293 151q86 133 87 354q0 220 -94 370q-49 78 -127 127q-78 48 -182 48zM1118 1032q152 -157 152 -444q0 -288 -169 -453q-169 -164 -443 -164q-273 0 -425 160q-153 160 -153 449t169 449
t442 160q275 0 427 -157zM727 1514q0 -4 -4 -11l-149 -247h-49l-7 8l57 248q5 27 31 27q121 0 121 -25zM845 1539q121 0 121 -25q0 -4 -4 -11l-164 -247h-49l-7 8l72 248q7 27 31 27z" />
    <glyph glyph-name="ohungarumlaut" unicode="&#x151;" horiz-adv-x="910" 
d="M625 152q35 65 35 146q0 158 -50 252q-62 117 -171 116q-108 0 -153 -84q-36 -68 -36 -148t12 -141q12 -60 39 -110q62 -115 170 -115q109 0 154 84zM65 366q0 170 114 279t287 109q172 0 276 -106q103 -106 103 -277q0 -170 -115 -281q-115 -110 -292 -110
q-165 0 -269 108t-104 278zM506 1190q16 0 16 -14q0 -6 -3 -12l-167 -338h-50l-7 8l63 318q4 23 34 28q30 6 64 8t50 2zM746 1190q16 0 16 -14q0 -6 -3 -12l-177 -338h-49l-7 8l72 318q6 24 35 28t63 8q34 2 50 2z" />
    <glyph glyph-name="OE" unicode="&#x152;" horiz-adv-x="1810" 
d="M995 932q0 94 -89 132t-201 38q-214 0 -317 -133.5t-103 -350.5q0 -379 157.5 -470.5t277.5 -91.5q170 0 222.5 57t52.5 105v714zM1598 623q0 -29 -7 -83l-410 14v-420q0 -33 13 -41t60 -8h129q80 0 130 3.5t85 23t61.5 62t59.5 120.5l50 -11q0 -40 -20.5 -131.5
t-28.5 -115.5q-12 -39 -50 -39l-485 3q-189 0 -339 -13.5t-198 -13.5q-264 0 -416.5 166t-152.5 438q0 273 169.5 440.5t461.5 167.5q78 0 199.5 -13.5t246.5 -13.5h366q63 0 153 2q15 0 17 -14t3.5 -37.5t2.5 -50.5t4 -83t3 -86l-50 -5q-33 136 -69.5 160.5t-78 28
t-107.5 3.5h-176q-32 0 -37.5 -5.5t-5.5 -31.5v-406l389 19q28 0 28 -29z" />
    <glyph glyph-name="oe" unicode="&#x153;" horiz-adv-x="1387" 
d="M1016 659q-95 0 -140.5 -60t-47.5 -152l302 22q5 23 5 67t-32.5 83.5t-86.5 39.5zM612.5 142.5q39.5 74.5 39.5 155.5q0 156 -54.5 262t-160.5 106t-146.5 -75t-40.5 -157q0 -81 11.5 -141t55 -142.5t150.5 -82.5q106 0 145.5 74.5zM1148 101q88 0 182 40l22 -56
q-138 -67 -239 -86t-129 -19q-161 0 -254 126q-113 -126 -287 -126t-276 108t-102 278t112.5 279t292.5 109t285 -140q127 140 321 140q110 0 172.5 -64t62.5 -169q0 -44 -17 -110l-465 -25q13 -201 122 -243t197 -42z" />
    <glyph glyph-name="Racute" unicode="&#x154;" horiz-adv-x="1077" 
d="M815 15q-37 35 -63 124l-71 244q-29 99 -83 127t-189 33l-9 57q160 10 238 74q77 64 77 190t-80 184q-80 59 -209 59q-40 -1 -60 -7t-20 -36v-1037q0 -23 -20 -27q-73 -12 -140 -13q-26 0 -26 25v1003q0 51 -22 67t-50 16t-51 -3l-6 55q235 40 427 40q458 0 458 -282
q0 -222 -253 -313v-6q155 -31 199 -169l74 -229q29 -92 53 -116q24 -25 78 -25l3 -52q-86 -18 -152 -18t-103 35zM531 1539q121 0 121 -25q0 -4 -4 -11l-159 -247h-54l-7 8l72 248q7 27 31 27z" />
    <glyph glyph-name="racute" unicode="&#x155;" horiz-adv-x="726" 
d="M301 749q32 0 32 -36v-51q165 92 262 92q51 0 81 -33t30 -67q0 -59 -32 -93q-32 -33 -91 -33h-21q-12 0 -22 2v22q0 83 -66 83q-58 0 -141 -46v-562q-1 -23 -21 -27q-73 -12 -132 -13q-25 0 -25 25v545q0 53 -17 73t-48 19q-31 0 -52 -4l-6 48q202 56 269 56zM571 1190
q17 0 17 -14q0 -5 -4 -12l-190 -338h-54l-7 8l77 318q6 24 45 31t116 7z" />
    <glyph glyph-name="Rcommaaccent" unicode="&#x156;" horiz-adv-x="1077" 
d="M815 15q-37 35 -63 124l-71 244q-29 99 -83 127t-189 33l-9 57q160 10 238 74q77 64 77 190t-80 184q-80 59 -209 59q-40 -1 -60 -7t-20 -36v-1037q0 -23 -20 -27q-73 -12 -140 -13q-26 0 -26 25v1003q0 51 -22 67t-50 16t-51 -3l-6 55q235 40 427 40q458 0 458 -282
q0 -222 -253 -313v-6q155 -31 199 -169l74 -229q29 -92 53 -116q24 -25 78 -25l3 -52q-86 -18 -152 -18t-103 35zM466 -217q0 65 -16 111q39 5 64 8l41 4q16 2 37 3q14 -43 14 -87q0 -99 -57 -174t-155 -79l-5 17q77 55 77 197z" />
    <glyph glyph-name="rcommaaccent" unicode="&#x157;" horiz-adv-x="726" 
d="M301 749q32 0 32 -36v-51q165 92 262 92q51 0 81 -33t30 -67q0 -59 -32 -93q-32 -33 -91 -33h-21q-12 0 -22 2v22q0 83 -66 83q-58 0 -141 -46v-562q-1 -23 -21 -27q-73 -12 -132 -13q-25 0 -25 25v545q0 53 -17 73t-48 19q-31 0 -52 -4l-6 48q202 56 269 56zM191 -217
q0 65 -16 111q39 5 64 8l41 4q16 2 37 3q14 -43 14 -87q0 -99 -57 -174t-155 -79l-5 17q77 55 77 197z" />
    <glyph glyph-name="Rcaron" unicode="&#x158;" horiz-adv-x="1077" 
d="M815 15q-37 35 -63 124l-71 244q-29 99 -83 127t-189 33l-9 57q160 10 238 74q77 64 77 190t-80 184q-80 59 -209 59q-40 -1 -60 -7t-20 -36v-1037q0 -23 -20 -27q-73 -12 -140 -13q-26 0 -26 25v1003q0 51 -22 67t-50 16t-51 -3l-6 55q235 40 427 40q458 0 458 -282
q0 -222 -253 -313v-6q155 -31 199 -169l74 -229q29 -92 53 -116q24 -25 78 -25l3 -52q-86 -18 -152 -18t-103 35zM470 1256q-51 0 -58 7t-14 19l-147 249l7 8h61l154 -164h8l154 164h57l7 -8l-146 -240q-6 -11 -19 -23t-64 -12z" />
    <glyph glyph-name="rcaron" unicode="&#x159;" horiz-adv-x="726" 
d="M301 749q32 0 32 -36v-51q165 92 262 92q51 0 81 -33t30 -67q0 -59 -32 -93q-32 -33 -91 -33h-21q-12 0 -22 2v22q0 83 -66 83q-58 0 -141 -46v-562q-1 -23 -21 -27q-73 -12 -132 -13q-25 0 -25 25v545q0 53 -17 73t-48 19q-31 0 -52 -4l-6 48q202 56 269 56zM333 828
q-20 0 -35 27l-172 327l7 8h61l184 -222h8l184 222h57l7 -8l-171 -319q-6 -11 -17 -23t-113 -12z" />
    <glyph glyph-name="Sacute" unicode="&#x15a;" horiz-adv-x="924" 
d="M474 1098q-103 0 -170 -51q-68 -51 -68 -154q0 -119 173 -188q50 -19 107 -41q158 -60 224 -113q106 -85 107 -225q0 -246 -253 -324q-206 -64 -490 0q-18 4 -21 24q-11 96 -11 258l50 5q13 -116 90 -174t194 -58q176 0 239 114q22 40 22 92q-1 87 -85 143
q-41 27 -145 69q-105 41 -165 69q-214 98 -214 289q0 190 140 279q116 74 304 74q116 0 242 -31q18 -4 21 -24q12 -105 12 -239l-51 -5q-28 159 -162 199q-42 12 -90 12zM516 1539q121 0 121 -25q0 -4 -4 -11l-159 -247h-54l-7 8l72 248q7 27 31 27z" />
    <glyph glyph-name="sacute" unicode="&#x15b;" horiz-adv-x="711" 
d="M508 625q-39 49 -127 49q-87 0 -123 -50q-13 -18 -13 -45q0 -49 55 -83q31 -19 99 -44q131 -49 183 -89q74 -59 74 -134q0 -129 -108 -189t-218 -60q-111 0 -167 24q-55 24 -81 53q-26 28 -26 69q0 93 117 93q22 0 38 -3v-17q-1 -65 31 -101t114 -36t116 54q12 18 11 47
q1 27 -15 49t-42 38t-58 30q-33 14 -71 28q-109 42 -153 76q-74 58 -73 159q1 103 115 163q92 50 205 49q113 0 197 -26q8 -2 8 -8q8 -68 8 -206l-49 -4q-26 88 -47 114zM551 1190q17 0 17 -14q0 -5 -4 -12l-190 -338h-54l-7 8l77 318q6 24 45 31t116 7z" />
    <glyph glyph-name="Scircumflex" unicode="&#x15c;" horiz-adv-x="924" 
d="M474 1098q-103 0 -170 -51q-68 -51 -68 -154q0 -119 173 -188q50 -19 107 -41q158 -60 224 -113q106 -85 107 -225q0 -246 -253 -324q-206 -64 -490 0q-18 4 -21 24q-11 96 -11 258l50 5q13 -116 90 -174t194 -58q176 0 239 114q22 40 22 92q-1 87 -85 143
q-41 27 -145 69q-105 41 -165 69q-214 98 -214 289q0 190 140 279q116 74 304 74q116 0 242 -31q18 -4 21 -24q12 -105 12 -239l-51 -5q-28 159 -162 199q-42 12 -90 12zM465 1539q51 0 58 -7t14 -19l147 -249l-7 -8h-61l-154 164h-8l-154 -164h-57l-7 8l146 240q6 11 19 23
t64 12z" />
    <glyph glyph-name="scircumflex" unicode="&#x15d;" horiz-adv-x="711" 
d="M508 625q-39 49 -127 49q-87 0 -123 -50q-13 -18 -13 -45q0 -49 55 -83q31 -19 99 -44q131 -49 183 -89q74 -59 74 -134q0 -129 -108 -189t-218 -60q-111 0 -167 24q-55 24 -81 53q-26 28 -26 69q0 93 117 93q22 0 38 -3v-17q-1 -65 31 -101t114 -36t116 54q12 18 11 47
q1 27 -15 49t-42 38t-58 30q-33 14 -71 28q-109 42 -153 76q-74 58 -73 159q1 103 115 163q92 50 205 49q113 0 197 -26q8 -2 8 -8q8 -68 8 -206l-49 -4q-26 88 -47 114zM339 1184q43 6 66 6q24 0 36 -27l173 -329l-7 -8h-61l-184 224h-8l-184 -224h-57l-7 8l170 317
q4 11 12 19t51 14z" />
    <glyph glyph-name="Scedilla" unicode="&#x15e;" horiz-adv-x="924" 
d="M424 -109q142 -16 142 -153q0 -38 -46 -99.5t-221 -61.5h-13l-8 61q77 12 117.5 29.5t40.5 60.5t-30 62.5t-68 19.5h-6q-8 0 -9 -1l-19 43l91 119h-25q-130 0 -266 31q-18 4 -21 24q-11 96 -11 258l50 5q13 -116 90 -174t194 -58q176 0 218.5 77t42.5 129q0 88 -63 129.5
t-167 82.5q-105 41 -242 104t-137 253q0 191 127.5 272.5t316.5 81.5q116 0 242 -31q18 -4 21 -24q12 -105 12 -239l-51 -5q-38 211 -252 211q-162 0 -200 -75.5t-38 -126.5q0 -90 66.5 -134t168.5 -82t239 -98.5t137 -255.5q0 -163 -104 -245.5t-268 -103.5z" />
    <glyph glyph-name="scedilla" unicode="&#x15f;" horiz-adv-x="711" 
d="M329 -109q142 -16 142 -153q0 -38 -46 -99.5t-221 -61.5h-13l-8 61q77 12 117.5 29.5t40.5 60.5t-30 62.5t-68 19.5h-6q-8 0 -9 -1l-19 43l97 128q-152 0 -201 52.5t-49 93.5q0 93 117 93q22 0 38 -3v-17q0 -66 31.5 -101.5t113.5 -35.5t104.5 36.5t22.5 64.5t-15.5 49.5
t-41 38t-58.5 30t-71 27.5q-108 41 -167 87t-59 148t103.5 157t216.5 55t197 -26q8 -2 8 -8q8 -68 8 -206l-49 -4q-26 89 -56.5 126t-117.5 37t-111.5 -34t-24.5 -71.5t43 -64.5t111 -52q132 -49 194.5 -98.5t62.5 -141.5t-78.5 -151t-192.5 -75z" />
    <glyph glyph-name="Scaron" unicode="&#x160;" horiz-adv-x="924" 
d="M474 1098q-103 0 -170 -51q-68 -51 -68 -154q0 -119 173 -188q50 -19 107 -41q158 -60 224 -113q106 -85 107 -225q0 -246 -253 -324q-206 -64 -490 0q-18 4 -21 24q-11 96 -11 258l50 5q13 -116 90 -174t194 -58q176 0 239 114q22 40 22 92q-1 87 -85 143
q-41 27 -145 69q-105 41 -165 69q-214 98 -214 289q0 190 140 279q116 74 304 74q116 0 242 -31q18 -4 21 -24q12 -105 12 -239l-51 -5q-28 159 -162 199q-42 12 -90 12zM455 1256q-51 0 -58 7t-14 19l-147 249l7 8h61l154 -164h8l154 164h57l7 -8l-146 -240q-6 -11 -19 -23
t-64 -12z" />
    <glyph glyph-name="scaron" unicode="&#x161;" horiz-adv-x="711" 
d="M508 625q-39 49 -127 49q-87 0 -123 -50q-13 -18 -13 -45q0 -49 55 -83q31 -19 99 -44q131 -49 183 -89q74 -59 74 -134q0 -129 -108 -189t-218 -60q-111 0 -167 24q-55 24 -81 53q-26 28 -26 69q0 93 117 93q22 0 38 -3v-17q-1 -65 31 -101t114 -36t116 54q12 18 11 47
q1 27 -15 49t-42 38t-58 30q-33 14 -71 28q-109 42 -153 76q-74 58 -73 159q1 103 115 163q92 50 205 49q113 0 197 -26q8 -2 8 -8q8 -68 8 -206l-49 -4q-26 88 -47 114zM313 828q-20 0 -35 27l-172 327l7 8h61l184 -222h8l184 222h57l7 -8l-171 -319q-6 -11 -17 -23
t-113 -12z" />
    <glyph glyph-name="Tcommaaccent" unicode="&#x162;" horiz-adv-x="1092" 
d="M715 1158q147 0 329 4q14 0 16 -14t4 -40q2 -24 2 -52q2 -28 3 -59q1 -30 1 -55t2 -43v-22l-50 -5q-33 146 -79 180q-27 20 -69 22q-42 4 -107 4h-128v-1051q-1 -23 -21 -27q-73 -13 -139 -13q-26 0 -26 25v1066h-123q-66 0 -108 -4t-70 -22q-50 -35 -82 -180l-50 5
q0 23 2 57q2 33 4 63q5 107 11 150q1 15 18 15q182 -4 327 -4h333zM487 -217q0 65 -16 111q39 5 64 8l41 4q16 2 37 3q14 -43 14 -87q0 -99 -57 -174t-155 -79l-5 17q77 55 77 197z" />
    <glyph glyph-name="Tcommaaccent" unicode="&#x21a;" horiz-adv-x="1092" 
d="M715 1158q147 0 329 4q14 0 16 -14t4 -40q2 -24 2 -52q2 -28 3 -59q1 -30 1 -55t2 -43v-22l-50 -5q-33 146 -79 180q-27 20 -69 22q-42 4 -107 4h-128v-1051q-1 -23 -21 -27q-73 -13 -139 -13q-26 0 -26 25v1066h-123q-66 0 -108 -4t-70 -22q-50 -35 -82 -180l-50 5
q0 23 2 57q2 33 4 63q5 107 11 150q1 15 18 15q182 -4 327 -4h333zM487 -217q0 65 -16 111q39 5 64 8l41 4q16 2 37 3q14 -43 14 -87q0 -99 -57 -174t-155 -79l-5 17q77 55 77 197z" />
    <glyph glyph-name="tcommaaccent" unicode="&#x163;" horiz-adv-x="614" 
d="M138 869q0 37 20 45q109 39 136 39q22 0 22 -25v-204q134 6 211 6q21 0 21 -21v-2l-4 -62l-228 -1v-425q0 -128 130 -128q60 0 139 30l21 -61q-179 -80 -264 -80q-143 0 -189 124q-15 40 -15 94v445l-115 -3l-3 67q13 1 118 8v154zM277 -217q0 65 -16 111q39 5 64 8l41 4
q16 2 37 3q14 -43 14 -87q0 -99 -57 -174t-155 -79l-5 17q77 55 77 197z" />
    <glyph glyph-name="tcommaaccent" unicode="&#x21b;" horiz-adv-x="614" 
d="M138 869q0 37 20 45q109 39 136 39q22 0 22 -25v-204q134 6 211 6q21 0 21 -21v-2l-4 -62l-228 -1v-425q0 -128 130 -128q60 0 139 30l21 -61q-179 -80 -264 -80q-143 0 -189 124q-15 40 -15 94v445l-115 -3l-3 67q13 1 118 8v154zM277 -217q0 65 -16 111q39 5 64 8l41 4
q16 2 37 3q14 -43 14 -87q0 -99 -57 -174t-155 -79l-5 17q77 55 77 197z" />
    <glyph glyph-name="Tcaron" unicode="&#x164;" horiz-adv-x="1092" 
d="M715 1158q147 0 329 4q14 0 16 -14t4 -40q2 -24 2 -52q2 -28 3 -59q1 -30 1 -55t2 -43v-22l-50 -5q-33 146 -79 180q-27 20 -69 22q-42 4 -107 4h-128v-1051q-1 -23 -21 -27q-73 -13 -139 -13q-26 0 -26 25v1066h-123q-66 0 -108 -4t-70 -22q-50 -35 -82 -180l-50 5
q0 23 2 57q2 33 4 63q5 107 11 150q1 15 18 15q182 -4 327 -4h333zM541 1256q-51 0 -58 7t-14 19l-147 249l7 8h61l154 -164h8l154 164h57l7 -8l-146 -240q-6 -11 -19 -23t-64 -12z" />
    <glyph glyph-name="tcaron" unicode="&#x165;" horiz-adv-x="663" 
d="M138 869q0 37 20 45q109 39 136 39q22 0 22 -25v-204q134 6 211 6q21 0 21 -21v-2l-4 -62l-228 -1v-425q0 -128 130 -128q60 0 139 30l21 -61q-179 -80 -264 -80q-143 0 -189 124q-15 40 -15 94v445l-115 -3l-3 67q13 1 118 8v154zM623 1068q0 -106 -53 -181
q-53 -74 -145 -85l-6 18q63 56 63 158t-30 171q37 8 147 29q24 -56 24 -110z" />
    <glyph glyph-name="Tbar" unicode="&#x166;" horiz-adv-x="1092" 
d="M715 1158q147 0 329 4q14 0 16 -14t3.5 -39t3 -53.5t2.5 -58.5t1.5 -55t1 -43t0.5 -22l-50 -5q-33 146 -69.5 172.5t-78 30t-107.5 3.5h-128v-443h284l-5 -82l-279 -2v-524q-1 -23 -21 -27q-73 -13 -139 -13q-26 0 -26 25v538l-276 -1l-5 86h281v443h-123
q-65 0 -107.5 -3.5t-81.5 -30.5t-71 -172l-50 5q0 23 2 56.5t5.5 102t9.5 111.5q1 15 18 15q182 -4 327 -4h333z" />
    <glyph glyph-name="tbar" unicode="&#x167;" horiz-adv-x="614" 
d="M527 526q21 0 21 -22v-2l-4 -57l-228 -1v-225q0 -128 130 -128q60 0 139 30l21 -61q-179 -80 -264 -80q-143 0 -173.5 82.5t-30.5 135.5v245h-106l-3 66l109 6v128l-115 -3l-3 67q13 1 118 8v154q0 37 20 45q109 39 136 39q22 0 22 -25v-204q134 6 211 6q21 0 21 -21v-2
l-4 -62l-228 -1v-120l142 2h69z" />
    <glyph glyph-name="Utilde" unicode="&#x168;" horiz-adv-x="1225" 
d="M304 1181q32 0 32 -32v-784q-3 -209 159 -255q48 -14 104 -13q118 0 280 80v954q0 23 20 27q65 13 142 13q24 0 24 -25v-1119q-1 -23 -21 -27q-73 -13 -133 -13q-24 0 -25 25l-7 82q-219 -121 -407 -121q-222 -1 -296 167q-26 58 -26 136v726q0 91 -70 91q-29 0 -53 -3
l-6 55q194 36 283 36zM705 1275q-33 1 -89 33t-80 45t-44 13q-45 0 -117 -95l-45 36q108 183 195 183q41 0 96 -33q54 -33 78 -45t43 -13q46 0 115 89l44 -26q-102 -187 -196 -187z" />
    <glyph glyph-name="utilde" unicode="&#x169;" horiz-adv-x="983" 
d="M511 91q59 0 169 48v418q0 53 -17 73t-49 19q-31 0 -51 -4l-6 48q202 56 269 56q32 0 32 -36v-571q0 -27 16 -123q0 -15 -16 -19q-64 -13 -104 -13t-46 6t-8 18l-15 56q-227 -87 -301 -87q-125 0 -178 65t-53 181l5 331q2 92 -65 92q-31 0 -52 -4l-6 48q202 56 269 56
q32 0 32 -36l-5 -389v-15q0 -165 89 -204q32 -14 91 -14zM600 917q-32 0 -88 32t-82 45t-45 13q-46 0 -118 -94l-48 36q111 183 201 183q41 0 98 -33t80 -45t41 -12q46 0 116 88l44 -26q-104 -187 -199 -187z" />
    <glyph glyph-name="Umacron" unicode="&#x16a;" horiz-adv-x="1225" 
d="M304 1181q32 0 32 -32v-784q-3 -209 159 -255q48 -14 104 -13q118 0 280 80v954q0 23 20 27q65 13 142 13q24 0 24 -25v-1119q-1 -23 -21 -27q-73 -13 -133 -13q-24 0 -25 25l-7 82q-219 -121 -407 -121q-222 -1 -296 167q-26 58 -26 136v726q0 91 -70 91q-29 0 -53 -3
l-6 55q194 36 283 36zM349 1412h513l-5 -82l-503 -4z" />
    <glyph glyph-name="umacron" unicode="&#x16b;" horiz-adv-x="983" 
d="M511 91q59 0 169 48v418q0 53 -17 73t-49 19q-31 0 -51 -4l-6 48q202 56 269 56q32 0 32 -36v-571q0 -27 16 -123q0 -15 -16 -19q-64 -13 -104 -13t-46 6t-8 18l-15 56q-227 -87 -301 -87q-125 0 -178 65t-53 181l5 331q2 92 -65 92q-31 0 -52 -4l-6 48q202 56 269 56
q32 0 32 -36l-5 -389v-15q0 -165 89 -204q32 -14 91 -14zM244 1037h513l-5 -82l-503 -4z" />
    <glyph glyph-name="Ubreve" unicode="&#x16c;" horiz-adv-x="1225" 
d="M304 1181q32 0 32 -32v-784q-3 -209 159 -255q48 -14 104 -13q118 0 280 80v954q0 23 20 27q65 13 142 13q24 0 24 -25v-1119q-1 -23 -21 -27q-73 -13 -133 -13q-24 0 -25 25l-7 82q-219 -121 -407 -121q-222 -1 -296 167q-26 58 -26 136v726q0 91 -70 91q-29 0 -53 -3
l-6 55q194 36 283 36zM429 1341q-75 64 -83 185l100 17q30 -156 185 -156q104 -1 153 81q17 28 22 68l56 -8q-7 -125 -81 -188q-73 -63 -175 -63t-177 64z" />
    <glyph glyph-name="ubreve" unicode="&#x16d;" horiz-adv-x="983" 
d="M511 91q59 0 169 48v418q0 53 -17 73t-49 19q-31 0 -51 -4l-6 48q202 56 269 56q32 0 32 -36v-571q0 -27 16 -123q0 -15 -16 -19q-64 -13 -104 -13t-46 6t-8 18l-15 56q-227 -87 -301 -87q-125 0 -178 65t-53 181l5 331q2 92 -65 92q-31 0 -52 -4l-6 48q202 56 269 56
q32 0 32 -36l-5 -389v-15q0 -165 89 -204q32 -14 91 -14zM527 1009q105 1 157 87q18 30 24 71l57 -9q-8 -132 -83 -198t-180 -66q-168 0 -240 144q-24 50 -28 117l103 19q34 -165 190 -165z" />
    <glyph glyph-name="Uring" unicode="&#x16e;" horiz-adv-x="1225" 
d="M304 1181q32 0 32 -32v-784q-3 -209 159 -255q48 -14 104 -13q118 0 280 80v954q0 23 20 27q65 13 142 13q24 0 24 -25v-1119q-1 -23 -21 -27q-73 -13 -133 -13q-24 0 -25 25l-7 82q-219 -121 -407 -121q-222 -1 -296 167q-26 58 -26 136v726q0 91 -70 91q-29 0 -53 -3
l-6 55q194 36 283 36zM700 1412q0 51 -24 84t-70 33q-48 1 -72 -31t-24 -84t24 -86q24 -32 71 -32t71 32t24 84zM754 1295q-57 -46 -149 -46q-145 0 -191 96q-14 31 -15 67q0 72 60 117q60 46 147 46q88 0 146 -44q59 -44 59 -117t-57 -119z" />
    <glyph glyph-name="uring" unicode="&#x16f;" horiz-adv-x="983" 
d="M511 91q59 0 169 48v418q0 53 -17 73t-49 19q-31 0 -51 -4l-6 48q202 56 269 56q32 0 32 -36v-571q0 -27 16 -123q0 -15 -16 -19q-64 -13 -104 -13t-46 6t-8 18l-15 56q-227 -87 -301 -87q-125 0 -178 65t-53 181l5 331q2 92 -65 92q-31 0 -52 -4l-6 48q202 56 269 56
q32 0 32 -36l-5 -389v-15q0 -165 89 -204q32 -14 91 -14zM500 1184q-98 0 -98 -127q0 -55 25 -91t73 -36t73 35t25 91t-25 92t-73 36zM713 1058q1 -40 -15 -72t-44 -57q-28 -24 -67 -37t-87 -13q-95 0 -154 48t-59 128q0 79 62 129t151 50q144 0 196 -104q16 -32 17 -72z
" />
    <glyph glyph-name="Uhungarumlaut" unicode="&#x170;" horiz-adv-x="1225" 
d="M304 1181q32 0 32 -32v-784q-3 -209 159 -255q48 -14 104 -13q118 0 280 80v954q0 23 20 27q65 13 142 13q24 0 24 -25v-1119q-1 -23 -21 -27q-73 -13 -133 -13q-24 0 -25 25l-7 82q-219 -121 -407 -121q-222 -1 -296 167q-26 58 -26 136v726q0 91 -70 91q-29 0 -53 -3
l-6 55q194 36 283 36zM657 1514q0 -4 -4 -11l-149 -247h-49l-7 8l57 248q5 27 31 27q121 0 121 -25zM775 1539q121 0 121 -25q0 -4 -4 -11l-164 -247h-49l-7 8l72 248q7 27 31 27z" />
    <glyph glyph-name="uhungarumlaut" unicode="&#x171;" horiz-adv-x="983" 
d="M511 91q59 0 169 48v418q0 53 -17 73t-49 19q-31 0 -51 -4l-6 48q202 56 269 56q32 0 32 -36v-571q0 -27 16 -123q0 -15 -16 -19q-64 -13 -104 -13t-46 6t-8 18l-15 56q-227 -87 -301 -87q-125 0 -178 65t-53 181l5 331q2 92 -65 92q-31 0 -52 -4l-6 48q202 56 269 56
q32 0 32 -36l-5 -389v-15q0 -165 89 -204q32 -14 91 -14zM551 1190q16 0 16 -14q0 -6 -3 -12l-167 -338h-50l-7 8l63 318q5 23 35 28q30 6 63 8q34 2 50 2zM791 1190q16 0 16 -14q0 -6 -3 -12l-177 -338h-49l-7 8l72 318q6 24 35 28t63 8q34 2 50 2z" />
    <glyph glyph-name="Uogonek" unicode="&#x172;" horiz-adv-x="1225" 
d="M304 1181q32 0 32 -32v-784q-3 -209 102 -238.5t161 -29.5q118 0 280 80v954q0 23 20 27q65 13 142 13q24 0 24 -25v-1121q0 -16 -30 -30q-92 -40 -148 -90t-56 -124q0 -75 44.5 -117t119.5 -42q26 0 70 11l17 -56q-112 -41 -174 -41q-113 0 -176 47t-63 135
q0 119 85.5 184t137.5 90l-13 102q-219 -121 -407 -121q-222 0 -272 112.5t-50 190.5v726q0 91 -70 91q-29 0 -53 -3l-6 55q194 36 283 36z" />
    <glyph glyph-name="uogonek" unicode="&#x173;" horiz-adv-x="983" 
d="M510 91q59 0 170 48v418q0 53 -17 72.5t-49 19.5q-31 0 -51 -4l-6 48q202 56 269 56q32 0 32 -36v-571q0 -52 9 -90t4.5 -43t-29.5 -16q-84 -37 -140.5 -87t-56.5 -125t44.5 -117t119.5 -42q26 0 70 11l17 -56q-112 -41 -174 -41q-113 0 -176 47t-63 135q0 119 85.5 184
t137.5 90l-21 75q-227 -87 -301 -87q-127 0 -180 68t-51 188l5 321q2 92 -65 92q-31 0 -52 -4l-6 48q202 56 269 56q32 0 32 -36l-5 -389q-3 -177 58.5 -205t120.5 -28z" />
    <glyph glyph-name="Wcircumflex" unicode="&#x174;" horiz-adv-x="1668" 
d="M24 1094q-26 0 -49 -4l-6 55q176 36 229 36q52 1 60 -9t13 -27l295 -922h4l218 661l-81 253q-9 23 29 31q60 12 101 13q42 1 48 -5t10 -18l304 -944h4l268 915q7 22 27 28q46 14 88 14t42 -9t-4 -20l-410 -1134q-6 -16 -17 -18q-99 -11 -110 -5q-11 5 -14 15l-236 731
l-253 -723q-6 -16 -17 -18q-53 -6 -81 -6t-34 3t-9 13l-326 1015q-27 79 -93 79zM820 1539q51 0 58 -7t14 -19l147 -249l-7 -8h-61l-154 164h-8l-154 -164h-57l-7 8l146 240q6 11 19 23t64 12z" />
    <glyph glyph-name="wcircumflex" unicode="&#x175;" horiz-adv-x="1288" 
d="M-21 693q188 55 258 55q19 0 32 -36l178 -498h4l183 488q8 20 20 23t22 4t19 1t17 2h12q14 0 22 -20l185 -498h4l172 487q7 22 27 28q65 19 119 19q14 0 14 -12q0 -5 -5 -17l-323 -712q-8 -17 -18 -19q-57 -8 -66 -3t-13 15l-191 504l-195 -497q-6 -16 -14 -17
q-8 -2 -16 -3t-18 -1q-9 0 -17 -2h-13q-14 0 -20 16l-232 571q-34 78 -92 78q-26 0 -49 -4zM659 1184q43 6 66 6q24 0 36 -27l173 -329l-7 -8h-61l-184 224h-8l-184 -224h-57l-7 8l170 317q4 11 12 19t51 14z" />
    <glyph glyph-name="Ycircumflex" unicode="&#x176;" horiz-adv-x="986" 
d="M186 1181q46 0 55 -9t18 -26l284 -510l242 493q12 24 30 29q46 13 110 13q20 0 20 -12q0 -4 -2 -8t-4 -9l-359 -602v-513q0 -23 -20 -27q-73 -13 -140 -13q-26 0 -26 25v510l-277 494q-44 80 -89 80q-20 0 -53 -5l-6 55q171 35 217 35zM510 1539q51 0 58 -7t14 -19
l147 -249l-7 -8h-61l-154 164h-8l-154 -164h-57l-7 8l146 240q6 11 19 23t64 12z" />
    <glyph glyph-name="ycircumflex" unicode="&#x177;" horiz-adv-x="817" 
d="M-24 693q188 55 258 55q17 0 32 -36l193 -498h4l187 487q9 23 28 29q66 18 99 18t33 -10t-20 -50t-60 -118q-38 -78 -77 -160q-169 -350 -224 -482q-54 -133 -78 -187q-93 -209 -251 -209q-51 0 -82 29q-32 29 -32 71q0 41 24 66q42 -24 79 -24q70 0 122 45
q51 45 101 153l58 128l-249 570q-33 79 -89 79q-26 0 -50 -4zM429 1184q43 6 66 6q24 0 36 -27l173 -329l-7 -8h-61l-184 224h-8l-184 -224h-57l-7 8l170 317q4 11 12 19t51 14z" />
    <glyph glyph-name="Ydieresis" unicode="&#x178;" horiz-adv-x="986" 
d="M186 1181q46 0 55 -9t18 -26l284 -510l242 493q12 24 30 29q46 13 110 13q20 0 20 -12q0 -4 -2 -8t-4 -9l-359 -602v-513q0 -23 -20 -27q-73 -13 -140 -13q-26 0 -26 25v510l-277 494q-44 80 -89 80q-20 0 -53 -5l-6 55q171 35 217 35zM570 1407q0 97 109 97q43 0 65 -26
t23 -71q0 -99 -107 -99q-42 0 -66 27t-24 72zM243 1407q0 97 109 97q44 0 66 -26t22 -71q0 -99 -107 -99q-43 0 -67 27t-23 72z" />
    <glyph glyph-name="Zacute" unicode="&#x179;" horiz-adv-x="1059" 
d="M933 -2q-182 4 -333 4h-307l-245 -4q-8 0 -13 26t-5 30q0 6 4 10l694 1014h-361q-65 0 -107 -4t-71 -22q-50 -35 -82 -180l-50 5q0 23 2 57q1 33 3 63t5 79t6 68q2 18 17 18q182 -4 331 -4h299l233 4q6 0 9 -5q10 -28 10 -35q0 -8 -2 -18l-703 -1022h389q65 0 108 5
q44 5 72 27q51 39 83 184l50 -5q-1 -140 -11 -213q-10 -74 -14 -78t-11 -4zM727 1514q0 -4 -4 -11l-159 -247h-54l-7 8l72 248q7 27 31 27q121 0 121 -25z" />
    <glyph glyph-name="zacute" unicode="&#x17a;" horiz-adv-x="813" 
d="M281 733h261q52 0 182 2q6 0 9 -5q10 -28 10 -35q0 -8 -2 -18l-459 -602h255q107 0 143 99q12 31 22 69l49 -4q0 -107 -14 -233q-2 -8 -10 -8q-134 2 -190 2h-275q-55 0 -189 -2q-8 0 -13 26t-5 30t3 9l451 595h-233q-103 0 -134 -89q-10 -29 -21 -66l-49 4q0 94 14 220
q2 8 10 8q132 -2 185 -2zM606 1190q17 0 17 -14q0 -5 -4 -12l-190 -338h-54l-7 8l77 318q6 24 45 31t116 7z" />
    <glyph glyph-name="Zdotaccent" unicode="&#x17b;" horiz-adv-x="1059" 
d="M933 -2q-182 4 -333 4h-307l-245 -4q-8 0 -13 26t-5 30q0 6 4 10l694 1014h-361q-65 0 -107 -4t-71 -22q-50 -35 -82 -180l-50 5q0 23 2 57q1 33 3 63t5 79t6 68q2 18 17 18q182 -4 331 -4h299l233 4q6 0 9 -5q10 -28 10 -35q0 -8 -2 -18l-703 -1022h389q65 0 108 5
q44 5 72 27q51 39 83 184l50 -5q-1 -140 -11 -213q-10 -74 -14 -78t-11 -4zM561 1511q91 1 91 -101t-111 -102q-45 0 -69 27t-24 75q0 101 113 101z" />
    <glyph glyph-name="zdotaccent" unicode="&#x17c;" horiz-adv-x="813" 
d="M281 733h261q52 0 182 2q6 0 9 -5q10 -28 10 -35q0 -8 -2 -18l-459 -602h255q107 0 143 99q12 31 22 69l49 -4q0 -107 -14 -233q-2 -8 -10 -8q-134 2 -190 2h-275q-55 0 -189 -2q-8 0 -13 26t-5 30t3 9l451 595h-233q-103 0 -134 -89q-10 -29 -21 -66l-49 4q0 94 14 220
q2 8 10 8q132 -2 185 -2zM421 1161q91 1 91 -101t-111 -102q-45 0 -69 27t-24 75q0 101 113 101z" />
    <glyph glyph-name="Zcaron" unicode="&#x17d;" horiz-adv-x="1059" 
d="M933 -2q-182 4 -333 4h-307l-245 -4q-8 0 -13 26t-5 30q0 6 4 10l694 1014h-361q-65 0 -107 -4t-71 -22q-50 -35 -82 -180l-50 5q0 23 2 57q1 33 3 63t5 79t6 68q2 18 17 18q182 -4 331 -4h299l233 4q6 0 9 -5q10 -28 10 -35q0 -8 -2 -18l-703 -1022h389q65 0 108 5
q44 5 72 27q51 39 83 184l50 -5q-1 -140 -11 -213q-10 -74 -14 -78t-11 -4zM545 1256q-51 0 -58 7t-14 19l-147 249l7 8h61l154 -164h8l154 164h57l7 -8l-146 -240q-6 -11 -19 -23t-64 -12z" />
    <glyph glyph-name="zcaron" unicode="&#x17e;" horiz-adv-x="813" 
d="M281 733h261q52 0 182 2q6 0 9 -5q10 -28 10 -35q0 -8 -2 -18l-459 -602h255q107 0 143 99q12 31 22 69l49 -4q0 -107 -14 -233q-2 -8 -10 -8q-134 2 -190 2h-275q-55 0 -189 -2q-8 0 -13 26t-5 30t3 9l451 595h-233q-103 0 -134 -89q-10 -29 -21 -66l-49 4q0 94 14 220
q2 8 10 8q132 -2 185 -2zM373 828q-20 0 -35 27l-172 327l7 8h61l184 -222h8l184 222h57l7 -8l-171 -319q-6 -11 -17 -23t-113 -12z" />
    <glyph glyph-name="longs" unicode="&#x17f;" horiz-adv-x="533" 
d="M145 859q0 204 70.5 310.5t157.5 142t141 35.5q102 0 165.5 -34.5t63.5 -101.5q0 -101 -119 -101q-20 0 -42 3v21q0 65 -19.5 95.5t-75.5 30.5q-98 0 -131 -75t-33 -207v-951q-1 -23 -21 -27q-73 -12 -132 -13q-25 0 -25 25v631l-115 -3l-3 67q13 1 118 8v144z" />
    <glyph glyph-name="uni018F" unicode="&#x18f;" horiz-adv-x="1331" 
d="M670 55q78 0 145.5 37t136.5 127.5t86 272.5l-739 -7q12 -193 115.5 -311.5t255.5 -118.5zM204 1084q214 105 460 105q245 0 411.5 -159t166.5 -436t-168.5 -450t-443.5 -173q-235 0 -391 154t-156 410q0 15 4.5 26.5t25.5 11.5h928q-4 235 -134.5 378t-353.5 143
q-159 0 -327 -71z" />
    <glyph glyph-name="florin" unicode="&#x192;" horiz-adv-x="961" 
d="M867.5 967.5q63.5 -34.5 63.5 -101.5q0 -101 -119 -101h-14q-4 0 -14 2v31q0 127 -114 127q-135 0 -147 -113.5t-12 -168.5v-120q134 6 176 6q43 0 50 -5.5t6 -17.5l-4 -59l-228 -1v-247q0 -602 -330 -602q-82 0 -141.5 35t-59.5 94q0 39 22.5 59.5t49.5 20.5t63 -14
q4 -84 36.5 -100t68.5 -16q75 0 94 75.5t19 318.5v375l-115 -3l-3 64q13 1 118 8q0 204 70.5 310.5t157.5 142t165 35.5t141.5 -34.5z" />
    <glyph glyph-name="Aringacute" unicode="&#x1fa;" horiz-adv-x="1170" 
d="M628 1829q121 0 121 -25q0 -4 -4 -11l-130 -203h-54l-7 8l43 204q7 27 31 27zM667 1397q0 51 -23.5 84t-70.5 33t-71.5 -32t-24.5 -84t23.5 -84.5t71.5 -32.5t71.5 32.5t23.5 83.5zM721.5 1280q-56.5 -46 -149.5 -46q-145 0 -175.5 63t-30.5 99q0 72 59.5 118t147.5 46
t146.5 -44t58.5 -117t-56.5 -119zM343 504h375l-190 496zM30 -6q0 6 1 8l458 1098l-21 58q-2 8 -2 11q0 15 18 18q82 14 141 14q21 0 30 -23l446 -1148q3 -8 3 -11q0 -17 -19 -20q-76 -12 -145 -12q-23 0 -29 15l-163 424l-437 -7l-154 -415q-6 -17 -67 -17q-60 1 -60 7z
" />
    <glyph glyph-name="aringacute" unicode="&#x1fb;" horiz-adv-x="811" 
d="M228 218q0 -84 74 -116q28 -12 52 -12q78 0 164 41l3 224q-47 -3 -88 -5t-75 -8q-130 -19 -130 -124zM349 652q-70 0 -220 -48l-22 67q210 85 346 85t193 -69t55 -225l-5 -326q-1 -40 7 -76q9 -36 9 -43q0 -30 -147 -30q-19 0 -25 24l-13 48q-177 -79 -272 -79
q-96 0 -149 63q-54 63 -54 129q0 221 315 243q91 6 155 8l1 34q2 98 -22 134q-24 35 -53 48t-99 13zM410 1141q-98 0 -98 -127q0 -54 25 -90t73 -37q48 0 73 35q25 34 25 90t-25 92t-73 37zM623 1014q1 -40 -15 -72t-44 -56t-67 -37t-87 -13q-95 0 -154 48t-59 128
q0 79 62 129t151 50q144 0 196 -104q16 -33 17 -73zM601 1620q17 0 17 -14q0 -5 -4 -12l-190 -338h-54l-7 8l77 318q6 24 45 31t116 7z" />
    <glyph glyph-name="AEacute" unicode="&#x1fc;" horiz-adv-x="1529" 
d="M496 581l238 4v364zM920 155q0 -48 10 -59t63 -11h109q80 -1 130 3t85 24t61 62t60 120l50 -11q0 -40 -20 -131t-32 -123q-11 -32 -47 -32q-225 3 -465 3h-166q-24 0 -24 25v478q-188 -3 -293 -6l-317 -493q-7 -11 -31 -14t-71 -3t-47 5t3 10l736 1049q-19 19 -45 19
t-58 -3l-6 55q189 36 292 36h344q63 0 153 2q16 0 18 -14t2 -38q2 -23 3 -50t3 -55q4 -84 4 -114l-50 -5q-33 136 -79 167q-27 17 -69 21t-107 4h-156q-31 0 -37 -6t-6 -32v-447q325 10 368 10v-1h1q28 0 28 -29t-7 -83q-233 16 -390 16v-349zM1177 1514q0 -4 -4 -11
l-159 -247h-54l-7 8l72 248q7 27 31 27q121 0 121 -25z" />
    <glyph glyph-name="aeacute" unicode="&#x1fd;" horiz-adv-x="1249" 
d="M107 671q203 85 343 85q141 0 202 -106q121 104 286 104q110 0 172 -64q63 -64 63 -169q0 -44 -17 -110l-465 -30q13 -196 177 -259q54 -21 142 -21t182 40l22 -56q-138 -67 -297 -97q-43 -8 -71 -8q-153 0 -246 110q-231 -110 -337 -110t-158 63q-53 63 -53 129
q0 154 146 210q101 38 315 48v27q0 100 -22 135q-22 34 -50 47t-100 13t-212 -48zM878 659q-95 0 -140 -61t-48 -156l302 27q5 23 5 67q-1 44 -33 84t-86 39zM228 230q0 -140 143 -140q70 0 189 61q-47 83 -47 214q-45 -5 -85 -9q-134 -14 -167 -53q-33 -38 -33 -73z
M841 1190q17 0 17 -14q0 -5 -4 -12l-190 -338h-54l-7 8l77 318q6 24 45 31t116 7z" />
    <glyph glyph-name="Oslashacute" unicode="&#x1fe;" horiz-adv-x="1350" 
d="M948 965q-110 142 -293 142t-277 -140t-94 -344t75 -354zM1066 543q0 205 -74 351l-589 -696q112 -145 294 -145t276 143q93 142 93 347zM238 126q-158 162 -158 452t169 451q169 160 457 160q206 0 346 -101l84 99l70 -41l-93 -109q157 -159 157 -448t-169 -454
q-169 -164 -457 -164q-207 0 -346 102l-84 -99l-70 41zM731 1539q121 0 121 -25q0 -4 -4 -11l-159 -247h-54l-7 8l72 248q7 27 31 27z" />
    <glyph glyph-name="oslashacute" unicode="&#x1ff;" horiz-adv-x="910" 
d="M598 577q-58 91 -163 91t-151 -86q-36 -67 -37 -172q0 -106 31 -188zM627 150q36 68 36 172t-32 189l-320 -354q61 -91 166 -91t150 84zM491 754q107 0 205 -69l64 71l55 -41l-68 -75q98 -104 98 -272t-115 -278t-296 -110q-122 0 -219 69l-65 -71l-55 41l69 76
q-99 105 -99 273t114 277t312 109zM646 1190q17 0 17 -14q0 -5 -4 -12l-190 -338h-54l-7 8l77 318q6 24 45 31t116 7z" />
    <glyph glyph-name="Scommaaccent" unicode="&#x218;" horiz-adv-x="924" 
d="M474 1098q-103 0 -170 -51q-68 -51 -68 -154q0 -119 173 -188q50 -19 107 -41q158 -60 224 -113q106 -85 107 -225q0 -246 -253 -324q-206 -64 -490 0q-18 4 -21 24q-11 96 -11 258l50 5q13 -116 90 -174t194 -58q176 0 239 114q22 40 22 92q-1 87 -85 143
q-41 27 -145 69q-105 41 -165 69q-214 98 -214 289q0 190 140 279q116 74 304 74q116 0 242 -31q18 -4 21 -24q12 -105 12 -239l-51 -5q-28 159 -162 199q-42 12 -90 12zM386 -217q0 65 -16 111q39 5 64 8l41 4q16 2 37 3q14 -43 14 -87q0 -99 -57 -174t-155 -79l-5 17
q77 55 77 197z" />
    <glyph glyph-name="scommaaccent" unicode="&#x219;" horiz-adv-x="711" 
d="M508 625q-39 49 -127 49q-87 0 -123 -50q-13 -18 -13 -45q0 -49 55 -83q31 -19 99 -44q131 -49 183 -89q74 -59 74 -134q0 -129 -108 -189t-218 -60q-111 0 -167 24q-55 24 -81 53q-26 28 -26 69q0 93 117 93q22 0 38 -3v-17q-1 -65 31 -101t114 -36t116 54q12 18 11 47
q1 27 -15 49t-42 38t-58 30q-33 14 -71 28q-109 42 -153 76q-74 58 -73 159q1 103 115 163q92 50 205 49q113 0 197 -26q8 -2 8 -8q8 -68 8 -206l-49 -4q-26 88 -47 114zM286 -217q0 65 -16 111q39 5 64 8l41 4q16 2 37 3q14 -43 14 -87q0 -99 -57 -174t-155 -79l-5 17
q77 55 77 197z" />
    <glyph glyph-name="uni0259" unicode="&#x259;" horiz-adv-x="800" 
d="M392 74q78 0 126.5 61t48.5 146v6l-327 -19q0 -129 56 -161.5t96 -32.5zM72 665q190 89 364 89q54 0 116.5 -30.5t127 -107t64.5 -242.5t-112 -280t-286 -114q-285 0 -285 323v9q0 9 1 14l504 22q-16 203 -122 244t-185 41t-165 -24z" />
    <glyph glyph-name="uni02B7" unicode="&#x2b7;" horiz-adv-x="856" 
d="M133 1196q26 0 31.5 -6t9.5 -17l114 -321h3l108 315q4 11 9 13t15 4q11 2 29 2t22 -1.5t8 -11.5l118 -321h3l112 314q5 14 36 22t52 8q22 0 22 -6t-3 -13l-211 -458q-5 -11 -13 -13l-49 -4q-10 0 -16 11l-120 320l-114 -314q-4 -12 -11 -13l-51 -4q-11 0 -16 11l-149 369
q-19 49 -63 49q-10 0 -20 -2l-4 34q122 33 148 33z" />
    <glyph glyph-name="uni02BB" unicode="&#x2bb;" horiz-adv-x="370" 
d="M222 1041q0 -81 39 -148q10 -22 -11 -27q-75 -21 -129 -21q-22 0 -36 31q-13 31 -13 79q0 100 55 184q55 85 155 125l30 -27q-90 -74 -90 -196z" />
    <glyph glyph-name="uni02BC" unicode="&#x2bc;" horiz-adv-x="380" 
d="M130 1059q0 81 -39 148q-10 22 11 27q75 21 129 21q22 0 36 -31q13 -31 13 -79q0 -97 -54 -183q-54 -85 -156 -126l-30 27q90 74 90 196z" />
    <glyph glyph-name="uni02BD" unicode="&#x2bd;" horiz-adv-x="380" 
d="M210 1059q0 -122 90 -196l-30 -27q-101 40 -155.5 124.5t-54.5 189.5t46 105q52 0 132 -20q21 -6 7 -32q-35 -67 -35 -144z" />
    <glyph glyph-name="uni02BE" unicode="&#x2be;" horiz-adv-x="403" 
d="M195 1105.5q-39 46.5 -112 54.5v141q129 -4 199.5 -79.5t70.5 -180.5t-72.5 -187t-200.5 -90l1 69q111 18 132 78t21 104t-39 90.5z" />
    <glyph glyph-name="uni02BF" unicode="&#x2bf;" horiz-adv-x="403" 
d="M120.5 1221.5q70.5 75.5 199.5 79.5v-141q-109 -11 -130 -71.5t-21 -88.5q0 -61 39.5 -108t113.5 -59l1 -69q-128 8 -200.5 90t-72.5 187t70.5 180.5z" />
    <glyph glyph-name="circumflex" unicode="&#x2c6;" horiz-adv-x="500" 
d="M229 1184q43 6 66 6q24 0 36 -27l173 -329l-7 -8h-61l-184 224h-8l-184 -224h-57l-7 8l170 317q5 11 12.5 19t50.5 14z" />
    <glyph glyph-name="caron" unicode="&#x2c7;" horiz-adv-x="500" 
d="M203 828q-20 0 -35 27l-172 327l7 8h61l184 -222h8l184 222h57l7 -8l-171 -319q-6 -11 -17 -23t-113 -12z" />
    <glyph glyph-name="breve" unicode="&#x2d8;" horiz-adv-x="500" 
d="M252 894q-168 0 -216 96.5t-52 164.5l103 19q34 -165 190 -165q106 0 140.5 58t40.5 100l57 -9q-8 -132 -83 -198t-180 -66z" />
    <glyph glyph-name="dotaccent" unicode="&#x2d9;" horiz-adv-x="500" 
d="M261 1161q91 1 91 -101t-111 -102q-45 0 -69 27t-24 75q0 101 113 101z" />
    <glyph glyph-name="ring" unicode="&#x2da;" horiz-adv-x="500" 
d="M225 1184q-73 0 -73 -127q0 -54 25 -90.5t73 -36.5t73 35t25 91t-25 92t-98 36zM463 1058q0 -40 -15.5 -72.5t-43.5 -56.5t-67 -37t-110.5 -13t-130.5 48.5t-59 127.5t61.5 129t178.5 50t151.5 -68t34.5 -108z" />
    <glyph glyph-name="ogonek" unicode="&#x2db;" horiz-adv-x="500" 
d="M-23 -281q0 172 211 275v6h150q-105 -51 -157 -97.5t-52 -121.5t44.5 -117t119.5 -42q26 0 70 11l22 -56q-112 -41 -176 -41q-113 0 -172.5 51t-59.5 132z" />
    <glyph glyph-name="tilde" unicode="&#x2dc;" horiz-adv-x="500" 
d="M350 917q-32 0 -88 32t-81.5 45t-45.5 13q-46 0 -118 -94l-48 36q111 183 201 183q41 0 98 -33t80 -45t41 -12q46 0 116 88l44 -26q-104 -187 -199 -187z" />
    <glyph glyph-name="hungarumlaut" unicode="&#x2dd;" horiz-adv-x="500" 
d="M301 1190q16 0 16 -14q0 -6 -3 -12l-167 -338h-50l-7 8l63 318q5 23 35 28t63.5 7.5t49.5 2.5zM541 1190q16 0 16 -14q0 -6 -3 -12l-177 -338h-49l-7 8l72 318q6 24 35 28t63 7t50 3z" />
    <glyph glyph-name="gravecomb" unicode="&#x300;" 
d="M-599 1165q0 25 135 25q26 0 33 -27l80 -329l-7 -8h-54l-183 327q-4 7 -4 12z" />
    <glyph glyph-name="acutecomb" unicode="&#x301;" 
d="M-207 1190q17 0 17 -14q0 -5 -4 -12l-190 -338h-54l-7 8l77 318q6 24 45 31t116 7z" />
    <glyph glyph-name="uni0302" unicode="&#x302;" 
d="M-419 1184q43 6 66 6q24 0 36 -27l173 -329l-7 -8h-61l-184 224h-8l-184 -224h-57l-7 8l170 317q4 11 12 19t51 14z" />
    <glyph glyph-name="tildecomb" unicode="&#x303;" 
d="M-513 1007q-46 0 -118 -94l-48 36q111 183 201 183q41 0 98 -33t80 -45t41 -12q46 0 116 88l44 -26q-104 -187 -199 -187q-32 0 -88 32t-82 45t-45 13z" />
    <glyph glyph-name="uni0304" unicode="&#x304;" 
d="M-654 1037h513l-5 -82l-503 -4z" />
    <glyph glyph-name="uni0306" unicode="&#x306;" 
d="M-371 1009q105 1 157 87q18 30 24 71l57 -9q-8 -132 -83 -198t-180 -66q-168 0 -240 144q-24 50 -28 117l103 19q34 -165 190 -165z" />
    <glyph glyph-name="uni0307" unicode="&#x307;" 
d="M-387 1161q91 1 91 -101t-111 -102q-45 0 -69 27t-24 75q0 101 113 101z" />
    <glyph glyph-name="uni0308" unicode="&#x308;" 
d="M-333 1057q0 97 109 97q44 0 66 -26t22 -71q0 -99 -107 -99q-43 0 -67 27t-23 72zM-660 1057q0 97 109 97q43 0 65 -26t23 -71q0 -99 -107 -99q-42 0 -66 27t-24 72z" />
    <glyph glyph-name="uni030A" unicode="&#x30a;" 
d="M-398 1184q-98 0 -98 -127q0 -55 25 -91t73 -36t73 35t25 91t-25 92t-73 36zM-185 1058q1 -40 -15 -72t-44 -57q-28 -24 -67 -37t-87 -13q-95 0 -154 48t-59 128q0 79 62 129t151 50q144 0 196 -104q16 -32 17 -72z" />
    <glyph glyph-name="uni030B" unicode="&#x30b;" 
d="M-347 1190q16 0 16 -14q0 -6 -3 -12l-167 -338h-50l-7 8l63 318q5 23 35 28q30 6 63 8q34 2 50 2zM-107 1190q16 0 16 -14q0 -6 -3 -12l-177 -338h-49l-7 8l72 318q6 24 35 28t63 8q34 2 50 2z" />
    <glyph glyph-name="uni030C" unicode="&#x30c;" 
d="M-315 863q-6 -11 -17 -23t-113 -12q-20 0 -35 27l-172 327l7 8h61l184 -222h8l184 222h57l7 -8z" />
    <glyph glyph-name="uni0315" unicode="&#x315;" horiz-adv-x="213" 
d="M173 1068q0 -106 -52.5 -180.5t-145.5 -85.5l-6 18q63 56 63 158t-30 171q37 8 147 29q24 -56 24 -110z" />
    <glyph glyph-name="dotbelowcomb" unicode="&#x323;" 
d="M-389 -139q91 1 91 -101t-111 -102q-45 0 -69 27t-24 75q0 101 113 101z" />
    <glyph glyph-name="uni0326" unicode="&#x326;" 
d="M-459 -217q0 65 -16 111q39 5 45 6l41 4q35 3 56 5q14 -43 14 -87q0 -99 -57 -174t-155 -79l-5 17q77 55 77 197z" />
    <glyph glyph-name="uni0327" unicode="&#x327;" 
d="M-267 -262q1 -38 -25 -72q-67 -89 -242 -89h-13l-8 61q77 12 103 23q55 24 55 67t-30 63q-30 19 -68 19h-6q-8 0 -9 -1l-19 43l113 148h72l-65 -109q142 -16 142 -153z" />
    <glyph glyph-name="uni0328" unicode="&#x328;" 
d="M-439 -464q-113 0 -173 51q-59 51 -59 132q0 172 211 275v6h150q-105 -51 -140 -82q-69 -62 -69 -137q1 -75 45 -117t119 -42q26 0 70 11l22 -56q-111 -41 -176 -41z" />
    <glyph glyph-name="uni032E" unicode="&#x32e;" 
d="M-373 -298q106 0 140.5 58t40.5 100l57 -9q-8 -132 -83 -198t-180 -66q-168 0 -216 96.5t-52 164.5l103 19q34 -165 190 -165z" />
    <glyph glyph-name="uni0331" unicode="&#x331;" 
d="M-147 -289h-503l-5 82l513 4z" />
    <glyph glyph-name="uni1200" unicode="&#x1200;" horiz-adv-x="1040" 
d="M288 290q0 -224 144 -224q252 0 324 605q14 117 14 188q0 123 -14 168q-20 66 -76 75l-2 33q40 18 119.5 33.5t96 15.5t27 -15t18.5 -39q25 -77 25 -190t-12 -219t-39 -210q-61 -235 -180 -367q-143 -160 -352 -160q-144 0 -214 76t-70 213q0 86 28 226q70 350 70 388
q0 67 -72 92l4 37q201 54 238.5 54t47.5 -10t10 -40t-20.5 -107t-46.5 -200l-15 -72q-53 -260 -53 -351z" />
    <glyph glyph-name="uni1201" unicode="&#x1201;" horiz-adv-x="1447" 
d="M278 264q0 -198 146 -198q126 0 210 146q98 172 120 469q6 75 6 114q0 93 -10 125q-19 59 -79 66l-2 33q50 22 122.5 35.5t92.5 13.5q72 0 72 -236q0 -91 -12 -183l412 76l2 -29q-7 -21 -7 -59q0 -123 76 -189l-2 -14q-34 -10 -76 -10q-85 0 -140.5 57.5t-55.5 140.5
l-219 -42q-32 -167 -78 -259q-86 -171 -201.5 -254t-272.5 -83q-296 0 -296 264q0 95 25 201q65 275 65 335t-73 85l4 37q201 54 238 54t47 -10t10 -38t-17 -95.5t-42 -173.5l-18 -73q-47 -204 -47 -306z" />
    <glyph glyph-name="uni1202" unicode="&#x1202;" horiz-adv-x="1077" 
d="M952 -85q-162 0 -184 106q-239 -44 -331 -44t-122.5 31t-30.5 94t59 196l220 502q-46 -6 -164.5 -36t-149.5 -30q-108 0 -108 134q0 32 12 107t12 104q0 53 -16.5 74t-73.5 31l-3 35q162 63 231 63q27 0 45 -20q18 -18 18 -42q0 -52 -18.5 -157t-18.5 -142t19.5 -58
t51.5 -21t93.5 10.5t99.5 15.5l100 230q34 77 34 104.5t-17 42t-68 21.5l3 39q159 43 224 43q74 0 74 -71q0 -42 -17.5 -87t-37.5 -93l-348 -795q-53 -127 -53 -169q0 -67 65 -67q136 0 212 14q29 121 223 131l3 -23q-30 -47 -30 -108q0 -97 72 -133l-2 -22q-40 -10 -78 -10
z" />
    <glyph glyph-name="uni1203" unicode="&#x1203;" horiz-adv-x="960" 
d="M475 125q0 -54 94 -63l-2 -42q-141 -44 -186 -44t-75 28.5t-30 90t45 157.5l234 497q-52 -7 -164.5 -36t-141.5 -29q-108 0 -108 134q0 32 12 107t12 104q0 53 -16.5 74t-73.5 31l-3 35q162 63 231 63q27 0 45 -20q18 -18 18 -42q0 -52 -18.5 -157t-18.5 -142t19.5 -58
t73.5 -21q7 0 27.5 3.5t45.5 7.5l51 9q13 2 23.5 4t18.5 3l105 229q34 72 34 102t-17 44.5t-68 21.5l3 39q156 43 221 43q74 0 74 -71q0 -60 -55 -180l-356 -767q-54 -117 -54 -155z" />
    <glyph glyph-name="uni1204" unicode="&#x1204;" horiz-adv-x="1084" 
d="M829 312q0 77 -98 77q-50 0 -185 -37l-56 -126q-16 -31 -16 -60q0 -51 85.5 -51t177.5 56.5t92 140.5zM298 1267q26 0 44.5 -19.5t18.5 -43.5q0 -52 -18.5 -156.5t-18.5 -141.5t19.5 -58t55.5 -21t102.5 13t82.5 16l105 227q34 72 34 102t-17 44.5t-68 21.5l3 39
q161 43 221 43q74 0 74 -71q0 -60 -55 -180l-300 -652q188 60 289.5 60t136.5 -72q12 -25 12 -79.5t-32 -103.5t-96.5 -88.5t-223.5 -68.5q-228 -93 -286 -93q-119 0 -119 110q0 65 45 164l244 525q-54 -7 -166 -36t-141 -29q-108 0 -108 134q0 32 12 107t12 104
q0 53 -16.5 74.5t-73.5 30.5l-3 35q162 63 231 63z" />
    <glyph glyph-name="uni1205" unicode="&#x1205;" horiz-adv-x="1066" 
d="M918 1184q73 0 73 -289q-1 -325 -113 -583q-42 -96 -102 -168q-134 -160 -338 -160q-139 0 -207 76t-68 193.5t18 209t39 185.5l-134 -22q49 229 49 258q0 66 -75 92l4 37q201 54 240 54t49 -10t10 -32q0 -63 -67 -331l133 22q-70 -265 -70 -426q0 -224 131 -224
q198 0 274 468q32 193 32 344.5t-41 197.5q-18 20 -49 26l-2 33q49 22 123 35.5t91 13.5z" />
    <glyph glyph-name="uni1206" unicode="&#x1206;" horiz-adv-x="1384" 
d="M952 1017q0 -94 -4 -170q138 9 197.5 61t59.5 150.5t-103 98.5q-150 0 -150 -140zM412 -16q-288 0 -288 338q0 82 16 210q38 291 38 360.5t-76 94.5l4 37q201 54 238 54t47 -10t10 -32.5t-3.5 -52.5t-9.5 -70.5t-13.5 -89t-14.5 -102.5l-11 -80q-3 -20 -8 -53
q-23 -152 -23 -258q0 -264 133 -264q213 0 283 510q22 158 22 259t-2 137q-6 113 -96 125l-2 33q428 107 549 107t163 -77q16 -28 16 -88q0 -58 -40 -114q-112 -155 -398 -167q-50 -671 -398 -787q-60 -20 -136 -20z" />
    <glyph glyph-name="uni1207" unicode="&#x1207;" horiz-adv-x="1685" 
d="M1253 1017q0 -94 -4 -170q138 9 197.5 61t59.5 150.5t-103 98.5q-150 0 -150 -140zM714 -16q-288 0 -289 338q0 101 19 239l-159 -14q-6 -110 -161 -137q-46 -8 -97 -8v17q53 55 53 123.5t-70 110.5v14q51 9 98 9q130 0 168 -75l176 16q27 202 27 273.5t-76 96.5l4 37
q201 54 238 54t47 -10t10 -32.5t-3.5 -52.5t-9.5 -70.5t-13.5 -89t-14.5 -102.5l-11 -80q-3 -20 -8 -53q-23 -152 -23 -258q0 -264 133 -264q214 0 284 510q22 158 21.5 259t-2.5 137q-6 113 -96 125l-2 33q428 107 549 107q122 0 164 -77q16 -28 16 -88q0 -58 -41 -114
q-112 -155 -398 -167q-50 -671 -398 -787q-59 -20 -135 -20z" />
    <glyph glyph-name="uni1208" unicode="&#x1208;" horiz-adv-x="1049" 
d="M522 921q-275 -227 -275 -601q0 -120 15 -172q23 -83 81 -94l2 -33q-43 -19 -114 -28t-91 -9t-34 17q-12 17 -22 44q-28 81 -29 206q0 246 97.5 454t281.5 341l-37 200l179 35l40 -220q174 -117 220 -452q12 -92 20 -172q18 -196 36 -262q30 -111 97 -123l-2 -37
q-40 -13 -113.5 -22t-91.5 -9q-30 0 -46 41.5t-27.5 93t-19 105.5t-11.5 110t-10 116q-14 153 -44.5 268.5t-101.5 202.5z" />
    <glyph glyph-name="uni1209" unicode="&#x1209;" horiz-adv-x="1369" 
d="M144 -16q-88 0 -89 314q0 78 23.5 188.5t71.5 211.5q101 215 284 348l-37 200l179 35l40 -220q153 -103 203 -354l445 114q-5 -35 -5 -59q0 -56 22.5 -106.5t70.5 -68.5l2 -16q-62 -44 -110 -44q-83 0 -131.5 47.5t-58.5 133.5l-225 -56q13 -77 24 -186q21 -225 39 -291
q30 -111 97 -123l-2 -37q-39 -13 -113 -22t-92 -9q-31 0 -46.5 41.5t-27 93t-19 105.5t-11.5 110t-10 116q-14 153 -44.5 268.5t-101.5 202.5q-275 -227 -275 -601q0 -120 15 -172q23 -83 81 -94l2 -33q-42 -19 -111.5 -28t-89.5 -9z" />
    <glyph glyph-name="uni120A" unicode="&#x120a;" horiz-adv-x="1470" 
d="M1345 -90q-162 0 -184 106q-239 -29 -368 -32h-5q-36 0 -52 41.5t-27.5 93t-19 105.5t-11.5 110t-10 116q-14 153 -44.5 268.5t-101.5 202.5q-275 -227 -275 -601q0 -120 15 -172q23 -83 81 -94l2 -33q-43 -19 -114 -28t-91 -9t-34 17q-12 17 -22 44q-28 81 -29 206
q0 246 97.5 454t281.5 341l-37 200l179 35l40 -220q174 -117 220 -452q12 -91 20 -181q28 -309 89 -349q29 -18 212 -4q29 121 223 131l3 -23q-30 -47 -30 -108q0 -97 72 -133l-2 -22q-40 -10 -78 -10z" />
    <glyph glyph-name="uni120B" unicode="&#x120b;" horiz-adv-x="1010" 
d="M743 -16q-30 0 -46 41.5t-27.5 93t-19.5 105.5t-12 110t-10 116q-14 153 -44 268.5t-101 202.5q-104 -74 -170 -193.5t-66 -201.5t15.5 -109t51.5 -33l2 -33q-37 -16 -96 -24t-86.5 -8t-48 40.5t-20.5 104.5q0 139 81 298t249 284l-37 200l179 35l40 -220
q173 -117 219 -452q12 -92 20 -172q18 -196 37 -262q30 -111 97 -123l-2 -37q-40 -13 -113.5 -22t-91.5 -9z" />
    <glyph glyph-name="uni120C" unicode="&#x120c;" horiz-adv-x="1368" 
d="M1144 197q0 123 -123 123q-56 0 -151 -25q22 -142 38 -175q31 -62 118 -62t111 85q7 25 7 54zM522 921q-275 -227 -275 -601q0 -120 15 -172q23 -83 81 -94l2 -33q-43 -19 -114 -28t-91 -9t-34 17q-12 17 -22 44q-28 81 -29 206q0 246 97.5 454t281.5 341l-37 200l179 35
l40 -220q174 -117 220 -452q12 -92 17.5 -152.5t10.5 -109.5q187 41 271.5 41t138.5 -45t54 -115.5t-18.5 -108.5t-49 -63t-71.5 -36.5t-75.5 -11.5t-90.5 4q-123 -28 -235 -28q-36 0 -52 42q-29 80 -41 167t-23 202q-19 207 -49 323t-101 203z" />
    <glyph glyph-name="uni120D" unicode="&#x120d;" horiz-adv-x="1246" 
d="M472 197q0 123 -123 123q-38 0 -111 -16q0 -111 12 -155q26 -91 108.5 -91t106.5 85q7 25 7 54zM47 297q0 79 27 189t81 212q113 212 321 348l-37 200l179 35l40 -220q220 -119 312 -447q26 -90 44 -170q43 -188 72 -259q46 -111 120 -133l-2 -37q-40 -13 -113.5 -22
t-100 -9t-49.5 44t-41.5 98t-33 109t-25.5 109.5t-24 112.5q-34 153 -88.5 264t-164.5 200q-307 -216 -324 -563q144 30 223.5 30t133.5 -45t54 -115q0 -116 -63 -168t-162 -52q-21 0 -77 4q-118 -28 -213 -28q-64 0 -84 185q-6 49 -5 128z" />
    <glyph glyph-name="uni120E" unicode="&#x120e;" horiz-adv-x="1533" 
d="M1173 842q-32 -33 -32 -71q0 -70 32 -123.5t85 -53.5q78 0 103 85q7 24 7 50.5t-7 52.5t-20 46q-29 46 -82.5 46.5t-85.5 -32.5zM522 921q-275 -227 -275 -601q0 -120 15 -172q23 -83 81 -94l2 -33q-43 -19 -114 -28t-91 -9t-34 17q-12 17 -22 44q-28 81 -29 206
q0 246 97.5 454t281.5 341l-37 200l179 35l40 -220q124 -84 177 -253q264 64 305.5 79.5t112.5 41.5t120 26q85 0 136 -54.5t51 -130.5t-24 -119q-44 -78 -103 -90q-19 -4 -47.5 -9t-59.5 -13t-66 -20q-34 -12 -72 -12q-71 0 -109 61.5t-38 127t11 107.5l-202 -51
q25 -97 40 -246q27 -270 44 -331q30 -111 97 -123l-2 -37q-40 -13 -113.5 -22t-91.5 -9q-30 0 -46 41.5t-27.5 93t-19 105.5t-11.5 110t-10 116q-14 153 -44.5 268.5t-101.5 202.5z" />
    <glyph glyph-name="uni120F" unicode="&#x120f;" horiz-adv-x="1301" 
d="M191 -171h-21q-10 0 -22 1l-1 18q93 96 51 236l-1 23l453 25q-38 134 -53.5 353t-28.5 289q-28 145 -88 229q-100 -76 -166 -194.5t-66 -200.5t15.5 -109t51.5 -33l2 -33q-37 -17 -96.5 -24.5t-87 -7.5t-48 40.5t-20.5 104.5q0 139 81 297.5t249 282.5l-37 200l177 35
l37 -216q156 -129 194 -455q10 -92 16 -165q12 -162 26 -248.5t43 -132.5l391 22q-34 -155 37 -248l2 -16q-93 -30 -168 -1q-120 47 -114 193l-554 -31q-4 -118 -62.5 -176t-191.5 -58z" />
    <glyph glyph-name="uni1210" unicode="&#x1210;" horiz-adv-x="1449" 
d="M820.5 1230q50.5 0 63 -20t12.5 -43.5t-20.5 -153.5t-45.5 -318q85 15 151.5 27.5t114.5 12.5q95 0 140 -48.5t55 -174.5l23 -330q6 -78 22.5 -106t52.5 -30v-37q-95 -25 -140.5 -25t-62 9t-31 38t-22.5 137l-19 270q-8 112 -36.5 146t-61.5 45.5t-81 11.5t-114 -9
q-63 -482 -63 -516q0 -67 54 -67v-37q-117 -28 -175 -28q-72 0 -72 78q0 40 70 559q-275 7 -376 -263q-35 -94 -35 -202.5t63 -108.5l1 -37q-123 -28 -175 -28q-83 0 -83 159q0 199 128 353q160 194 486 189l59 415q0 64 -50 67v37q117 28 167.5 28z" />
    <glyph glyph-name="uni1211" unicode="&#x1211;" horiz-adv-x="1784" 
d="M820.5 1230q50.5 0 63 -20t12.5 -43.5t-20.5 -153.5t-45.5 -318q85 15 151.5 27t114.5 12q96 0 140.5 -48t54.5 -174l3 -52l379 80q-2 -10 -2 -20v-20q0 -135 87 -197l1 -15q-53 -36 -97 -36q-80 0 -131 48t-63 135l-170 -34l16 -219q6 -78 22.5 -106t52.5 -30v-37
q-95 -25 -140.5 -25t-62 9t-31 38t-22.5 137l-19 270q-8 112 -36.5 146t-61.5 45.5t-81 11.5t-114 -9q-63 -482 -63 -516q0 -67 54 -67v-37q-117 -28 -175 -28q-72 0 -72 78q0 40 70 559q-275 7 -376 -263q-35 -94 -35 -202.5t63 -108.5l1 -37q-123 -28 -175 -28
q-83 0 -83 159q0 199 128 353q160 194 486 189l59 415q0 64 -50 67v37q117 28 167.5 28z" />
    <glyph glyph-name="uni1212" unicode="&#x1212;" horiz-adv-x="1851" 
d="M935 641q-48 0 -114 -9q-63 -482 -63 -516q0 -67 54 -67v-37q-117 -28 -175 -28q-72 0 -72 78q0 40 70 559q-275 7 -376 -263q-35 -94 -35 -202.5t63 -108.5l1 -37q-123 -28 -175 -28q-83 0 -83 159q0 199 128 353q160 194 486 189l59 415q0 64 -50 67v37
q117 28 167.5 28t63 -20t12.5 -43.5t-20.5 -153.5t-45.5 -318q85 15 151.5 27t114.5 12q96 0 140.5 -48t54.5 -174l23 -330q2 -61 15.5 -85.5t63 -24.5t150.5 18q14 58 69 95.5t154 42.5l3 -23q-30 -47 -30 -112q0 -105 72 -141l-2 -22q-35 -9 -71 -9q-168 0 -191 111
q-227 -48 -319 -48q-50 0 -68 34.5t-24 111.5l-22 308q-8 112 -36.5 146t-61.5 45.5t-81 11.5z" />
    <glyph glyph-name="uni1213" unicode="&#x1213;" horiz-adv-x="1401" 
d="M772.5 1230q50.5 0 63 -20t12.5 -43.5t-20.5 -153.5t-45.5 -318q85 15 151.5 27.5t114.5 12.5q95 0 140 -48.5t55 -174.5l23 -330q6 -78 22.5 -106t52.5 -30v-37q-95 -25 -140.5 -25t-62 9t-31 38t-22.5 137l-19 270q-8 112 -36.5 146t-61.5 45.5t-81 11.5t-114 -9
q-7 -64 -15 -122q-16 -121 -16 -147q0 -67 54 -67v-37q-117 -28 -175 -28q-72 0 -72 78q0 53 38 312q-197 0 -297 -102q-76 -76 -76 -176q0 -74 63 -74l1 -37q-123 -28 -175 -28q-83 0 -83 109q0 135 118 239q147 130 458 130l59 416q0 64 -50 67v37q117 28 167.5 28z" />
    <glyph glyph-name="uni1214" unicode="&#x1214;" horiz-adv-x="1742" 
d="M1421 317q-45 0 -116 -15l5 -69q7 -105 18 -129q21 -46 93.5 -46t92.5 90q6 25 5 51q0 118 -98 118zM1524 385q178 1 178 -179q0 -90 -55.5 -144t-152.5 -54q-23 0 -75 4q-186 -44 -225 -23t-48 73.5t-13 105.5l-19 270q-8 112 -36.5 146t-61.5 45.5t-81 11.5t-114 -9
q-63 -482 -63 -516q0 -67 54 -67v-37q-117 -28 -175 -28q-72 0 -72 78q0 40 70 559q-275 7 -376 -263q-35 -94 -35 -202.5t63 -108.5l1 -37q-123 -28 -175 -28q-83 0 -83 159q0 199 128 353q160 194 486 189l59 415q0 64 -50 67v37q117 28 167.5 28t63 -20t12.5 -43.5
t-20.5 -153.5t-45.5 -318q85 15 151.5 27t114.5 12q96 0 140.5 -48t54.5 -174l11 -157q134 30 222 30z" />
    <glyph glyph-name="uni1215" unicode="&#x1215;" horiz-adv-x="1449" 
d="M814 1128q67 0 67 -64q1 -28 -11 -97q-21 -124 -40 -272q85 15 151.5 27t114.5 12q96 0 140.5 -48t54.5 -174l23 -330q6 -78 22.5 -106t52.5 -30v-37q-95 -25 -140.5 -25t-62 9t-31 38t-22.5 137l-19 270q-8 112 -36.5 146t-61.5 45.5t-81 11.5t-114 -9
q-63 -482 -63 -516q0 -67 54 -67v-37q-117 -28 -175 -28q-72 0 -72 78q0 40 70 559q-275 7 -376 -263q-35 -94 -35 -202.5t63 -108.5l1 -37q-123 -28 -175 -28q-83 0 -83 159q0 199 128 353q160 194 486 189q45 315 45 323q0 54 -88 54q-53 -44 -161 -48q-30 -1 -60 -1
l-3 17q45 54 45 129.5t-61 113.5l2 17q37 6 79 6q202 0 201 -132q0 -31 -12 -62q141 28 183 28z" />
    <glyph glyph-name="uni1216" unicode="&#x1216;" horiz-adv-x="1417" 
d="M820.5 1230q50.5 0 63 -20t12.5 -43.5t-20.5 -153.5t-45.5 -318q85 15 151.5 27.5t114.5 12.5q95 0 140 -48.5t55 -174.5l6 -86q6 -78 22.5 -106t52.5 -30v-37q-95 -25 -140 -25t-62 9.5t-33 40.5t-21 118q-9 149 -47.5 197t-136.5 48q-47 0 -111 -9q-34 -249 -34 -286
q0 -67 54 -67v-37q-117 -28 -175 -28q-72 0 -72 78q0 38 41 329q-275 7 -376 -263q-35 -94 -35 -202.5t63 -108.5l1 -37q-123 -28 -175 -28q-83 0 -83 159q0 199 128 353q160 194 486 189l59 415q0 64 -50 67v37q117 28 167.5 28z" />
    <glyph glyph-name="uni1217" unicode="&#x1217;" horiz-adv-x="1775" 
d="M782 842q222 39 268 39q95 0 140 -48.5t55 -173.5l31 -472l440 30q-34 -155 37 -248l2 -16q-94 -31 -175 1q-115 44 -112 186l-567 -38q3 -120 -63.5 -177.5t-184.5 -57.5q-21 0 -45 2l-1 18q93 96 51 236l-1 23l440 29l-27 410q-8 111 -47.5 157t-136.5 46
q-47 0 -113 -9q-7 -63 -15 -121q-16 -121 -16 -148q0 -67 54 -67v-37q-117 -28 -175 -28q-72 0 -72 78q0 53 38 312q-197 0 -297 -102q-76 -76 -76 -176q0 -74 63 -74l1 -37q-123 -28 -175 -28q-83 0 -83 109q0 135 118 239q147 130 458 130l59 416q0 64 -50 67v37
q117 28 167.5 28t63 -20t12.5 -43.5t-20.5 -153.5t-45.5 -318z" />
    <glyph glyph-name="uni1218" unicode="&#x1218;" horiz-adv-x="1663" 
d="M1440 850q0 187 -152 187q-25 0 -55 -6l-28 -170q-35 -212 -35 -257q0 -58 89.5 -58t140.5 105q40 82 40 199zM248 534q0 -50 28 -87.5t78 -37.5q110 0 147 101q49 132 93.5 249t86.5 235q-228 0 -342 -163q-91 -129 -91 -297zM1421 1133q106 0 159 -78t53 -172
q0 -181 -87 -286t-251 -105h-22q-9 0 -14 1q-145 -40 -195 -40t-71.5 18.5t-21.5 52t36 256t42 261.5q-78 -5 -166 -22q-18 -52 -42.5 -118t-50.5 -136.5t-52 -140.5q-28 -70 -46 -122q-32 -89 -63 -117.5t-76 -28.5l-101 2q-77 0 -124 -17t-81 -29.5t-66 -12.5
q-63 0 -98.5 69.5t-35.5 142.5q-1 137 67 257q149 268 529 288q95 5 157 14q308 45 442 49l5 -5l-5 -31q121 50 179 50z" />
    <glyph glyph-name="uni1219" unicode="&#x1219;" horiz-adv-x="2112" 
d="M1440 850q0 187 -152 187q-25 0 -55 -6l-28 -170q-35 -212 -35 -257q0 -58 89.5 -58t140.5 105q40 82 40 199zM248 534q0 -50 28 -87.5t78 -37.5q110 0 147 101q49 132 93.5 249t86.5 235q-228 0 -342 -163q-91 -129 -91 -297zM1421 1133q106 0 159 -78t53 -187l-1 -21
l185 6q27 80 133 101q30 6 61.5 6t61.5 -6l1 -18q-46 -36 -46 -118t59 -106l-1 -18q-56 -17 -98 -17q-137 0 -175 121l-186 -7q-29 -212 -200 -277q-58 -22 -102 -22h-57q-4 0 -9 1q-145 -40 -195 -40t-71.5 18.5t-21.5 52t36 256t42 261.5q-78 -5 -166 -22
q-18 -52 -42.5 -118t-50.5 -136.5t-52 -140.5q-28 -70 -46 -122q-32 -89 -63 -117.5t-76 -28.5l-101 2q-77 0 -124 -17t-81 -29.5t-66 -12.5q-63 0 -98.5 69.5t-35.5 142.5q-1 137 67 257q149 268 529 288q95 5 157 14q308 45 442 49l5 -5l-5 -31q121 50 179 50z" />
    <glyph glyph-name="uni121A" unicode="&#x121a;" horiz-adv-x="1873" 
d="M1222 1175q-42 0 -83 -11q-7 -55 -13.5 -105.5t-10.5 -85t-4 -65t21 -53.5t69 -23t119 15q8 35 14 63t15 66.5t9 91.5q0 107 -136 107zM369 670q122 0 142 115q4 23 7 45t7 44l14 86q13 79 27 182q-168 0 -250 -134q-64 -106 -56 -242q6 -96 109 -96zM1042 751
q-125 0 -125 111q0 55 38 305q-87 -3 -129 -8t-75 -9q-6 -44 -13 -94t-17 -122t-21 -146q-17 -114 -52.5 -143t-86.5 -29l-102 2q-80 0 -121.5 -18t-79.5 -37t-67 -19q-60 0 -93 59t-33 157q1 98 43 186q118 244 474 258q97 5 173 11t115 9t99.5 8t178.5 9l5 -5l-5 -27
q61 28 122.5 39t81.5 11q92 0 147.5 -49t55.5 -147q0 -53 -69 -338t-101.5 -425t-37 -158.5t-4.5 -39.5q0 -42 41 -42q28 0 65 3t63 5t47 4q29 121 223 131l3 -23q-30 -47 -30 -109q0 -106 73 -142l-2 -22q-40 -10 -78 -10q-161 0 -190 116q-229 -34 -303 -34t-93 22.5
t-19 50t4 43t13.5 58.5t23 101t29.5 127t32.5 141t33 142.5t30.5 131.5q-203 -45 -267 -45z" />
    <glyph glyph-name="uni121B" unicode="&#x121b;" horiz-adv-x="1602" 
d="M1111 921q-1 -89 81 -89q43 0 123 14q42 152 42 203.5t-30.5 88.5t-88.5 37t-99 -11q-7 -56 -13 -106q-14 -112 -15 -137zM369 670q122 0 142 115q4 23 7 45t7 44l14 86q13 79 27 182q-168 0 -250 -134q-64 -106 -56 -242q6 -96 109 -96zM1045 751q-128 0 -128 111
q0 55 38 305q-87 -3 -129 -8t-75 -9q-6 -44 -13 -94t-17 -122t-21 -146q-17 -114 -52.5 -143t-86.5 -29l-102 2q-80 0 -121.5 -18t-79.5 -37t-67 -19q-60 0 -93 59t-33 157q1 98 43 186q118 244 474 258q97 5 173 11t115 9t99.5 8t178.5 9l5 -5l-5 -27q108 50 220 50
q82 0 133 -56.5t51 -126t-39 -209t-57.5 -207t-37.5 -135.5t-37 -133t-47.5 -171t-29.5 -123q0 -53 70 -62l-2 -39q-131 -18 -178.5 -18t-66 23t-18.5 53.5t117 461.5l38 141q10 35 19 69.5t18 66.5q-189 -43 -256 -43z" />
    <glyph glyph-name="uni121C" unicode="&#x121c;" horiz-adv-x="1792" 
d="M1566 236.5q0 85.5 -96 85.5q-34 0 -132 -16l-19 -64q-21 -71 -21 -107q0 -80 86.5 -80t134 48t47.5 133.5zM1357 1037q0 138 -135 138q-42 0 -83 -11q-7 -55 -13.5 -105.5t-10.5 -85t-4 -65t21 -53.5t66 -23t114 13l31 106q14 53 14 86zM369 670q122 0 142 115
q4 23 7 45t7 44l14 86q13 79 27 182q-168 0 -250 -134q-64 -106 -56 -242q6 -96 109 -96zM1045 751q-128 0 -128 111q0 55 38 305q-87 -3 -129 -8t-75 -9q-6 -44 -13 -94t-17 -122t-21 -146q-17 -114 -52.5 -143t-86.5 -29l-102 2q-80 0 -121.5 -18t-79.5 -37t-67 -19
q-60 0 -93 59t-33 157q1 98 43 186q118 244 474 258q97 5 173 11t115 9t99.5 8t178.5 9l5 -5l-5 -27q107 50 220 50q82 0 133.5 -58t51.5 -145q0 -45 -22.5 -118t-37.5 -122t-32.5 -106t-35.5 -117l-36 -119q-11 -37 -34 -113q174 33 240 33t109 -38t43 -104
q0 -121 -76.5 -187.5t-192.5 -66.5q-32 0 -78 8q-135 -27 -233 -27q-45 0 -62.5 22.5t-17.5 48.5t6.5 49.5t19 67t28.5 99t35.5 120.5t39.5 134t40.5 138.5t39.5 134.5q-184 -42 -251 -42z" />
    <glyph glyph-name="uni121D" unicode="&#x121d;" horiz-adv-x="1542" 
d="M1337 894q0 264 -192 264q-17 0 -51 -8q1 -49 2.5 -158.5t2.5 -145.5q2 -79 16 -111q20 -47 77 -47q145 0 145 206zM261 833q0 -165 135 -165q68 0 125 22q7 155 9 220.5t4.5 125t4.5 109.5q-131 -6 -204.5 -95t-73.5 -217zM283 584q-118 0 -165.5 63.5t-47.5 166.5
q0 191 136.5 291t341.5 109q90 3 260.5 17t280.5 15l5 -6v-29q103 48 174 48q127 0 190.5 -96.5t63.5 -224.5q0 -208 -146 -273q-50 -22 -95 -22t-69 3q-48 -14 -96 -30.5t-100 -16.5q-95 0 -97 128q-1 58 -1.5 122t-1.5 124.5t-1.5 112.5t-1.5 87q-104 -2 -188 -13
q-12 -260 -16.5 -383.5t-8 -134t-32 -52t-79.5 -114t-124.5 -177.5t-94.5 -142t-21 -57q0 -50 62 -52l-2 -39q-165 -19 -210 -19t-63 18.5t-18 45t20 60.5q27 46 163 241.5t189 276.5q-137 -48 -207 -48z" />
    <glyph glyph-name="uni121E" unicode="&#x121e;" horiz-adv-x="1561" 
d="M1356 894q0 264 -192 264q-17 0 -51 -8q1 -49 2.5 -158.5t2.5 -145.5q2 -79 16 -111q20 -47 77 -47q145 0 145 206zM375 668q53 0 128 28q11 73 34 217t35 229q-148 -6 -228 -102.5t-80 -234t111 -137.5zM257 568q-67 0 -98 15q-89 43 -89 191q0 100 42 182
q119 234 476 248q89 3 250.5 17t269.5 15l5 -6v-29q103 48 174 48q127 0 190.5 -96.5t63.5 -224.5q-1 -208 -147 -273q-50 -22 -94.5 -22t-68.5 3q-48 -14 -96 -30q-47 -16 -99 -17q-95 0 -98 128q-1 58 -1.5 122t-1.5 124.5t-1.5 112.5t-1.5 87q-57 0 -101 -5t-72 -8
q-18 -113 -38.5 -244t-70 -445.5t-49.5 -338.5v-14q0 -35 12 -50.5t42 -17.5v-37q-117 -28 -175 -28q-73 0 -73 75q0 31 32.5 234.5t53.5 342.5q-169 -59 -236 -59z" />
    <glyph glyph-name="uni121F" unicode="&#x121f;" horiz-adv-x="1823" 
d="M1111 951q-1 -89 81 -89q43 0 123 14q42 152 42 203.5t-30.5 88.5t-88.5 37t-99 -11q-7 -56 -13 -106q-14 -112 -15 -137zM369 700q122 0 142 115q4 23 7 45t7 44l14 86q13 79 27 182q-168 0 -250 -134q-64 -106 -56 -242q6 -96 109 -96zM1045 781q-128 0 -128 111
q0 55 38 305q-87 -3 -129 -8t-75 -9q-6 -44 -13 -94t-17 -122t-21 -146q-17 -114 -52.5 -143t-86.5 -29l-102 2q-80 0 -121.5 -18t-79.5 -37t-67 -19q-60 0 -93 59t-33 157q1 98 43 186q118 244 474 258q127 4 227 13q225 20 339 24l5 -5l-5 -27q108 50 220 50
q82 0 133 -56.5t51 -145.5q0 -47 -30 -155t-53 -192t-48.5 -174t-70.5 -251.5t-45 -185t5 -50.5l445 42q-11 -55 -11 -92q0 -94 57 -155l2 -16q-89 -31 -170 -4q-123 41 -123 184l-572 -53q0 -183 -139 -227q-49 -16 -87 -16h-46q-7 0 -15 1l-2 18q59 65 59 157q0 33 -14 80
l-2 23l434 41q-5 30 -5 63.5t11 73.5t28 104.5t50 184t91 336.5q-189 -43 -256 -43z" />
    <glyph glyph-name="uni1220" unicode="&#x1220;" horiz-adv-x="1381" 
d="M260 411q0 -90 110 -90q96 -1 174 129q59 98 91 235.5t32 189.5t-14 74t-48 27l1 37q146 45 192 45q60 0 60 -68q0 -119 -47 -311q24 -49 69.5 -76t97.5 -27q96 0 143 108q36 84 36 172t-9 110q-18 43 -68 52l1 37q131 41 173 41q87 0 87 -174q1 -224 -113 -328
q-40 -37 -83.5 -47t-69 -15t-63.5 -18.5t-75.5 -30t-81.5 -16.5t-99 46q-101 -240 -248 -240q-89 0 -133 -15.5t-80.5 -28.5t-66.5 -13q-69 0 -113.5 37.5t-44.5 96.5q0 104 77 404q17 63 17 94.5t-14 51.5t-56 25l1 37q28 7 60 15.5t82 21t76.5 12.5t42.5 -17.5t16 -41.5
t-4 -44.5t-14 -61.5t-22 -89q-12 -47 -25 -99q-47 -186 -47 -247z" />
    <glyph glyph-name="uni1221" unicode="&#x1221;" horiz-adv-x="1797" 
d="M260 411q0 -90 110 -90q96 -1 174 129q59 98 91 235.5t32 189.5t-14 74t-48 27l1 37q146 45 192 45q60 0 60 -68q0 -119 -47 -311q24 -49 69.5 -76t97.5 -27q96 0 143 108q36 84 36 172t-9 110q-18 43 -68 52l1 37q131 41 173 41q87 0 87 -174q0 -91 -19 -161l186 7
q28 86 132 108q30 6 57.5 6.5t62.5 -4.5l1 -18q-45 -36 -45 -122.5t61 -111.5v-18q-57 -18 -113.5 -18t-99.5 33t-58 90l-203 -9q-52 -131 -176 -161q-26 -6 -51.5 -11t-63.5 -18.5t-75.5 -30t-81.5 -16.5t-99 46q-101 -240 -248 -240q-89 0 -133 -15.5t-80.5 -28.5
t-66.5 -13q-69 0 -113.5 37.5t-44.5 96.5q0 104 77 404q17 63 17 94.5t-14 51.5t-56 25l1 37q28 7 60 15.5t82 21t76.5 12.5t42.5 -17.5t16 -41.5t-4 -44.5t-14 -61.5t-22 -89q-12 -47 -25 -99q-47 -186 -47 -247z" />
    <glyph glyph-name="uni1222" unicode="&#x1222;" horiz-adv-x="1602" 
d="M1492 -81q-162 0 -184 106q-228 -41 -298 -41t-97.5 19.5t-27.5 82.5t138 640q-58 -14 -107 -14q-115 0 -175 66q-85 -166 -243 -166q-98 0 -193 -29t-130.5 -29t-67.5 28t-32 82q0 23 14 78t27.5 109t13.5 82t-14 48t-56 25l1 37q28 7 60 15.5t82 21t76.5 12.5
t42.5 -17.5t16 -43.5q0 -38 -30.5 -135t-35.5 -116.5t-5 -39.5q0 -79 109 -79q51 0 98.5 30t79.5 74q65 89 65 184q0 42 -12 67t-50 30l1 37q135 45 176 45q77 0 77 -77q0 -45 -13 -110q0 -85 54.5 -121.5t135.5 -36.5q26 0 50 3l46 184q8 34 8 56q0 57 -49 62v37
q117 28 171 28q66 0 66 -70q0 -33 -18 -99q-43 -156 -119.5 -496.5t-76.5 -368.5t15 -36.5t39 -8.5q111 0 184 10q29 118 223 128l3 -23q-30 -39 -30 -104q0 -97 72 -134l-2 -22q-40 -10 -78 -10z" />
    <glyph glyph-name="uni1223" unicode="&#x1223;" horiz-adv-x="1319" 
d="M1214 1153q66 0 66 -70q0 -33 -18 -99q-35 -127 -115.5 -477.5t-80.5 -390.5q0 -59 57 -63v-37q-112 -28 -180 -28q-61 0 -61 74t141 664q-58 -14 -107 -14q-115 0 -175 66q-85 -166 -243 -166q-98 0 -193 -29t-130.5 -29t-67.5 28t-32 82q0 23 14 78t27.5 109t13.5 82
t-14 48t-56 25l1 37q28 7 60 15.5t82 21t76.5 12.5t42.5 -17.5t16 -43.5q0 -38 -30.5 -135t-35.5 -116.5t-5 -39.5q0 -79 109 -79q51 0 98.5 30t79.5 74q65 89 65 184q0 42 -12 67t-50 30l1 37q135 45 176 45q77 0 77 -77q0 -45 -13 -110q0 -85 54.5 -121.5t135.5 -36.5
q26 0 50 3l46 184q8 34 8 56q0 57 -49 62v37q117 28 171 28z" />
    <glyph glyph-name="uni1224" unicode="&#x1224;" horiz-adv-x="1526" 
d="M1300 237q0 83 -94 83q-37 0 -104 -14q-34 -143 -34 -178q0 -66 73.5 -66t116 50t42.5 125zM916 712q-115 0 -175 66q-85 -166 -243 -166q-98 0 -193 -29t-130.5 -29t-67.5 28t-32 82q0 23 14 78t27.5 109t13.5 82t-14 48t-56 25l1 37q28 7 60 15.5t82 21t76.5 12.5
t42.5 -17.5t16 -43.5q0 -38 -30.5 -135t-35.5 -116.5t-5 -39.5q0 -79 109 -79q51 0 98.5 30t79.5 74q65 89 65 184q0 42 -12 67t-50 30l1 37q135 45 176 45q77 0 77 -77q0 -45 -13 -110q0 -85 54.5 -121.5t135.5 -36.5q26 0 50 3l46 184q8 34 8 56q0 57 -49 62v37
q117 28 171 28q66 0 66 -70q0 -34 -50.5 -228t-116.5 -497q45 8 101.5 19.5t113.5 11.5q158 0 158 -127q0 -115 -80.5 -183t-195.5 -68q-23 0 -63 5q-142 -26 -178.5 -26t-60.5 17.5t-24 52.5q0 84 139 666q-58 -14 -107 -14z" />
    <glyph glyph-name="uni1225" unicode="&#x1225;" horiz-adv-x="1766" 
d="M1666.5 1148q50.5 0 62.5 -27t12 -107t-36 -156.5t-94 -126.5q-115 -99 -274 -99q-118 0 -206 67q-107 -123 -277 -159q-54 -12 -107 -12q-121 0 -221 60q-260 -405 -279.5 -446.5t-19.5 -57.5q0 -39 66 -45v-37q-135 -28 -209 -28t-74 63q0 44 44 116
q255 417 370.5 586.5t123 185.5t7.5 30q0 40 -57 48v37q135 28 208 28t73 -56q-1 -41 -37 -95q-77 -112 -127 -193q12 -60 56.5 -89.5t98.5 -29.5q114 0 201.5 85.5t87.5 238.5q0 43 -13.5 73.5t-55.5 38.5v30q126 36 200 36q34 0 46 -27t12 -98.5t-52 -182.5
q49 -92 146 -92t157.5 65.5t60.5 195.5q0 45 -14 75t-56 38v31q126 36 176.5 36z" />
    <glyph glyph-name="uni1226" unicode="&#x1226;" horiz-adv-x="1342" 
d="M111 37q0 44 53.5 132.5t278.5 437.5q-60 -10 -126 -30t-105 -20t-72 31.5t-33 67.5t5 55q6 19 14 49q34 124 34 155q0 62 -70 71l1 37q28 7 60 15.5t82 21t76.5 12.5t42.5 -17.5t16 -43.5t-9 -56q-14 -46 -37 -113t-23 -99q0 -81 94 -81q38 0 98 17q32 49 62.5 96.5
t65.5 101.5t35 100.5t-57 55.5v37q135 28 206 28q61 0 61 -78.5t-74 -182.5q-5 -7 -10 -15q46 -95 146.5 -95t156 69t55.5 175t-72 120v31q126 36 176.5 36t62.5 -27t12 -107t-35.5 -155t-92.5 -123q-110 -93 -251.5 -93t-224.5 63q-345 -530 -365 -573t-20 -59
q0 -39 66 -45v-37q-135 -28 -209 -28t-74 63z" />
    <glyph glyph-name="uni1227" unicode="&#x1227;" horiz-adv-x="1581" 
d="M916 776q-115 0 -175 66q-85 -166 -243 -166q-98 0 -193 -29t-130.5 -29t-67.5 28t-32 82q0 23 14 78t27.5 109t13.5 82t-14 48t-56 25l1 37q28 7 60 15.5t82 21t76.5 12.5t42.5 -17.5t16 -43.5q0 -38 -30.5 -135t-35.5 -116.5t-5 -39.5q0 -79 109 -79q51 0 98.5 30
t79.5 74q65 89 65 184q0 42 -12 67t-50 30l1 37q135 45 176 45q77 0 77 -77q0 -45 -13 -110q0 -85 54.5 -121.5t135.5 -36.5q26 0 50 3l46 184q8 34 8 56q0 57 -49 62v37q117 28 171 28q66 0 66 -70q0 -34 -17.5 -98.5t-44.5 -180.5t-54 -235t-52 -233.5t-46 -209.5l456 27
q-34 -155 37 -248l2 -16q-94 -31 -174 1q-112 44 -109 186l-605 -33q-4 -117 -62.5 -175t-191.5 -58h-21q-10 0 -22 1l-1 18q93 96 51 236l-1 23l465 27q79 395 133 611q-58 -14 -107 -14z" />
    <glyph glyph-name="uni1228" unicode="&#x1228;" horiz-adv-x="1046" 
d="M259 218q1 -138 153 -138q120 0 252 54q16 121 219 159l7 -23q-19 -36 -19 -77q0 -72 24.5 -120.5t69.5 -61.5l1 -23q-70 -25 -129 -25q-131 0 -167 107v1q-206 -89 -357 -89q-185 0 -243 126q-20 42 -20 106q0 200 298 484q192 182 252.5 252.5t60.5 128.5t-72 63v37
q140 30 192.5 30t71.5 -15.5t19 -61.5q0 -90 -92 -210q-54 -70 -158 -172l-162 -162q-201 -206 -201 -370z" />
    <glyph glyph-name="uni1229" unicode="&#x1229;" horiz-adv-x="1207" 
d="M1102 515q0 -120 78 -161l1 -17q-55 -34 -109 -34q-93 0 -145.5 56.5t-52.5 161.5q-160 -29 -227 -39q-54 -349 -54 -384q0 -63 59 -66v-37q-125 -30 -172 -30q-79 0 -79 78q0 50 60 414q-95 -9 -162 -9q-255 0 -255 180q0 129 162 246q69 50 123.5 83.5t76.5 50.5
q48 37 49 73q0 51 -75 56v37q163 35 238 35t75 -69q0 -108 -150 -219q-42 -31 -83 -59q-114 -78 -144 -108q-64 -60 -63.5 -118t44 -86t166 -28t651.5 95q-12 -55 -12 -102z" />
    <glyph glyph-name="uni122A" unicode="&#x122a;" horiz-adv-x="1041" 
d="M852 499q94 0 94 -135.5t-85.5 -199t-311.5 -116.5q-180 -64 -272.5 -64t-159.5 54.5t-67 173.5q0 206 232 428q64 62 122 112q146 129 190 176q80 87 79.5 148t-72.5 66v37q140 30 192.5 30t71.5 -15.5t19 -65.5q0 -98 -95 -214q-58 -71 -164 -164q-105 -93 -163 -147
q-202 -190 -203 -367q0 -145 199 -145q109 0 195 62t86 159t-51 114q-15 5 -33 6v37q140 30 197 30z" />
    <glyph glyph-name="uni122B" unicode="&#x122b;" horiz-adv-x="1307" 
d="M1239 479q0 -97 46 -156l2 -16q-51 -17 -85 -17q-72 0 -119 47.5t-52 141.5q-73 -9 -122 -25.5t-79 -54.5q-54 -70 -54 -275q-66 -26 -128 -51t-158 -57.5t-170 -32.5q-131 0 -200.5 57t-69.5 148q0 154 95.5 289t239.5 259t190 178q86 102 86 162.5t-72 65.5v37
q140 30 192.5 30t71.5 -15.5t19 -61.5q0 -176 -296 -428q-151 -130 -210 -213q-107 -151 -107 -273q0 -132 163 -132q67 0 149 25q5 281 222 377q116 51 246.5 66t211.5 26q-12 -57 -12 -101z" />
    <glyph glyph-name="uni122C" unicode="&#x122c;" horiz-adv-x="1258" 
d="M730.5 148q33.5 -44 84.5 -44q85 0 124.5 47t39.5 111q0 136 -120 136q-112 0 -149 -77q-13 -27 -13 -78t33.5 -95zM507 210q0 124 82 178t231 61q18 1 69.5 13.5t65.5 12.5q103 0 158 -52.5t55 -143t-53.5 -156.5t-152 -66t-137 -12.5t-57.5 -18.5q-133 -38 -205 31
q-177 -73 -295 -73q-148 0 -200 126q-18 43 -18 113q0 133 116 287q76 101 231 237t194 179q82 90 82 150.5t-72 65.5v37q140 30 192.5 30t71.5 -15.5t19 -65.5q0 -98 -95 -214q-58 -71 -164 -164q-105 -93 -163 -147q-202 -190 -203 -367q1 -108 109 -136q32 -8 74 -8
t88 10q-23 44 -23 108z" />
    <glyph glyph-name="uni122D" unicode="&#x122d;" horiz-adv-x="1047" 
d="M866 -24q-153 0 -178 98q-323 -90 -383 -90q-115 0 -170 91t-55 303t29.5 326.5t60 177t76.5 116.5q94 110 265.5 158t434.5 48q-15 -45 -15 -93q0 -104 54 -168l2 -16q-39 -16 -81 -16q-85 0 -139 53t-54 150q-41 3 -89 3q-49 1 -108 -25q-60 -26 -102 -72
q-80 -86 -111.5 -236t-31.5 -284t4 -196q14 -215 160 -215q76 0 244 42q22 132 222 157l4 -20q-22 -40 -22 -81q0 -138 86 -175l-1 -19q-60 -17 -102 -17z" />
    <glyph glyph-name="uni122E" unicode="&#x122e;" horiz-adv-x="1228" 
d="M900 1171q-155 0 -155 -168q0 -95 70 -128q23 -11 57 -11q69 0 111.5 54t42.5 120q0 133 -126 133zM866 -24q-153 0 -178 98q-323 -90 -390 -90q-218 0 -218 351q0 571 284 725q102 56 250 51q80 127 354 127q156 0 208 -108q18 -36 17 -81q0 -92 -60 -167.5t-147 -75.5
l-98 2q-33 0 -95 -15.5t-86 -15.5q-54 0 -93.5 56t-39.5 117.5t15 108.5q-223 -13 -291 -341q-26 -129 -26.5 -248.5t3.5 -177.5q14 -203 160 -203q76 0 244 42q22 132 222 157l4 -20q-22 -40 -22 -81q0 -138 86 -175l-1 -19q-60 -17 -102 -17z" />
    <glyph glyph-name="uni122F" unicode="&#x122f;" horiz-adv-x="1393" 
d="M280 1095q0 43 -23 97.5t-68 99.5l-1 18q25 3 66 3q100 0 168.5 -56t74.5 -171h577q11 227 245 227q28 0 54 -3l-1 -18q-82 -77 -82 -204q0 -22 5 -62h-434q-3 -165 -281 -380q-151 -118 -207 -189q-104 -131 -104 -239q0 -134 163 -134q55 0 149 13q5 271 222 353
q112 42 244.5 55.5t213.5 24.5q-12 -58 -12 -101q0 -97 46 -156l2 -16q-51 -17 -85 -17q-72 0 -119 47.5t-52 141.5q-73 -9 -122 -23.5t-79 -51.5q-54 -68 -54 -283q-216 -21 -428 -75q-50 -12 -70 -13q-104 0 -166 54.5t-62 166.5q0 178 210 378q61 58 138 120
q166 134 215 192t49 132h-396q4 26 4 69z" />
    <glyph glyph-name="uni1230" unicode="&#x1230;" horiz-adv-x="1035" 
d="M537 980q-257 0 -257 -557q0 -188 16.5 -251.5t40 -83t60.5 -27.5l-2 -37q-41 -18 -123 -29t-99 -11t-29 6t-20 32q-16 50 -28 145.5t-12 167.5t3 146.5t15 146.5q59 356 353 413q4 96 4 141t-7.5 75.5t-39.5 32.5v37q104 25 146.5 25t54.5 -6t18 -19t7.5 -33.5
t1.5 -65.5t-7 -178q218 -22 255 -194q11 -52 11 -99q0 -61 -8.5 -182t-8.5 -217q0 -182 10 -228q14 -63 73 -78l-2 -37q-42 -15 -120 -23q-77 -8 -93 -8q-25 0 -35 32q-25 86 -25 219.5t2.5 198.5t5.5 123.5t5.5 106t2.5 74.5q0 242 -169 242z" />
    <glyph glyph-name="uni1231" unicode="&#x1231;" horiz-adv-x="1369" 
d="M537 980q-257 0 -257 -557q0 -188 16.5 -251.5t40 -83t60.5 -27.5l-2 -37q-41 -18 -123 -29t-99 -11t-29 6t-20 32q-16 50 -28 145.5t-12 167.5t3 146.5t15 146.5q59 356 353 413q4 96 4 141t-7.5 75.5t-39.5 32.5v37q104 25 146.5 25t54.5 -6t19.5 -22t7.5 -78.5
t-7 -195.5q218 -22 255 -194q11 -52 11 -99t-8 -167l187 8q37 110 196 110q23 0 58 -5l1 -18q-44 -35 -44 -116.5t60 -107.5v-18q-57 -18 -113.5 -18t-100.5 31.5t-61 86.5l-186 -9q-6 -87 -6 -179q0 -179 10 -225q14 -63 73 -78l-2 -37q-42 -15 -120 -23q-77 -8 -93 -8
q-25 0 -35 32q-25 86 -25 219.5t2.5 198.5t5.5 123.5t5.5 106t2.5 74.5q0 242 -169 242z" />
    <glyph glyph-name="uni1232" unicode="&#x1232;" horiz-adv-x="1412" 
d="M1312 -75q-162 0 -184 106q-210 -39 -290 -39t-105 21.5t-30 54.5q-5 32 -7 68q-6 78 -6 129v41q0 101 8 253t8 179q0 242 -169 242q-257 0 -257 -557q0 -188 17 -251.5t40 -83t60 -27.5l-2 -37q-41 -18 -123 -29t-99 -11t-29 6t-20 32q-16 50 -28 145.5t-12 167.5
t3 146.5t15 146.5q59 356 353 413q4 96 4 141t-7.5 75.5t-39.5 32.5v37q104 25 146.5 25t54.5 -6t19.5 -22t7.5 -78.5t-7 -195.5q218 -22 255 -194q11 -52 11 -99q0 -61 -8.5 -182t-8.5 -268t10.5 -179t25.5 -39.5t76.5 -7.5t129.5 9q29 121 223 131l3 -23q-30 -41 -30 -107
q0 -97 72 -134l-2 -22q-40 -10 -78 -10z" />
    <glyph glyph-name="uni1233" unicode="&#x1233;" horiz-adv-x="1004" 
d="M609 1228q0 -45 -7 -178q218 -22 255 -194q11 -52 11 -99q0 -61 -8.5 -182t-8.5 -217q1 -182 11 -228q14 -63 72 -78l-2 -37q-42 -14 -120 -22.5t-94 -8.5q-25 0 -34 32q-25 86 -25 219.5t2.5 198.5t5.5 123.5t5.5 106t2.5 74.5q0 242 -163 242q-106 0 -168 -80
q-82 -104 -81.5 -268.5t41.5 -210.5q18 -20 49 -22l-2 -36q-32 -14 -112.5 -25.5t-107.5 -11.5t-38 26q-28 84 -28 182q0 434 359 507q4 96 4 141t-7.5 75.5t-39.5 32.5v37q104 25 146.5 25t54.5 -6t18 -19t7.5 -33.5t1.5 -65.5z" />
    <glyph glyph-name="uni1234" unicode="&#x1234;" horiz-adv-x="1346" 
d="M1122 197q0 120 -104 120q-54 0 -136 -15v-69q0 -97 15 -125q27 -50 110.5 -50t107.5 85q7 25 7 54zM537 980q-257 0 -257 -557q0 -188 17.5 -251t40 -83t59.5 -28l-2 -37q-41 -18 -123 -29t-99 -11t-29 6t-20 32q-16 50 -28 145.5t-12 167.5t3 146.5t15 146.5
q59 356 353 413q4 96 4 141t-7.5 75.5t-39.5 32.5v37q104 25 146.5 25t54.5 -6t19.5 -22t7.5 -78.5t-7 -195.5q218 -22 255 -190q11 -50 11 -98q0 -59 -8.5 -175.5t-8.5 -231.5q150 30 240 30q184 0 184 -174q0 -100 -63 -151.5t-151 -51.5q-34 0 -91 4q-129 -28 -244 -28
q-34 0 -43 32q-24 85 -24 221.5t2.5 201.5t5.5 123t5.5 105t2.5 74q0 239 -169 239z" />
    <glyph glyph-name="uni1235" unicode="&#x1235;" horiz-adv-x="1027" 
d="M537 980q-257 0 -257 -557q0 -188 16.5 -251.5t40 -83t60.5 -27.5l-2 -37q-41 -18 -123 -29t-99 -11t-29 6t-20 32q-16 50 -28 145.5t-12 166.5t3 143.5t14 143.5q25 160 101 268.5t228 145.5q-23 33 -48 68q-93 130 -93 178q-1 49 85 63q54 9 156 20l13 -35
q-45 -19 -45 -60t132 -219h3q218 -22 255 -194q11 -52 11 -99q0 -61 -8.5 -182t-8.5 -217q0 -182 10 -228q14 -63 73 -78l-2 -37q-42 -15 -120 -23q-77 -8 -93 -8q-25 0 -35 32q-25 86 -25 219.5t2.5 198.5t5.5 123.5t5.5 106t2.5 74.5q0 242 -169 242z" />
    <glyph glyph-name="uni1236" unicode="&#x1236;" horiz-adv-x="1014" 
d="M528 980q-200 0 -239 -347q-9 -80 -9 -157q0 -237 20.5 -317.5t96.5 -96.5l-2 -37q-41 -18 -123 -29t-99 -11t-29 6q-12 5 -20 31q-16 50 -28 146t-12 168t3 146t15 146q26 163 105 272.5t238 140.5q4 96 4 141t-7.5 75.5t-39.5 32.5v37q104 25 146.5 25t54.5 -6
t19.5 -22t7.5 -78.5t-7 -195.5q213 -22 250 -194q11 -52 11 -109l-5 -155q0 -117 9 -146.5t26 -43t48 -19.5l-2 -37q-41 -14 -120 -22q-80 -9 -100 -9q-20 -1 -29 23q-25 64 -25 216l5 184q0 242 -163 242z" />
    <glyph glyph-name="uni1237" unicode="&#x1237;" horiz-adv-x="1293" 
d="M153 -263h-21q-10 0 -22 1l-1 18q93 96 51 236l-1 23l469 27q37 444 37 694t-151 250q-172 0 -224 -252q-20 -93 -19 -167q-1 -133 13 -177q18 -59 74 -65l-2 -37q-36 -16 -109 -25.5t-90 -9.5t-29 4.5t-30.5 56.5t-18.5 160q1 226 77 370q93 176 278 215l22 247h175
l-21 -241q249 -35 249 -330q0 -164 -37 -682l412 24q-34 -155 37 -248l2 -16q-94 -31 -175 1q-119 46 -113 190l-573 -32q-4 -118 -64.5 -176.5t-194.5 -58.5z" />
    <glyph glyph-name="uni1238" unicode="&#x1238;" horiz-adv-x="1062" 
d="M643 1040q252 -28 252 -296q0 -61 -8.5 -177.5t-8.5 -210.5q0 -180 10 -226q14 -61 73 -77l-2 -38q-42 -15 -120 -23q-77 -8 -93 -8q-25 0 -35 32q-25 86 -25 217.5t2.5 195t5.5 120.5t5.5 103.5t2.5 73.5q0 244 -152 244q-229 0 -229 -550q0 -185 16.5 -248.5t40 -83
t60.5 -27.5l-2 -37q-42 -19 -124 -29.5t-99.5 -10.5t-29 6t-19.5 31q-17 49 -29 144.5t-12 166.5t3 145t14 146q25 161 102.5 270t232.5 138l7 240l-197 -16q-21 -124 -239 -140l-3 16q48 67 48 140.5t-76 114.5l1 16q45 12 85 12q165 0 180 -103l590 52q30 111 221 123
l2 -17q-23 -63 -23 -107q0 -94 70 -137l1 -16q-55 -12 -91 -12q-155 0 -176 108l-225 -19z" />
    <glyph glyph-name="uni1239" unicode="&#x1239;" horiz-adv-x="1385" 
d="M643 1040q252 -27 252 -291q0 -43 -2 -79l186 8q37 110 196 110q23 0 58 -5l1 -18q-44 -35 -44 -116.5t60 -107.5v-18q-57 -18 -113.5 -18t-100.5 31.5t-61 86.5l-186 -9q-11 -157 -11 -255q0 -183 10 -229q14 -61 73 -77l-2 -38q-42 -15 -120 -23q-77 -8 -93 -8
q-25 0 -35 32q-25 86 -25 217.5t2.5 195t5.5 120.5t5.5 103.5t2.5 73.5q0 244 -152 244q-229 0 -229 -550q0 -185 16.5 -248.5t40 -83t60.5 -27.5l-2 -37q-42 -19 -124 -29.5t-99.5 -10.5t-29 6t-19.5 31q-17 49 -29 144.5t-12 166.5t3 145t14 146q25 161 102.5 270
t232.5 138l7 240l-197 -16q-21 -124 -239 -140l-3 16q48 67 48 140.5t-76 114.5l1 16q45 12 85 12q165 0 180 -103l590 52q30 111 221 123l2 -17q-23 -63 -23 -107q0 -94 70 -137l1 -16q-55 -12 -91 -12q-155 0 -176 108l-225 -19z" />
    <glyph glyph-name="uni123A" unicode="&#x123a;" horiz-adv-x="1413" 
d="M1308 -75q-162 0 -184 106q-210 -39 -290 -39t-105 21.5t-30 54.5q-5 32 -7 68q-6 78 -6 129v41q0 99 8 246t8 174q0 244 -152 244q-229 0 -229 -550q0 -185 16.5 -248.5t40 -83t60.5 -27.5l-2 -37q-42 -19 -124 -29.5t-99.5 -10.5t-29 6t-19.5 31q-17 49 -29 144.5
t-12 166.5t3 145t14 146q25 161 102.5 270t232.5 138l7 240l-197 -16q-21 -124 -239 -140l-3 16q48 67 48 140.5t-76 114.5l1 16q45 12 85 12q165 0 180 -103l590 52q30 111 221 123l2 -17q-23 -63 -23 -107q0 -94 70 -137l1 -16q-55 -12 -91 -12q-155 0 -176 108l-225 -19
l-7 -246q252 -28 252 -296q0 -60 -8.5 -176.5t-8.5 -262t10.5 -177.5t25.5 -39.5t76.5 -7.5t129.5 9q29 121 223 131l3 -23q-30 -41 -30 -107q0 -97 72 -134l-2 -22q-40 -10 -78 -10z" />
    <glyph glyph-name="uni123B" unicode="&#x123b;" horiz-adv-x="1062" 
d="M643 1040q252 -28 252 -296q0 -61 -8.5 -177.5t-8.5 -210.5q0 -180 10 -226q14 -61 73 -77l-2 -38q-42 -15 -120 -23q-77 -8 -93 -8q-25 0 -35 32q-25 86 -25 217.5t2.5 195t5.5 120.5t5.5 103.5t2.5 73.5q0 244 -152 244q-96 0 -154 -78q-76 -99 -76 -262t41 -209
q18 -20 49 -22l-2 -36q-33 -15 -113.5 -26t-107 -11t-38.5 24q-27 81 -27 181q0 431 353 500l7 240l-197 -16q-21 -124 -239 -140l-3 16q48 67 48 140.5t-76 114.5l1 16q45 12 85 12q165 0 180 -103l590 52q30 111 221 123l2 -17q-23 -63 -23 -107q0 -94 70 -137l1 -16
q-55 -12 -91 -12q-155 0 -176 108l-225 -19z" />
    <glyph glyph-name="uni123C" unicode="&#x123c;" horiz-adv-x="1342" 
d="M1118 197q0 120 -104 120q-54 0 -136 -15v-69q0 -97 15 -125q27 -50 110.5 -50t107.5 85q7 25 7 54zM643 1040q252 -26 252 -294q0 -60 -8.5 -170.5t-8.5 -220.5q150 30 240 30q184 0 184 -174q0 -100 -63 -151.5t-151 -51.5q-34 0 -91 4q-129 -28 -244 -28q-34 0 -43 32
q-24 85 -24 221.5t2.5 198.5t5.5 117.5t5.5 100.5t2.5 72q0 244 -152 244q-229 0 -229 -550q0 -185 16.5 -248.5t40 -83t60.5 -27.5l-2 -37q-42 -19 -124 -29.5t-99.5 -10.5t-29 6t-19.5 31q-17 49 -29 144.5t-12 166.5t3 145t14 146q25 161 102.5 270t232.5 138l7 240
l-197 -16q-21 -124 -239 -140l-3 16q48 67 48 140.5t-76 114.5l1 16q45 12 85 12q165 0 180 -103l590 52q30 111 221 123l2 -17q-23 -63 -23 -107q0 -94 70 -137l1 -16q-55 -12 -91 -12q-155 0 -176 108l-225 -19z" />
    <glyph glyph-name="uni123D" unicode="&#x123d;" horiz-adv-x="1110" 
d="M949 1163q-155 0 -176 108l-173 -14l133 -220q229 -37 229 -293q0 -60 -8.5 -177t-8.5 -211q1 -180 11 -226q14 -61 72 -77l-2 -38q-42 -14 -120 -22.5t-94 -8.5q-25 0 -34 32q-25 86 -25 217.5t2.5 195t5.5 120.5t5.5 103.5t2.5 73.5q0 244 -152 244q-229 0 -229 -550
q0 -185 16.5 -248.5t40 -83t60.5 -27.5l-2 -37q-42 -19 -124 -29.5t-99.5 -10.5t-29.5 6t-20 31q-17 49 -28.5 144.5t-11.5 166.5t3 144.5t14 145.5q25 161 102 269t232 140l-127 209l-144 -11q-21 -124 -239 -140l-3 16q48 67 48 140.5t-76 114.5l1 16q45 12 85 12
q165 0 180 -103l503 44q29 111 228 123l-5 -17q-23 -63 -23 -107q0 -94 70 -137l1 -16q-56 -12 -91 -12z" />
    <glyph glyph-name="uni123E" unicode="&#x123e;" horiz-adv-x="1102" 
d="M1051 1197q-155 0 -176 108l-225 -19l-7 -246q207 -22 243 -192q10 -50 10 -106l-5 -150q0 -118 9 -147.5t26 -43t48 -19.5l-2 -37q-42 -14 -120.5 -22.5t-99.5 -8.5t-29 24q-24 65 -24 196l4 199q0 237 -153 237q-229 0 -229 -550q0 -185 16.5 -248.5t40 -83t60.5 -27.5
l-2 -37q-42 -19 -124 -29.5t-99.5 -10.5t-29 6t-19.5 31q-17 49 -29 144.5t-12 166.5t3 145t14 146q25 161 102.5 270t232.5 138l7 240l-197 -16q-21 -124 -239 -140l-3 16q48 67 48 140.5t-76 114.5l1 16q45 12 85 12q165 0 180 -103l590 52q30 111 221 123l2 -17
q-23 -63 -23 -107q0 -94 70 -137l1 -16q-56 -12 -91 -12z" />
    <glyph glyph-name="uni123F" unicode="&#x123f;" horiz-adv-x="1344" 
d="M571 986q-234 0 -234 -424q-1 -128 13 -172q18 -59 74 -65l-2 -37q-36 -16 -109 -25.5t-90 -9.5t-29 4t-30.5 56t-18.5 174q0 252 78.5 391.5t269.5 180.5l9 178l-226 -12q-26 -124 -234 -131l-2 16q84 112 36 200q-18 33 -56 56l2 16q126 28 202 -20q42 -26 49 -81
l626 36q34 109 215 115l1 -17q-25 -57 -27 -103q-3 -95 66 -143l1 -16q-123 -29 -201 19q-42 26 -53 87l-228 -13l-7 -181q197 -28 235 -187q12 -50 12 -157.5t-40 -667.5l412 24q-34 -155 37 -248l2 -16q-94 -31 -175 1q-119 46 -113 190l-573 -32q-4 -118 -64.5 -176.5
t-194.5 -58.5h-22q-10 0 -21 1l-1 18q93 96 51 236l-1 23l469 27q40 480 40 712t-148 232z" />
    <glyph glyph-name="uni1240" unicode="&#x1240;" horiz-adv-x="1153" 
d="M951 781q0 65 -44 101.5t-98.5 36.5t-93.5 -3l-63 -368q214 3 278 127q22 41 21 106zM230 698q0 -157 170 -157q24 0 69 5l64 365q-217 -1 -279 -107q-24 -42 -24 -106zM890 990q248 0 248 -194q0 -268 -386 -302q-58 -5 -110 -6q-57 -346 -57 -385q0 -61 54 -63v-37
q-117 -28 -175 -28q-73 0 -73 77q0 31 68 432q-77 -11 -136 -11q-124 0 -201 46.5t-77 145.5q0 171 155 246q120 58 311 58h18q8 0 14 -1q40 216 40 232q0 66 -49 69v37q117 28 180 28t63 -64q0 -12 -8 -55.5t-19.5 -108t-23.5 -131.5q107 15 164 15z" />
    <glyph glyph-name="uni1241" unicode="&#x1241;" horiz-adv-x="1172" 
d="M955 776q0 145 -164 145q-36 0 -75 -3l-63 -362q217 2 281 124q22 40 21 96zM230 698q0 -157 170 -157q24 0 69 5l64 365q-217 -1 -279 -107q-24 -42 -24 -106zM893 992q249 0 249 -191q0 -266 -388 -299q-58 -5 -111 -6q-19 -119 -31 -193l237 19q25 77 124 101
q54 13 118 4l1 -18q-45 -36 -41.5 -117t64.5 -106l1 -18q-44 -22 -101 -22t-103 29t-62 92l-246 -20q-5 -29 -8.5 -56t-7 -48.5t-3.5 -39.5q0 -61 54 -63v-37q-117 -28 -175 -28q-73 0 -73 77q0 31 68 432q-77 -11 -136 -11q-124 0 -201 46.5t-77 145.5q0 171 155 246
q120 58 311 58h18q8 0 14 -1q40 216 40 232q0 66 -49 69v37q117 28 180 28t63 -64q0 -12 -8 -55.5t-19 -107t-23 -130.5q108 15 166 15z" />
    <glyph glyph-name="uni1242" unicode="&#x1242;" horiz-adv-x="1168" 
d="M951 781q0 65 -44 101.5t-98.5 36.5t-93.5 -3l-63 -368q214 3 278 127q22 41 21 106zM230 698q0 -157 170 -157q24 0 69 5l64 365q-217 -1 -279 -107q-24 -42 -24 -106zM890 990q248 0 248 -194q0 -268 -386 -302q-58 -5 -110 -6q-57 -346 -57 -388t36.5 -42t76.5 4l70 6
q29 2 50 5q29 121 223 131l3 -23q-32 -49 -32 -115q0 -100 69 -134l-2 -22q-40 -10 -78 -10q-72 0 -122.5 29.5t-61.5 84.5q-256 -39 -355 -39q-70 0 -70 74q0 47 24 185t43 250q-77 -11 -136 -11q-124 0 -201 46.5t-77 145.5q0 171 155 246q120 58 311 58h18q7 0 14 -1
q40 216 40 232q0 66 -49 69v37q117 28 180 28t63 -64q0 -12 -8 -55.5t-19.5 -108t-23.5 -131.5q107 15 164 15z" />
    <glyph glyph-name="uni1243" unicode="&#x1243;" horiz-adv-x="1401" 
d="M935 916v-313q136 10 179 31q85 41 85 131q0 200 -264 151zM673 589q36 0 79 5v308q-138 -5 -180 -22q-88 -35 -90 -139q0 -152 191 -152zM387.5 564q-83.5 44 -88.5 145q-11 153 159 210q88 29 170.5 34t123.5 6v195q0 89 -56 95v37q112 28 153.5 28t55.5 -9
q30 -19 30 -94v-238q103 16 172 16q133 1 197 -37q82 -48 82 -153q0 -219 -348 -249q-53 -4 -103 -7q-4 -181 -145.5 -287t-409.5 -119q-62 -3 -101 -4q2 -16 2 -48q0 -79 -54 -141.5t-138 -62.5q-39 0 -79 15q63 88 63 185q0 43 -12 91l5 8q241 14 323 26q173 26 266.5 100
t97.5 228q-93 -14 -187.5 -14t-178 44z" />
    <glyph glyph-name="uni1244" unicode="&#x1244;" horiz-adv-x="1172" 
d="M858 215q0 98 -94 98q-67 0 -151 -10l-10 -64q-15 -88 -8 -116.5t19.5 -40.5t34.5 -18t57 -6q69 0 110.5 49t41.5 108zM955 776q0 145 -164 145q-36 0 -75 -3l-63 -362q217 2 281 124q22 40 21 96zM230 698q0 -157 170 -157q24 0 69 5l64 365q-217 -1 -279 -107
q-24 -42 -24 -106zM893 992q249 0 249 -191q0 -266 -388 -299q-58 -5 -111 -6q-17 -99 -23 -140q164 27 252 27q169 0 169 -141q0 -117 -76.5 -178t-197.5 -61q-34 0 -72 5q-158 -33 -236 -33q-68 0 -68 73q0 35 68 436q-77 -11 -136 -11q-124 0 -201 46.5t-77 145.5
q0 171 155 246q120 58 311 58h19q8 0 13 -1q40 216 40 232q0 66 -49 69v37q117 28 180 28t63 -64q0 -12 -8 -55.5t-19 -107t-23 -130.5q108 15 166 15z" />
    <glyph glyph-name="uni1245" unicode="&#x1245;" horiz-adv-x="1153" 
d="M951 781q0 65 -44 101.5t-98.5 36.5t-93.5 -3l-63 -368q214 3 278 127q22 41 21 106zM230 698q0 -157 170 -157q24 0 69 5l64 365q-217 -1 -279 -107q-24 -42 -24 -106zM890 990q248 0 248 -194q0 -268 -386 -302q-58 -5 -110 -6q-57 -346 -57 -385q0 -61 54 -63v-37
q-117 -28 -175 -28q-73 0 -73 77q0 31 68 432q-77 -11 -136 -11q-124 0 -201 46.5t-77 145.5q0 171 155 246q120 58 311 58h18q8 0 14 -1q41 221 41 238q0 37 -39 55.5t-141 28.5q-59 -24 -173 -27l-3 16q54 57 54 126t-71 108l2 16q31 7 72 7q91 0 153 -27.5t62 -86.5
t-47 -99l1 -2q147 13 260 13q63 0 63 -65q0 -10 -8 -54t-19.5 -108.5t-23.5 -131.5q107 15 164 15z" />
    <glyph glyph-name="uni1246" unicode="&#x1246;" horiz-adv-x="1122" 
d="M761 1125q0 147 -120 147q-91 0 -122 -66q-10 -21 -10 -51t13 -64t32 -67t41 -63t40 -55q70 46 91 82q35 62 35 137zM212 545q0 -154 178 -154q27 0 55 5l39 381q-272 -44 -272 -232zM737 773q-31 0 -72 -9l-35 -347h15q187 -1 246 105q21 38 21 104t-48 106.5t-127 40.5
zM319 323q-125 0 -207 48t-82 156q0 140 152 215q82 40 161 58.5t122 27.5q-15 23 -35 50q-84 111 -84 191q0 138 112 208.5t255 70.5t197 -96q18 -34 18 -88q0 -107 -70.5 -177t-198.5 -129q6 -12 8 -37q121 23 174 23q114 0 185 -51.5t71 -154.5q0 -281 -454 -281h-19
q-1 -12 -2 -25.5t-3 -28.5l-5 -59q-4 -58 -6.5 -90.5t-0.5 -54.5q5 -57 59 -59l2 -37q-117 -28 -166 -28t-66 21.5t-19 45.5t-0.5 40t3.5 44q6 87 20 206v4q-63 -13 -121 -13z" />
    <glyph glyph-name="uni1247" unicode="&#x1247;" horiz-adv-x="1132" 
d="M771 1125q0 147 -120 147q-91 0 -122 -66q-10 -21 -10 -51t13 -64t32 -67t41 -63t40 -55q70 46 91 82q35 62 35 137zM222 545q0 -154 178 -154q27 0 55 5l39 381q-272 -44 -272 -232zM747 773q-31 0 -72 -9l-35 -347h15q187 -1 246 105q21 38 21 104t-48 106.5t-127 40.5
zM329 323q-125 0 -207 48t-82 156q0 140 152 215q81 40 160 58.5t123 27.5q-15 23 -35 50q-84 111 -84 191q0 138 112.5 208.5t255 70.5t196.5 -96q18 -34 18 -88q0 -107 -70.5 -177t-198.5 -129q6 -12 8 -37q121 23 174 23q114 0 185 -51.5t71 -154.5q0 -281 -454 -281h-19
l-4 -48q-18 -281 -30.5 -300t-37.5 -21l-274 -24q-7 -137 -251 -137v17q53 55 53 121t-70 108v14q40 9 84 9q144 0 175 -78l124 10q23 3 26.5 49t6.5 81q8 90 14 178q-63 -13 -121 -13z" />
    <glyph glyph-name="uni1248" unicode="&#x1248;" horiz-adv-x="1260" 
d="M980 405q-115 0 -115 -138q0 -83 50 -113q17 -10 42 -10q48 0 79 45t31 100q0 116 -87 116zM955 847q0 145 -164 145q-36 0 -75 -3l-63 -362q217 3 281 125q22 40 21 95zM230 769q0 -157 170 -157q24 0 69 5l64 365q-217 0 -279 -106q-24 -42 -24 -107zM963 91l-134 -19
q-45 0 -82.5 47.5t-37.5 113.5t40 142l-138 -5q-9 -60 -17.5 -118.5t-14 -94.5t-5.5 -54q0 -61 54 -63v-37q-117 -28 -175 -28q-73 0 -73 77q0 38 35 243t44 260q-77 -11 -136 -11q-124 0 -201 46.5t-77 145.5q0 171 155 246q120 58 311 58h18q8 0 14 -1q35 189 35 201
q0 66 -49 69v37q117 28 180 28t63 -64q0 -22 -14.5 -97.5t-19.5 -103.5t-11 -61q108 15 166 15q249 0 249 -191q0 -266 -388 -299q-58 -5 -111 -6q-17 -101 -23 -142q167 2 218.5 13.5t98.5 20.5t114 9t118 -44t51 -124.5t-48.5 -148t-116.5 -67.5z" />
    <glyph glyph-name="uni124A" unicode="&#x124a;" horiz-adv-x="1855" 
d="M947 803q0 75 -46 115t-124 40q-35 0 -72 -3l-46 -368q288 14 288 216zM228 745q0 -165 177 -165q34 0 68 4l47 366q-136 0 -191 -31.5t-78 -71.5t-23 -102zM1540 1023q0 -8 -72 -337l322 8q-23 -54 -23 -138t63 -127l-1 -16q-45 -17 -91 -17q-90 0 -138 64t-44 167
q-108 -4 -133 -4h-53q-72 0 -82 41q-3 12 -3 24t2 22.5t4 21.5l10 45l-174 -6q-42 -235 -475 -244q-46 -383 -46 -416t10 -52t43 -19v-37q-117 -28 -175 -28q-72 0 -72 79q0 34 53 469q-77 -11 -135 -11q-122 0 -203.5 50t-81.5 154q1 253 353 287q52 5 81 5h39q4 0 10 -1
q4 26 7 51t7 50l14 100q3 24 3 34q0 61 -49 66v37q117 28 167.5 28t62.5 -19.5t12 -44t-12.5 -105.5t-26.5 -190q105 15 164 15q113 0 184.5 -50.5t71.5 -147.5l183 6q27 99 27 123q0 58 -51 63v37q117 28 182.5 28t65.5 -65z" />
    <glyph glyph-name="uni124B" unicode="&#x124b;" horiz-adv-x="1173" 
d="M802 1142q-33 0 -72 -3l-56 -404q215 3 277 133q21 44 21 114.5t-44 115t-126 44.5zM247 914q0 -186 175 -186q24 0 69 5l57 401q-301 5 -301 -220zM346 660q-128 0 -206 56.5t-78 162.5t44 164q112 149 415 149h20q8 0 15 -1q2 8 3 14.5t2 12.5l4 25q2 13 4 27t4.5 29
t2.5 27q0 77 -51 77l-2 37q117 28 180.5 28t63.5 -70q0 -21 -6.5 -59t-9 -55t-5.5 -37t-7 -49q107 15 166 15q117 0 185 -55t68 -165q0 -309 -492 -318q-6 -45 -15.5 -114t-18.5 -144q8 1 17 1h52q110 0 186 -8q48 -5 48 -57l-5 -179q0 -64 9.5 -94.5t41.5 -32.5v-37
q-164 -38 -195.5 -23.5t-34.5 45t-3 59.5l1 137q0 94 -6 102q-19 28 -165 28t-236 -12q12 -101 -64 -175.5t-190 -68.5l-6 14q58 79 58 176q0 33 -11 88q153 21 319 31q10 75 19 143.5t16 116.5q-77 -11 -137 -11z" />
    <glyph glyph-name="uni124C" unicode="&#x124c;" horiz-adv-x="1166" 
d="M872 346q0 100 -108 100q-45 0 -110 -9l-6 -64q-4 -38 -4 -66q0 -115 89 -115q75 0 107 44t32 110zM792 1034q-36 0 -75 -3l-38 -351q136 7 189.5 38t75.5 67.5t22 103.5t-46.5 106t-127.5 39zM247 820q0 -70 46 -112.5t134 -42.5q26 0 68 5l40 354q-136 0 -189.5 -29.5
t-76 -67t-22.5 -107.5zM679.5 1354q64.5 0 64.5 -76q0 -16 -3.5 -41.5t-7 -65t-8.5 -81.5q105 15 165 15q118 0 189.5 -50t71.5 -148q0 -255 -372 -282q-55 -4 -106 -5q-7 -58 -14 -130q143 26 200 26q99 0 146.5 -39.5t47.5 -106.5q0 -119 -65.5 -176t-176.5 -57
q-31 0 -69 5q-73 -16 -190 -35l-293 -48q4 -19 4 -53q0 -78 -58.5 -141t-138.5 -63q-30 0 -58 9q45 90 45 154.5t-18 112.5l429 72q-19 27 -12 90q23 226 37 368q-77 -11 -136 -11q-125 0 -208 52t-83 159q0 198 245 254q89 20 151 20h73q5 0 10 -1l14 134q0 71 -54 74
l-3 37q117 28 181.5 28z" />
    <glyph glyph-name="uni124D" unicode="&#x124d;" horiz-adv-x="1795" 
d="M937 850q0 70 -44 112t-122 42q-34 0 -70 -3l-48 -386q205 10 263 123q22 42 21 112zM228 769.5q0 -76.5 45.5 -119t127.5 -42.5q32 0 66 4l49 384q-208 0 -266 -108q-22 -42 -22 -118.5zM668.5 1373q50.5 0 62.5 -19.5t12 -44t-4.5 -49.5t-8 -49t-8.5 -58t-13 -93
q105 15 162 15q112 0 181.5 -52.5t69.5 -154.5l197 7q3 23 5 51q6 72 6 92q0 55 -53 62v37q117 28 181.5 28t64.5 -65q0 -27 -20 -199l227 8q-23 -54 -23 -138t63 -127l-1 -16q-45 -17 -91 -17q-90 0 -138 64t-44 165l-380 -12q-36 -206 -318 -242q-78 -10 -152 -11
q-20 -160 -31 -265t-14.5 -136.5t-3.5 -53.5q0 -60 53 -60v-37q-117 -28 -175 -28q-72 0 -72 79q0 13 4 47q5 35 11 93q26 230 41 357q-75 -11 -133 -11q-122 0 -201.5 51.5t-79.5 159.5q0 219 247 281q90 22 151 22h71q5 0 10 -1l26 189q0 61 -49 66v37q117 28 167.5 28z
" />
    <glyph glyph-name="uni1250" unicode="&#x1250;" horiz-adv-x="1154" 
d="M952 804q0 162 -181 162q-30 0 -58 -4l-54 -368q203 4 269 116q24 42 24 94zM233 734q0 -78 45.5 -119.5t130.5 -41.5q24 0 66 7l56 372q-298 -11 -298 -218zM1101 1259q-158 0 -179 108l-183 -16q18 -36 18 -72t-7.5 -83t-11 -69.5t-7.5 -47.5t-9 -58q108 15 165 15
q116 0 184 -49.5t68 -151.5q0 -262 -378 -295q-57 -5 -110 -6q-54 -370 -54 -432t56 -62l1 -37q-117 -28 -174 -28q-74 0 -74 80q0 18 10.5 97t19 142t31.5 224q-76 -13 -135 -13q-125 0 -204 50.5t-79 156.5q1 210 283 274q91 21 207 23q4 27 7.5 46.5t6.5 37.5t6 35.5
t8 52.5t5 77.5t-19 77.5l-225 -19q-21 -124 -236 -140l-3 16q48 67 48 140.5t-76 114.5l1 16q46 12 86 12q161 0 176 -103l594 52q30 111 224 123l2 -17q-23 -63 -23 -107q0 -94 70 -137l1 -16q-56 -12 -91 -12z" />
    <glyph glyph-name="uni1251" unicode="&#x1251;" horiz-adv-x="1172" 
d="M952 804q0 162 -181 162q-30 0 -58 -4l-54 -368q203 4 269 116q24 42 24 94zM233 727.5q0 -70.5 45.5 -112.5t130.5 -42q24 0 66 7l56 372q-130 -5 -188 -39t-84 -74.5t-26 -111zM1101 1259q-158 0 -179 108l-183 -16q18 -36 18 -72t-7.5 -83t-11 -69.5t-7.5 -47.5
t-9 -58q108 15 165 15q116 0 184 -49.5t68 -151.5q0 -262 -378 -295q-57 -5 -110 -6q-8 -51 -15 -106t-15 -109l186 16q34 106 184 111q30 0 58 -4l1 -18q-41 -35 -41 -117.5t62 -105.5l1 -18q-44 -22 -101 -22t-103 29t-62 92l-192 -17q-5 -35 -8.5 -67.5t-6 -53
t-2.5 -34.5q0 -70 56 -70l1 -37q-117 -28 -174 -28q-74 0 -74 80q0 18 10.5 97t19 142t31.5 224q-76 -13 -135 -13q-125 0 -204 50.5t-79 156.5q1 210 283 274q91 21 207 23q4 27 7.5 46.5t6.5 37.5t6 35.5t8 52.5t5 77.5t-19 77.5l-225 -19q-21 -124 -236 -140l-3 16
q48 67 48 140.5t-76 114.5l1 16q46 12 86 12q161 0 176 -103l594 52q30 111 224 123l2 -17q-23 -63 -23 -107q0 -94 70 -137l1 -16q-56 -12 -91 -12z" />
    <glyph glyph-name="uni1252" unicode="&#x1252;" horiz-adv-x="1168" 
d="M948 804q0 162 -181 162q-30 0 -58 -4l-54 -368q203 4 269 116q24 42 24 94zM229 734q0 -78 45.5 -119.5t130.5 -41.5q24 0 66 7l56 372q-298 -11 -298 -218zM1097 1259q-158 0 -179 108l-183 -16q18 -36 18 -72t-7.5 -83t-11 -69.5t-7.5 -47.5t-9 -58q107 15 165 15
q116 0 184 -49.5t68 -151.5q0 -262 -378 -295q-57 -5 -110 -6q-42 -277 -49.5 -358t5.5 -100t69 -19t169 13q29 117 223 127l3 -23q-32 -46 -32 -116q0 -102 70 -136l-2 -22q-40 -10 -86 -10q-157 0 -177 121q-236 -36 -364 -36q-74 0 -74 80q0 18 10.5 97t19 142t31.5 224
q-76 -13 -135 -13q-125 0 -204 50.5t-79 156.5q1 210 283 274q91 21 207 23q4 27 7.5 46.5t6.5 37.5t6 35.5t8 52.5t5 77.5t-19 77.5l-225 -19q-21 -124 -236 -140l-3 16q48 67 48 140.5t-76 114.5l1 16q46 12 86 12q161 0 176 -103l594 52q30 111 224 123l2 -17
q-23 -63 -23 -107q0 -94 70 -137l1 -16q-56 -12 -91 -12z" />
    </font>
</defs>
</svg>
